{
.appVersion = "1352";
copyright = "Copyright 2020 The Moul Project Authors (https://github.com/danhhong/Moul)";
customParameters = (
{
name = fsType;
value = (
);
},
{
name = "Use Typo Metrics";
value = 1;
},
{
name = license;
value = "This Font Software is licensed under the SIL Open Font License, Version 1.1. This license is available with a FAQ at: https://scripts.sil.org/OFL";
},
{
name = licenseURL;
value = "https://scripts.sil.org/OFL";
}
);
date = "2020-02-19 02:17:00 +0000";
designer = "Danh Hong";
designerURL = "http://www.nextspell.com";
disablesAutomaticAlignment = 1;
disablesNiceNames = 1;
familyName = Moul;
featurePrefixes = (
{
code = "lookup lookup_0 {\012sub uni17B7 by uni17B7.r;\012sub uni17B8 by uni17B8.r;\012sub uni17B9 by uni17B9.r;\012sub uni17BA by uni17BA.r;\012sub uni17BE by uni17B8.r;\012sub uni17C6 by uni17C6.r;\012sub uni17C9 by uni17C9.r;\012sub uni17CD by uni17CD.r;\012sub uni17B7_17CD by uni17B7_17CD.r;\012} lookup_0;\012";
name = lookup_0;
},
{
code = "lookup lookup_1 {\012sub uni17B7 by uni17B7.a;\012sub uni17B8 by uni17B8.a;\012sub uni17B9 by uni17B9.a;\012sub uni17BA by uni17BA.a;\012sub uni17BE by uni17B8.a;\012sub uni17C6 by uni17C6.a;\012sub uni17CE by uni17CE.a;\012sub uni17D0 by uni17D0.a;\012} lookup_1;\012";
name = lookup_1;
},
{
code = "lookup lookup_10 {\012sub uni1789 by uni1789.a;\012} lookup_10;\012";
name = lookup_10;
},
{
code = "lookup lookup_11 {\012sub uni17D2_1789 by uni17D2_1789.a;\012} lookup_11;\012";
name = lookup_11;
},
{
code = "lookup lookup_12 {\012sub uni17D2_178A by uni17D2_178A.n;\012sub uni17D2_178B by uni17D2_178B.n;\012sub uni17D2_178C by uni17D2_178C.n;\012sub uni17D2_178F by uni17D2_178A.n;\012sub uni17D2_17A0 by uni17D2_17A0.n;\012} lookup_12;\012";
name = lookup_12;
},
{
code = "lookup lookup_13 {\012sub uni17BB by uni17BB.n;\012sub uni17BC by uni17BC.n;\012sub uni17BD by uni17BD.n;\012} lookup_13;\012";
name = lookup_13;
},
{

glyphs = (
{
glyphname = A;
lastChange = "2021-03-26 14:05:54 +0000";
layers = (
{
layerId = "B1070C97-2DE4-4FC8-9990-FF316D9539D4";
paths = (
{
closed = 1;
nodes = (
"544 352 LINE",
"589 522 LINE",
"950 522 LINE",
"993 352 LINE",
"863 352 LINE",
"863 0 LINE",
"1758 0 LINE",
"1758 352 LINE",
"1601 352 LINE",
"1246 1591 LINE",
"255 1591 LINE",
"255 1239 LINE",
"464 1239 LINE",
"190 352 LINE",
"32 352 LINE",
"32 0 LINE",
"734 0 LINE",
"734 352 LINE"
);
},
{
closed = 1;
nodes = (
"640 764 LINE",
"786 1251 LINE",
"902 764 LINE"
);
}
);
width = 1759;
}
);
note = A;
unicode = 0041;
},
{
glyphname = B;
lastChange = "2021-03-26 14:05:54 +0000";
layers = (
{
layerId = "B1070C97-2DE4-4FC8-9990-FF316D9539D4";
paths = (
{
closed = 1;
nodes = (
"1348 0 OFFCURVE",
"1568 153 OFFCURVE",
"1568 424 CURVE SMOOTH",
"1568 645 OFFCURVE",
"1481 760 OFFCURVE",
"1296 840 CURVE",
"1437 892 OFFCURVE",
"1540 1015 OFFCURVE",
"1540 1174 CURVE SMOOTH",
"1540 1399 OFFCURVE",
"1424 1517 OFFCURVE",
"1241 1561 CURVE SMOOTH",
"1149 1582 OFFCURVE",
"1036 1593 OFFCURVE",
"903 1593 CURVE SMOOTH",
"90 1593 LINE",
"90 1239 LINE",
"256 1239 LINE",
"256 352 LINE",
"63 352 LINE",
"63 0 LINE",
"960 0 LINE SMOOTH"
);
},
{
closed = 1;
nodes = (
"909 1239 LINE SMOOTH",
"990 1239 OFFCURVE",
"1046 1183 OFFCURVE",
"1046 1102 CURVE SMOOTH",
"1046 985 OFFCURVE",
"975 950 OFFCURVE",
"823 950 CURVE SMOOTH",
"768 950 LINE",
"768 1239 LINE"
);
},
{
closed = 1;
nodes = (
"797 689 OFFCURVE",
"826 690 OFFCURVE",
"856 690 CURVE SMOOTH",
"989 690 OFFCURVE",
"1056 635 OFFCURVE",
"1056 526 CURVE SMOOTH",
"1056 385 OFFCURVE",
"965 352 OFFCURVE",
"804 352 CURVE SMOOTH",
"768 352 LINE",
"768 688 LINE"
);
}
);
width = 1683;
}
);
note = B;
unicode = 0042;
},
{
glyphname = C;
lastChange = "2021-03-26 14:05:54 +0000";
layers = (
{
layerId = "B1070C97-2DE4-4FC8-9990-FF316D9539D4";
paths = (
{
closed = 1;
nodes = (
"1083 -29 OFFCURVE",
"1270 5 OFFCURVE",
"1439 102 CURVE",
"1439 528 LINE",
"1417 547 LINE",
"1326 484 OFFCURVE",
"1179 418 OFFCURVE",
"1015 418 CURVE SMOOTH",
"783 418 OFFCURVE",
"641 578 OFFCURVE",
"641 846 CURVE SMOOTH",
"641 982 OFFCURVE",
"693 1121 OFFCURVE",
"779 1201 CURVE SMOOTH",
"822 1240 OFFCURVE",
"869 1260 OFFCURVE",
"921 1260 CURVE SMOOTH",
"1074 1260 OFFCURVE",
"1153 1140 OFFCURVE",
"1153 971 CURVE SMOOTH",
"1153 938 LINE",
"1472 938 LINE",
"1472 1591 LINE",
"1161 1591 LINE",
"1120 1430 LINE",
"1065 1541 OFFCURVE",
"933 1622 OFFCURVE",
"778 1622 CURVE SMOOTH",
"474 1622 OFFCURVE",
"257 1467 OFFCURVE",
"146 1220 CURVE SMOOTH",
"91 1096 OFFCURVE",
"63 958 OFFCURVE",
"63 805 CURVE SMOOTH",
"63 441 OFFCURVE",
"221 189 OFFCURVE",
"466 65 CURVE SMOOTH",
"588 2 OFFCURVE",
"723 -29 OFFCURVE",
"870 -29 CURVE SMOOTH"
);
}
);
width = 1546;
}
);
note = C;
unicode = 0043;
},
{
glyphname = D;
lastChange = "2021-03-26 14:05:54 +0000";
layers = (
{
layerId = "B1070C97-2DE4-4FC8-9990-FF316D9539D4";
paths = (
{
closed = 1;
nodes = (
"1383 0 OFFCURVE",
"1695 286 OFFCURVE",
"1695 797 CURVE SMOOTH",
"1695 1321 OFFCURVE",
"1379 1591 OFFCURVE",
"800 1591 CURVE SMOOTH",
"63 1591 LINE",
"63 1239 LINE",
"223 1239 LINE",
"223 352 LINE",
"63 352 LINE",
"63 0 LINE",
"798 0 LINE SMOOTH"
);
},
{
closed = 1;
nodes = (
"798 1239 LINE SMOOTH",
"1025 1239 OFFCURVE",
"1120 1058 OFFCURVE",
"1120 797 CURVE SMOOTH",
"1120 540 OFFCURVE",
"1022 352 OFFCURVE",
"798 352 CURVE SMOOTH",
"735 352 LINE",
"735 1239 LINE"
);
}
);
width = 1804;
}
);
note = D;
unicode = 0044;
},
{
glyphname = E;
lastChange = "2021-03-26 14:05:54 +0000";
layers = (
{
layerId = "B1070C97-2DE4-4FC8-9990-FF316D9539D4";
paths = (
{
closed = 1;
nodes = (
"1183 678 LINE",
"1087 352 LINE",
"801 352 LINE",
"801 717 LINE",
"1057 717 LINE",
"1057 979 LINE",
"801 979 LINE",
"801 1239 LINE",
"1087 1239 LINE",
"1183 958 LINE",
"1439 958 LINE",
"1439 1591 LINE",
"96 1591 LINE",
"96 1239 LINE",
"289 1239 LINE",
"289 352 LINE",
"96 352 LINE",
"96 0 LINE",
"1439 0 LINE",
"1439 678 LINE"
);
}
);
width = 1449;
}
);
note = E;
unicode = 0045;
},
{
glyphname = F;
lastChange = "2021-03-26 14:05:54 +0000";
layers = (
{
layerId = "B1070C97-2DE4-4FC8-9990-FF316D9539D4";
paths = (
{
closed = 1;
nodes = (
"801 352 LINE",
"801 682 LINE",
"1024 682 LINE",
"1024 938 LINE",
"801 938 LINE",
"801 1239 LINE",
"1057 1239 LINE",
"1120 948 LINE",
"1409 948 LINE",
"1409 1591 LINE",
"96 1591 LINE",
"96 1239 LINE",
"289 1239 LINE",
"289 352 LINE",
"96 352 LINE",
"96 0 LINE",
"991 0 LINE",
"991 352 LINE"
);
}
);
width = 1433;
}
);
note = F;
unicode = 0046;
},
{
glyphname = G;
lastChange = "2021-03-26 14:05:54 +0000";
layers = (
{
layerId = "B1070C97-2DE4-4FC8-9990-FF316D9539D4";
paths = (
{
closed = 1;
nodes = (
"1184 -29 OFFCURVE",
"1427 30 OFFCURVE",
"1632 139 CURVE",
"1632 854 LINE",
"991 854 LINE",
"991 557 LINE",
"1183 557 LINE",
"1183 416 LINE",
"1170 413 OFFCURVE",
"1124 395 OFFCURVE",
"1079 387 CURVE SMOOTH",
"1050 382 OFFCURVE",
"1022 379 OFFCURVE",
"993 379 CURVE SMOOTH",
"769 379 OFFCURVE",
"641 545 OFFCURVE",
"641 821 CURVE SMOOTH",
"641 1094 OFFCURVE",
"774 1260 OFFCURVE",
"987 1260 CURVE SMOOTH",
"1115 1260 OFFCURVE",
"1249 1172 OFFCURVE",
"1290 1004 CURVE",
"1599 1004 LINE",
"1599 1591 LINE",
"1253 1591 LINE",
"1220 1485 LINE",
"1144 1574 OFFCURVE",
"1001 1622 OFFCURVE",
"862 1622 CURVE SMOOTH",
"534 1622 OFFCURVE",
"285 1476 OFFCURVE",
"158 1233 CURVE SMOOTH",
"95 1112 OFFCURVE",
"63 974 OFFCURVE",
"63 821 CURVE SMOOTH",
"63 436 OFFCURVE",
"238 182 OFFCURVE",
"507 62 CURVE SMOOTH",
"641 1 OFFCURVE",
"789 -29 OFFCURVE",
"952 -29 CURVE SMOOTH"
);
}
);
width = 1722;
}
);
note = G;
unicode = 0047;
},
{
glyphname = H;
lastChange = "2021-03-26 14:05:54 +0000";
layers = (
{
layerId = "B1070C97-2DE4-4FC8-9990-FF316D9539D4";
paths = (
{
closed = 1;
nodes = (
"745 352 LINE",
"745 635 LINE",
"1128 635 LINE",
"1128 352 LINE",
"1001 352 LINE",
"1001 0 LINE",
"1799 0 LINE",
"1799 352 LINE",
"1640 352 LINE",
"1640 1239 LINE",
"1799 1239 LINE",
"1799 1591 LINE",
"1001 1593 LINE",
"1001 1239 LINE",
"1128 1239 LINE",
"1128 977 LINE",
"745 977 LINE",
"745 1239 LINE",
"872 1239 LINE",
"872 1593 LINE",
"73 1591 LINE",
"73 1239 LINE",
"233 1239 LINE",
"233 352 LINE",
"73 352 LINE",
"73 0 LINE",
"872 0 LINE",
"872 352 LINE"
);
}
);
width = 1873;
}
);
note = H;
unicode = 0048;
},
{
glyphname = I;
lastChange = "2021-03-26 14:05:54 +0000";
layers = (
{
layerId = "B1070C97-2DE4-4FC8-9990-FF316D9539D4";
paths = (
{
closed = 1;
nodes = (
"801 352 LINE",
"801 1239 LINE",
"960 1239 LINE",
"960 1591 LINE",
"129 1591 LINE",
"129 1239 LINE",
"289 1239 LINE",
"289 352 LINE",
"129 352 LINE",
"129 0 LINE",
"960 0 LINE",
"960 352 LINE"
);
}
);
width = 1028;
}
);
note = I;
unicode = 0049;
},
{
glyphname = J;
lastChange = "2021-03-26 14:05:54 +0000";
layers = (
{
layerId = "B1070C97-2DE4-4FC8-9990-FF316D9539D4";
paths = (
{
closed = 1;
nodes = (
"963 -31 OFFCURVE",
"1153 167 OFFCURVE",
"1153 475 CURVE SMOOTH",
"1153 1239 LINE",
"1312 1239 LINE",
"1312 1593 LINE",
"448 1593 LINE",
"448 1239 LINE",
"641 1239 LINE",
"641 571 LINE SMOOTH",
"641 454 OFFCURVE",
"580 352 OFFCURVE",
"487 352 CURVE SMOOTH",
"378 352 OFFCURVE",
"352 438 OFFCURVE",
"352 633 CURVE",
"63 633 LINE",
"63 -12 LINE",
"331 -12 LINE",
"368 98 LINE",
"431 22 OFFCURVE",
"530 -31 OFFCURVE",
"655 -31 CURVE SMOOTH"
);
}
);
width = 1368;
}
);
note = J;
unicode = 004A;
},
{
glyphname = K;
lastChange = "2021-03-26 14:05:54 +0000";
layers = (
{
layerId = "B1070C97-2DE4-4FC8-9990-FF316D9539D4";
paths = (
{
closed = 1;
nodes = (
"960 352 LINE",
"801 352 LINE",
"801 631 LINE",
"946 631 LINE SMOOTH",
"1006 631 OFFCURVE",
"1057 549 OFFCURVE",
"1057 481 CURVE SMOOTH",
"1057 307 LINE SMOOTH",
"1057 102 OFFCURVE",
"1169 0 OFFCURVE",
"1393 0 CURVE SMOOTH",
"1759 0 LINE",
"1759 352 LINE",
"1645 352 LINE SMOOTH",
"1604 352 OFFCURVE",
"1579 389 OFFCURVE",
"1579 430 CURVE SMOOTH",
"1579 592 LINE SMOOTH",
"1579 775 OFFCURVE",
"1449 840 OFFCURVE",
"1233 840 CURVE",
"1233 854 LINE",
"1550 1239 LINE",
"1688 1239 LINE",
"1688 1591 LINE",
"1065 1591 LINE",
"1065 1239 LINE",
"801 877 LINE",
"801 1239 LINE",
"928 1239 LINE",
"928 1591 LINE",
"129 1591 LINE",
"129 1239 LINE",
"289 1239 LINE",
"289 352 LINE",
"129 352 LINE",
"129 0 LINE",
"960 0 LINE"
);
}
);
width = 1814;
}
);
note = K;
unicode = 004B;
},
{
glyphname = L;
lastChange = "2021-03-26 14:05:54 +0000";
layers = (
{
layerId = "B1070C97-2DE4-4FC8-9990-FF316D9539D4";
paths = (
{
closed = 1;
nodes = (
"1153 709 LINE",
"1057 358 LINE",
"801 358 LINE",
"801 1239 LINE",
"960 1239 LINE",
"960 1591 LINE",
"129 1591 LINE",
"129 1239 LINE",
"289 1239 LINE",
"289 358 LINE",
"129 358 LINE",
"129 0 LINE",
"1407 0 LINE",
"1407 709 LINE"
);
}
);
width = 1435;
}
);
note = L;
unicode = 004C;
},
{
glyphname = M;
lastChange = "2021-03-26 14:05:54 +0000";
layers = (
{
layerId = "B1070C97-2DE4-4FC8-9990-FF316D9539D4";
paths = (
{
closed = 1;
nodes = (
"575 352 LINE",
"575 969 LINE",
"991 0 LINE",
"1280 0 LINE",
"1632 946 LINE",
"1632 352 LINE",
"1503 352 LINE",
"1503 0 LINE",
"2336 0 LINE",
"2336 352 LINE",
"2144 352 LINE",
"2144 1239 LINE",
"2336 1239 LINE",
"2336 1591 LINE",
"1536 1591 LINE",
"1230 825 LINE",
"921 1591 LINE",
"63 1591 LINE",
"63 1239 LINE",
"256 1239 LINE",
"256 352 LINE",
"63 352 LINE",
"63 0 LINE",
"735 0 LINE",
"735 352 LINE"
);
}
);
width = 2371;
}
);
note = M;
unicode = 004D;
},
{
glyphname = N;
lastChange = "2021-03-26 14:05:54 +0000";
layers = (
{
layerId = "B1070C97-2DE4-4FC8-9990-FF316D9539D4";
paths = (
{
closed = 1;
nodes = (
"558 358 LINE",
"558 879 LINE",
"1031 0 LINE",
"1637 0 LINE",
"1637 1239 LINE",
"1795 1239 LINE",
"1795 1591 LINE",
"1158 1591 LINE",
"1158 1239 LINE",
"1318 1239 LINE",
"1318 647 LINE",
"820 1593 LINE",
"85 1593 LINE",
"85 1241 LINE",
"243 1241 LINE",
"243 358 LINE",
"81 358 LINE",
"81 0 LINE",
"718 0 LINE",
"718 358 LINE"
);
}
);
width = 1851;
}
);
note = N;
unicode = 004E;
},
{
glyphname = O;
lastChange = "2021-03-26 14:05:54 +0000";
layers = (
{
layerId = "B1070C97-2DE4-4FC8-9990-FF316D9539D4";
paths = (
{
closed = 1;
nodes = (
"1197 -29 OFFCURVE",
"1445 122 OFFCURVE",
"1571 372 CURVE SMOOTH",
"1634 497 OFFCURVE",
"1665 639 OFFCURVE",
"1665 799 CURVE SMOOTH",
"1665 1130 OFFCURVE",
"1536 1385 OFFCURVE",
"1296 1521 CURVE SMOOTH",
"1176 1588 OFFCURVE",
"1032 1622 OFFCURVE",
"864 1622 CURVE SMOOTH",
"528 1622 OFFCURVE",
"282 1481 OFFCURVE",
"157 1233 CURVE SMOOTH",
"94 1109 OFFCURVE",
"63 964 OFFCURVE",
"63 799 CURVE SMOOTH",
"63 479 OFFCURVE",
"191 220 OFFCURVE",
"433 78 CURVE SMOOTH",
"554 7 OFFCURVE",
"697 -29 OFFCURVE",
"864 -29 CURVE SMOOTH"
);
},
{
closed = 1;
nodes = (
"719 326 OFFCURVE",
"641 515 OFFCURVE",
"641 807 CURVE SMOOTH",
"641 1091 OFFCURVE",
"713 1268 OFFCURVE",
"864 1268 CURVE SMOOTH",
"1013 1268 OFFCURVE",
"1087 1091 OFFCURVE",
"1087 807 CURVE SMOOTH",
"1087 515 OFFCURVE",
"1008 326 OFFCURVE",
"864 326 CURVE SMOOTH"
);
}
);
width = 1779;
}
);
note = O;
unicode = 004F;
},
{
glyphname = P;
lastChange = "2021-03-26 14:05:54 +0000";
layers = (
{
layerId = "B1070C97-2DE4-4FC8-9990-FF316D9539D4";
paths = (
{
closed = 1;
nodes = (
"941 358 LINE",
"796 358 LINE",
"796 569 LINE",
"841 562 OFFCURVE",
"890 559 OFFCURVE",
"945 559 CURVE SMOOTH",
"1388 559 OFFCURVE",
"1609 725 OFFCURVE",
"1609 1133 CURVE SMOOTH",
"1609 1482 OFFCURVE",
"1328 1593 OFFCURVE",
"937 1593 CURVE SMOOTH",
"85 1593 LINE",
"85 1239 LINE",
"237 1239 LINE",
"237 358 LINE",
"81 358 LINE",
"81 0 LINE",
"941 0 LINE"
);
},
{
closed = 1;
nodes = (
"882 1239 LINE SMOOTH",
"994 1239 OFFCURVE",
"1066 1184 OFFCURVE",
"1066 1085 CURVE SMOOTH",
"1066 952 OFFCURVE",
"990 885 OFFCURVE",
"839 885 CURVE SMOOTH",
"798 885 LINE",
"798 1239 LINE"
);
}
);
width = 1681;
}
);
note = P;
unicode = 0050;
},
{
glyphname = Q;
lastChange = "2021-03-26 14:05:54 +0000";
layers = (
{
layerId = "B1070C97-2DE4-4FC8-9990-FF316D9539D4";
paths = (
{
closed = 1;
nodes = (
"967 -29 OFFCURVE",
"1045 -19 OFFCURVE",
"1122 0 CURVE",
"1759 0 LINE",
"1759 360 LINE",
"1597 360 LINE",
"1593 358 LINE",
"1669 488 OFFCURVE",
"1707 635 OFFCURVE",
"1707 799 CURVE SMOOTH",
"1707 1126 OFFCURVE",
"1569 1383 OFFCURVE",
"1323 1520 CURVE SMOOTH",
"1200 1588 OFFCURVE",
"1055 1622 OFFCURVE",
"888 1622 CURVE SMOOTH",
"555 1622 OFFCURVE",
"302 1479 OFFCURVE",
"168 1231 CURVE SMOOTH",
"101 1106 OFFCURVE",
"67 962 OFFCURVE",
"67 799 CURVE SMOOTH",
"67 484 OFFCURVE",
"216 222 OFFCURVE",
"465 79 CURVE SMOOTH",
"589 7 OFFCURVE",
"730 -29 OFFCURVE",
"888 -29 CURVE SMOOTH"
);
},
{
closed = 1;
nodes = (
"747 317 OFFCURVE",
"667 539 OFFCURVE",
"667 807 CURVE SMOOTH",
"667 1060 OFFCURVE",
"741 1260 OFFCURVE",
"888 1260 CURVE SMOOTH",
"1033 1260 OFFCURVE",
"1107 1060 OFFCURVE",
"1107 807 CURVE SMOOTH",
"1107 539 OFFCURVE",
"1028 317 OFFCURVE",
"888 317 CURVE SMOOTH"
);
}
);
width = 1835;
}
);
note = Q;
unicode = 0051;
},
{
glyphname = R;
lastChange = "2021-03-26 14:05:54 +0000";
layers = (
{
layerId = "B1070C97-2DE4-4FC8-9990-FF316D9539D4";
paths = (
{
closed = 1;
nodes = (
"960 352 LINE",
"801 352 LINE",
"801 682 LINE",
"922 682 LINE SMOOTH",
"1063 682 OFFCURVE",
"1108 604 OFFCURVE",
"1108 440 CURVE SMOOTH",
"1108 297 OFFCURVE",
"1120 194 OFFCURVE",
"1144 133 CURVE SMOOTH",
"1192 10 OFFCURVE",
"1263 0 OFFCURVE",
"1470 0 CURVE SMOOTH",
"1792 0 LINE",
"1792 358 LINE",
"1569 358 LINE",
"1569 487 LINE SMOOTH",
"1569 656 OFFCURVE",
"1490 776 OFFCURVE",
"1298 807 CURVE",
"1511 846 OFFCURVE",
"1632 952 OFFCURVE",
"1632 1159 CURVE SMOOTH",
"1632 1468 OFFCURVE",
"1482 1591 OFFCURVE",
"1151 1591 CURVE SMOOTH",
"129 1591 LINE",
"129 1239 LINE",
"289 1239 LINE",
"289 352 LINE",
"129 352 LINE",
"129 0 LINE",
"960 0 LINE"
);
},
{
closed = 1;
nodes = (
"958 1239 LINE SMOOTH",
"1073 1239 OFFCURVE",
"1153 1181 OFFCURVE",
"1153 1085 CURVE SMOOTH",
"1153 954 OFFCURVE",
"1083 909 OFFCURVE",
"938 909 CURVE SMOOTH",
"801 909 LINE",
"801 1239 LINE"
);
}
);
width = 1779;
}
);
note = R;
unicode = 0052;
},
{
glyphname = S;
lastChange = "2021-03-26 14:05:54 +0000";
layers = (
{
layerId = "B1070C97-2DE4-4FC8-9990-FF316D9539D4";
paths = (
{
closed = 1;
nodes = (
"1024 -29 OFFCURVE",
"1184 71 OFFCURVE",
"1268 232 CURVE SMOOTH",
"1309 312 OFFCURVE",
"1330 402 OFFCURVE",
"1330 502 CURVE SMOOTH",
"1330 737 OFFCURVE",
"1222 881 OFFCURVE",
"1057 962 CURVE SMOOTH",
"974 1002 OFFCURVE",
"874 1036 OFFCURVE",
"755 1063 CURVE SMOOTH",
"688 1078 OFFCURVE",
"637 1094 OFFCURVE",
"601 1111 CURVE SMOOTH",
"564 1128 OFFCURVE",
"546 1153 OFFCURVE",
"546 1184 CURVE SMOOTH",
"546 1241 OFFCURVE",
"599 1276 OFFCURVE",
"691 1276 CURVE SMOOTH",
"812 1276 OFFCURVE",
"872 1236 OFFCURVE",
"929 1116 CURVE",
"1236 1116 LINE",
"1236 1593 LINE",
"949 1593 LINE",
"898 1499 LINE",
"823 1581 OFFCURVE",
"722 1622 OFFCURVE",
"593 1622 CURVE SMOOTH",
"382 1622 OFFCURVE",
"223 1536 OFFCURVE",
"140 1389 CURVE SMOOTH",
"98 1315 OFFCURVE",
"77 1230 OFFCURVE",
"77 1133 CURVE SMOOTH",
"77 881 OFFCURVE",
"188 736 OFFCURVE",
"353 654 CURVE SMOOTH",
"435 613 OFFCURVE",
"540 574 OFFCURVE",
"669 539 CURVE SMOOTH",
"770 511 OFFCURVE",
"829 485 OFFCURVE",
"829 420 CURVE SMOOTH",
"829 368 OFFCURVE",
"766 334 OFFCURVE",
"689 334 CURVE SMOOTH",
"564 334 OFFCURVE",
"476 375 OFFCURVE",
"435 487 CURVE",
"114 487 LINE",
"114 0 LINE",
"437 0 LINE",
"472 92 LINE",
"584 5 OFFCURVE",
"661 -29 OFFCURVE",
"825 -29 CURVE SMOOTH"
);
}
);
width = 1406;
}
);
note = S;
unicode = 0053;
},
{
glyphname = T;
lastChange = "2021-03-26 14:05:54 +0000";
layers = (
{
layerId = "B1070C97-2DE4-4FC8-9990-FF316D9539D4";
paths = (
{
closed = 1;
nodes = (
"1091 360 LINE",
"1091 1239 LINE",
"1237 1239 LINE",
"1280 965 LINE",
"1560 965 LINE",
"1560 1591 LINE",
"63 1591 LINE",
"63 965 LINE",
"344 965 LINE",
"387 1239 LINE",
"528 1239 LINE",
"528 360 LINE",
"364 360 LINE",
"364 0 LINE",
"1255 0 LINE",
"1255 360 LINE"
);
}
);
width = 1636;
}
);
note = T;
unicode = 0054;
},
{
glyphname = U;
lastChange = "2021-03-26 14:05:54 +0000";
layers = (
{
layerId = "B1070C97-2DE4-4FC8-9990-FF316D9539D4";
paths = (
{
closed = 1;
nodes = (
"1238 -29 OFFCURVE",
"1482 168 OFFCURVE",
"1482 551 CURVE SMOOTH",
"1482 1239 LINE",
"1635 1239 LINE",
"1635 1591 LINE",
"982 1591 LINE",
"982 1239 LINE",
"1146 1239 LINE",
"1146 537 LINE SMOOTH",
"1146 420 OFFCURVE",
"1075 346 OFFCURVE",
"960 346 CURVE SMOOTH",
"823 346 OFFCURVE",
"761 438 OFFCURVE",
"761 569 CURVE SMOOTH",
"761 1239 LINE",
"908 1239 LINE",
"908 1591 LINE",
"40 1591 LINE",
"40 1239 LINE",
"202 1239 LINE",
"202 705 LINE SMOOTH",
"202 224 OFFCURVE",
"396 -29 OFFCURVE",
"871 -29 CURVE SMOOTH"
);
}
);
width = 1691;
}
);
note = U;
unicode = 0055;
},
{
glyphname = V;
lastChange = "2021-03-26 14:05:54 +0000";
layers = (
{
layerId = "B1070C97-2DE4-4FC8-9990-FF316D9539D4";
paths = (
{
closed = 1;
nodes = (
"1728 1239 LINE",
"1728 1591 LINE",
"1033 1591 LINE",
"1033 1239 LINE",
"1164 1239 LINE",
"988 516 LINE",
"788 1239 LINE",
"902 1239 LINE",
"902 1591 LINE",
"38 1591 LINE",
"38 1239 LINE",
"204 1239 LINE",
"564 0 LINE",
"1150 0 LINE",
"1547 1239 LINE"
);
}
);
width = 1777;
}
);
note = V;
unicode = 0056;
},
{
glyphname = W;
lastChange = "2021-03-26 14:05:54 +0000";
layers = (
{
layerId = "B1070C97-2DE4-4FC8-9990-FF316D9539D4";
paths = (
{
closed = 1;
nodes = (
"1482 0 LINE",
"2025 0 LINE",
"2367 1239 LINE",
"2535 1239 LINE",
"2535 1593 LINE",
"1875 1593 LINE",
"1875 1239 LINE",
"2014 1239 LINE",
"1859 702 LINE",
"1607 1593 LINE",
"1197 1593 LINE",
"937 672 LINE",
"777 1239 LINE",
"929 1239 LINE",
"929 1593 LINE",
"38 1593 LINE",
"38 1239 LINE",
"202 1239 LINE",
"550 0 LINE",
"1087 0 LINE",
"1289 707 LINE"
);
}
);
width = 2584;
}
);
note = W;
unicode = 0057;
},
{
glyphname = X;
lastChange = "2021-03-26 14:05:54 +0000";
layers = (
{
layerId = "B1070C97-2DE4-4FC8-9990-FF316D9539D4";
paths = (
{
closed = 1;
nodes = (
"675 358 LINE",
"882 614 LINE",
"1124 358 LINE",
"999 358 LINE",
"999 0 LINE",
"1926 0 LINE",
"1926 358 LINE",
"1775 358 LINE",
"1347 809 LINE",
"1679 1239 LINE",
"1877 1239 LINE",
"1877 1593 LINE",
"1130 1593 LINE",
"1130 1239 LINE",
"1273 1239 LINE",
"1126 1044 LINE",
"964 1239 LINE",
"1046 1239 LINE",
"1046 1593 LINE",
"128 1593 LINE",
"128 1239 LINE",
"298 1239 LINE",
"669 842 LINE",
"235 358 LINE",
"77 358 LINE",
"77 0 LINE",
"898 0 LINE",
"898 358 LINE"
);
}
);
width = 2002;
}
);
note = X;
unicode = 0058;
},
{
glyphname = Y;
lastChange = "2021-03-26 14:05:54 +0000";
layers = (
{
layerId = "B1070C97-2DE4-4FC8-9990-FF316D9539D4";
paths = (
{
closed = 1;
nodes = (
"1128 358 LINE",
"1128 705 LINE",
"1437 1239 LINE",
"1617 1239 LINE",
"1617 1591 LINE",
"980 1591 LINE",
"980 1239 LINE",
"1125 1239 LINE",
"982 973 LINE",
"800 1239 LINE",
"890 1239 LINE",
"890 1591 LINE",
"38 1591 LINE",
"38 1239 LINE",
"151 1239 LINE",
"570 651 LINE",
"570 358 LINE",
"417 358 LINE",
"417 0 LINE",
"1285 0 LINE",
"1285 358 LINE"
);
}
);
width = 1665;
}
);
note = Y;
unicode = 0059;
},
{
glyphname = Z;
lastChange = "2021-03-26 14:05:54 +0000";
layers = (
{
layerId = "B1070C97-2DE4-4FC8-9990-FF316D9539D4";
paths = (
{
closed = 1;
nodes = (
"1223 694 LINE",
"1114 358 LINE",
"807 358 LINE",
"1483 1264 LINE",
"1483 1591 LINE",
"88 1591 LINE",
"88 928 LINE",
"377 928 LINE",
"457 1239 LINE",
"772 1239 LINE",
"94 350 LINE",
"94 0 LINE",
"1503 0 LINE",
"1503 694 LINE"
);
}
);
width = 1587;
}
);
note = Z;
unicode = 005A;
},
{
glyphname = a;
lastChange = "2021-03-26 14:05:54 +0000";
layers = (
{
layerId = "B1070C97-2DE4-4FC8-9990-FF316D9539D4";
paths = (
{
closed = 1;
nodes = (
"574 -18 OFFCURVE",
"710 52 OFFCURVE",
"767 164 CURVE",
"812 0 LINE",
"1324 0 LINE",
"1324 301 LINE",
"1230 301 LINE",
"1230 750 LINE SMOOTH",
"1230 978 OFFCURVE",
"1027 1092 OFFCURVE",
"622 1092 CURVE SMOOTH",
"477 1092 OFFCURVE",
"301 1069 OFFCURVE",
"140 1012 CURVE",
"140 721 LINE",
"169 709 LINE",
"254 761 OFFCURVE",
"400 801 OFFCURVE",
"499 801 CURVE SMOOTH",
"652 801 OFFCURVE",
"749 744 OFFCURVE",
"749 637 CURVE SMOOTH",
"749 592 LINE",
"668 618 OFFCURVE",
"584 631 OFFCURVE",
"497 631 CURVE SMOOTH",
"349 631 OFFCURVE",
"214 583 OFFCURVE",
"136 487 CURVE SMOOTH",
"97 438 OFFCURVE",
"77 378 OFFCURVE",
"77 307 CURVE SMOOTH",
"77 176 OFFCURVE",
"149 74 OFFCURVE",
"261 22 CURVE SMOOTH",
"317 -5 OFFCURVE",
"379 -18 OFFCURVE",
"446 -18 CURVE SMOOTH"
);
},
{
closed = 1;
nodes = (
"569 238 OFFCURVE",
"526 285 OFFCURVE",
"526 340 CURVE SMOOTH",
"526 413 OFFCURVE",
"571 461 OFFCURVE",
"642 461 CURVE SMOOTH",
"659 461 OFFCURVE",
"678 458 OFFCURVE",
"701 452 CURVE SMOOTH",
"723 445 OFFCURVE",
"739 441 OFFCURVE",
"749 440 CURVE",
"749 272 LINE",
"732 256 OFFCURVE",
"678 238 OFFCURVE",
"634 238 CURVE SMOOTH"
);
}
);
width = 1396;
}
);
note = a;
unicode = 0061;
},
{
glyphname = b;
lastChange = "2021-03-26 14:05:54 +0000";
layers = (
{
layerId = "B1070C97-2DE4-4FC8-9990-FF316D9539D4";
paths = (
{
closed = 1;
nodes = (
"1163 -18 OFFCURVE",
"1306 85 OFFCURVE",
"1375 253 CURVE SMOOTH",
"1410 337 OFFCURVE",
"1427 432 OFFCURVE",
"1427 539 CURVE SMOOTH",
"1427 743 OFFCURVE",
"1361 919 OFFCURVE",
"1226 1018 CURVE SMOOTH",
"1158 1067 OFFCURVE",
"1076 1092 OFFCURVE",
"981 1092 CURVE SMOOTH",
"880 1092 OFFCURVE",
"763 1049 OFFCURVE",
"659 965 CURVE",
"659 1561 LINE",
"51 1495 LINE",
"51 1223 LINE",
"180 1223 LINE",
"180 0 LINE",
"629 0 LINE",
"667 115 LINE",
"736 40 OFFCURVE",
"837 -18 OFFCURVE",
"960 -18 CURVE SMOOTH"
);
},
{
closed = 1;
nodes = (
"758 274 OFFCURVE",
"690 299 OFFCURVE",
"659 324 CURVE",
"659 733 LINE",
"684 766 OFFCURVE",
"752 799 OFFCURVE",
"815 799 CURVE SMOOTH",
"927 799 OFFCURVE",
"981 666 OFFCURVE",
"981 510 CURVE SMOOTH",
"981 385 OFFCURVE",
"911 274 OFFCURVE",
"815 274 CURVE SMOOTH"
);
}
);
width = 1499;
}
);
note = b;
unicode = 0062;
},
{
glyphname = c;
lastChange = "2021-03-26 14:05:54 +0000";
layers = (
{
layerId = "B1070C97-2DE4-4FC8-9990-FF316D9539D4";
paths = (
{
closed = 1;
nodes = (
"838 -18 OFFCURVE",
"977 23 OFFCURVE",
"1059 64 CURVE SMOOTH",
"1100 84 OFFCURVE",
"1120 95 OFFCURVE",
"1120 98 CURVE SMOOTH",
"1120 377 LINE",
"1105 387 LINE",
"1018 314 OFFCURVE",
"896 281 OFFCURVE",
"800 281 CURVE SMOOTH",
"667 281 OFFCURVE",
"544 345 OFFCURVE",
"544 545 CURVE SMOOTH",
"544 738 OFFCURVE",
"605 799 OFFCURVE",
"720 799 CURVE SMOOTH",
"797 799 OFFCURVE",
"853 736 OFFCURVE",
"864 629 CURVE",
"1153 629 LINE",
"1153 1071 LINE",
"935 1071 LINE",
"894 965 LINE",
"859 1049 OFFCURVE",
"698 1092 OFFCURVE",
"581 1092 CURVE SMOOTH",
"373 1092 OFFCURVE",
"211 991 OFFCURVE",
"127 826 CURVE SMOOTH",
"84 743 OFFCURVE",
"63 650 OFFCURVE",
"63 547 CURVE SMOOTH",
"63 318 OFFCURVE",
"169 144 OFFCURVE",
"352 52 CURVE SMOOTH",
"443 5 OFFCURVE",
"550 -18 OFFCURVE",
"671 -18 CURVE SMOOTH"
);
}
);
width = 1249;
}
);
note = c;
unicode = 0063;
},
{
glyphname = d;
lastChange = "2021-03-26 14:05:54 +0000";
layers = (
{
layerId = "B1070C97-2DE4-4FC8-9990-FF316D9539D4";
paths = (
{
closed = 1;
nodes = (
"661 -15 OFFCURVE",
"766 41 OFFCURVE",
"831 129 CURVE",
"831 0 LINE",
"1447 0 LINE",
"1447 301 LINE",
"1320 301 LINE",
"1320 1561 LINE",
"679 1495 LINE",
"679 1223 LINE",
"839 1223 LINE",
"839 961 LINE",
"755 1048 OFFCURVE",
"664 1092 OFFCURVE",
"528 1092 CURVE SMOOTH",
"341 1092 OFFCURVE",
"201 983 OFFCURVE",
"127 818 CURVE SMOOTH",
"90 735 OFFCURVE",
"71 646 OFFCURVE",
"71 551 CURVE SMOOTH",
"71 343 OFFCURVE",
"145 161 OFFCURVE",
"285 59 CURVE SMOOTH",
"355 8 OFFCURVE",
"439 -18 OFFCURVE",
"536 -18 CURVE SMOOTH"
);
},
{
closed = 1;
nodes = (
"581 274 OFFCURVE",
"520 387 OFFCURVE",
"520 551 CURVE SMOOTH",
"520 712 OFFCURVE",
"592 799 OFFCURVE",
"696 799 CURVE SMOOTH",
"753 799 OFFCURVE",
"808 765 OFFCURVE",
"839 729 CURVE",
"839 350 LINE",
"812 309 OFFCURVE",
"759 274 OFFCURVE",
"696 274 CURVE SMOOTH"
);
}
);
width = 1513;
}
);
note = d;
unicode = 0064;
},
{
glyphname = e;
lastChange = "2021-03-26 14:05:54 +0000";
layers = (
{
layerId = "B1070C97-2DE4-4FC8-9990-FF316D9539D4";
paths = (
{
closed = 1;
nodes = (
"887 -18 OFFCURVE",
"1016 21 OFFCURVE",
"1153 100 CURVE",
"1153 369 LINE",
"1136 375 LINE",
"1013 300 OFFCURVE",
"887 266 OFFCURVE",
"786 266 CURVE SMOOTH",
"653 266 OFFCURVE",
"544 348 OFFCURVE",
"544 473 CURVE",
"1167 473 LINE",
"1178 506 OFFCURVE",
"1183 540 OFFCURVE",
"1183 575 CURVE SMOOTH",
"1183 783 OFFCURVE",
"1089 944 OFFCURVE",
"925 1029 CURVE SMOOTH",
"843 1071 OFFCURVE",
"748 1092 OFFCURVE",
"641 1092 CURVE SMOOTH",
"408 1092 OFFCURVE",
"230 999 OFFCURVE",
"135 835 CURVE SMOOTH",
"87 752 OFFCURVE",
"63 655 OFFCURVE",
"63 543 CURVE SMOOTH",
"63 316 OFFCURVE",
"164 142 OFFCURVE",
"348 51 CURVE SMOOTH",
"439 5 OFFCURVE",
"547 -18 OFFCURVE",
"671 -18 CURVE SMOOTH"
);
},
{
closed = 1;
nodes = (
"544 759 OFFCURVE",
"600 844 OFFCURVE",
"671 844 CURVE SMOOTH",
"756 844 OFFCURVE",
"800 765 OFFCURVE",
"800 670 CURVE SMOOTH",
"800 649 LINE",
"544 649 LINE",
"544 678 LINE SMOOTH"
);
}
);
width = 1275;
}
);
note = e;
unicode = 0065;
},
{
glyphname = f;
lastChange = "2021-03-26 14:05:54 +0000";
layers = (
{
layerId = "B1070C97-2DE4-4FC8-9990-FF316D9539D4";
paths = (
{
closed = 1;
nodes = (
"912 301 LINE",
"720 301 LINE",
"720 778 LINE",
"912 778 LINE",
"912 1071 LINE",
"720 1071 LINE",
"720 1108 LINE SMOOTH",
"720 1197 OFFCURVE",
"749 1241 OFFCURVE",
"808 1241 CURVE SMOOTH",
"827 1241 OFFCURVE",
"862 1237 OFFCURVE",
"912 1229 CURVE",
"912 1524 LINE",
"836 1548 OFFCURVE",
"701 1571 OFFCURVE",
"597 1571 CURVE SMOOTH",
"360 1571 OFFCURVE",
"241 1436 OFFCURVE",
"241 1167 CURVE SMOOTH",
"241 1071 LINE",
"81 1071 LINE",
"81 778 LINE",
"241 778 LINE",
"241 301 LINE",
"81 301 LINE",
"81 0 LINE",
"912 0 LINE"
);
}
);
width = 1003;
}
);
note = f;
unicode = 0066;
},
{
glyphname = g;
lastChange = "2021-03-26 14:05:54 +0000";
layers = (
{
layerId = "B1070C97-2DE4-4FC8-9990-FF316D9539D4";
paths = (
{
closed = 1;
nodes = (
"1059 -389 OFFCURVE",
"1322 -212 OFFCURVE",
"1322 135 CURVE SMOOTH",
"1322 762 LINE",
"1418 762 LINE",
"1418 1071 LINE",
"909 1071 LINE",
"837 922 LINE",
"758 1035 OFFCURVE",
"652 1092 OFFCURVE",
"521 1092 CURVE SMOOTH",
"330 1092 OFFCURVE",
"194 986 OFFCURVE",
"126 819 CURVE SMOOTH",
"92 736 OFFCURVE",
"75 643 OFFCURVE",
"75 541 CURVE SMOOTH",
"75 341 OFFCURVE",
"142 169 OFFCURVE",
"276 73 CURVE SMOOTH",
"343 24 OFFCURVE",
"424 0 OFFCURVE",
"521 0 CURVE SMOOTH",
"656 0 OFFCURVE",
"764 52 OFFCURVE",
"837 117 CURVE",
"837 -43 OFFCURVE",
"756 -123 OFFCURVE",
"595 -123 CURVE SMOOTH",
"483 -123 OFFCURVE",
"381 -94 OFFCURVE",
"204 -39 CURVE",
"204 -328 LINE",
"363 -369 OFFCURVE",
"513 -389 OFFCURVE",
"655 -389 CURVE SMOOTH"
);
},
{
closed = 1;
nodes = (
"590 274 OFFCURVE",
"521 379 OFFCURVE",
"521 535 CURVE SMOOTH",
"521 698 OFFCURVE",
"593 799 OFFCURVE",
"702 799 CURVE SMOOTH",
"767 799 OFFCURVE",
"819 772 OFFCURVE",
"843 725 CURVE",
"843 360 LINE",
"832 323 OFFCURVE",
"773 274 OFFCURVE",
"710 274 CURVE SMOOTH"
);
}
);
width = 1490;
}
);
note = g;
unicode = 0067;
},
{
glyphname = h;
lastChange = "2021-03-26 14:05:54 +0000";
layers = (
{
layerId = "B1070C97-2DE4-4FC8-9990-FF316D9539D4";
paths = (
{
closed = 1;
nodes = (
"801 301 LINE",
"704 301 LINE",
"704 662 LINE SMOOTH",
"704 741 OFFCURVE",
"745 791 OFFCURVE",
"813 791 CURVE SMOOTH",
"873 791 OFFCURVE",
"927 733 OFFCURVE",
"927 653 CURVE SMOOTH",
"927 0 LINE",
"1536 0 LINE",
"1536 301 LINE",
"1409 301 LINE",
"1409 702 LINE SMOOTH",
"1409 949 OFFCURVE",
"1289 1092 OFFCURVE",
"1057 1092 CURVE SMOOTH",
"898 1092 OFFCURVE",
"756 1011 OFFCURVE",
"704 915 CURVE",
"704 1561 LINE",
"96 1495 LINE",
"96 1223 LINE",
"223 1223 LINE",
"223 301 LINE",
"96 301 LINE",
"96 0 LINE",
"801 0 LINE"
);
}
);
width = 1552;
}
);
note = h;
unicode = 0068;
},
{
glyphname = i;
lastChange = "2021-03-26 14:05:54 +0000";
layers = (
{
layerId = "B1070C97-2DE4-4FC8-9990-FF316D9539D4";
paths = (
{
closed = 1;
nodes = (
"622 1176 OFFCURVE",
"743 1257 OFFCURVE",
"743 1405 CURVE SMOOTH",
"743 1556 OFFCURVE",
"626 1630 OFFCURVE",
"457 1630 CURVE SMOOTH",
"288 1630 OFFCURVE",
"168 1553 OFFCURVE",
"168 1405 CURVE SMOOTH",
"168 1257 OFFCURVE",
"288 1176 OFFCURVE",
"455 1176 CURVE SMOOTH"
);
},
{
closed = 1;
nodes = (
"694 301 LINE",
"694 1071 LINE",
"86 1008 LINE",
"86 762 LINE",
"215 762 LINE",
"215 301 LINE",
"86 301 LINE",
"86 0 LINE",
"823 0 LINE",
"823 301 LINE"
);
}
);
width = 888;
}
);
note = i;
unicode = 0069;
},
{
glyphname = j;
lastChange = "2021-03-26 14:05:54 +0000";
layers = (
{
layerId = "B1070C97-2DE4-4FC8-9990-FF316D9539D4";
paths = (
{
closed = 1;
nodes = (
"588 1176 OFFCURVE",
"708 1254 OFFCURVE",
"708 1405 CURVE SMOOTH",
"708 1556 OFFCURVE",
"593 1630 OFFCURVE",
"421 1630 CURVE SMOOTH",
"252 1630 OFFCURVE",
"132 1553 OFFCURVE",
"132 1405 CURVE SMOOTH",
"132 1257 OFFCURVE",
"254 1176 OFFCURVE",
"421 1176 CURVE SMOOTH"
);
},
{
closed = 1;
nodes = (
"366 -397 OFFCURVE",
"544 -357 OFFCURVE",
"638 -218 CURVE SMOOTH",
"685 -148 OFFCURVE",
"708 -48 OFFCURVE",
"708 82 CURVE SMOOTH",
"708 1071 LINE",
"69 1008 LINE",
"69 762 LINE",
"229 762 LINE",
"229 0 LINE SMOOTH",
"229 -61 OFFCURVE",
"186 -92 OFFCURVE",
"100 -92 CURVE SMOOTH",
"69 -92 LINE",
"69 -397 LINE"
);
}
);
width = 800;
}
);
note = j;
unicode = 006A;
},
{
glyphname = k;
lastChange = "2021-03-26 14:05:54 +0000";
layers = (
{
layerId = "B1070C97-2DE4-4FC8-9990-FF316D9539D4";
paths = (
{
closed = 1;
nodes = (
"1442 762 LINE",
"1442 1071 LINE",
"803 1071 LINE",
"803 762 LINE",
"913 762 LINE",
"704 588 LINE",
"704 1561 LINE",
"49 1495 LINE",
"49 1223 LINE",
"225 1223 LINE",
"225 301 LINE",
"49 301 LINE",
"49 0 LINE",
"704 0 LINE",
"704 438 LINE",
"997 0 LINE",
"1474 0 LINE",
"1474 301 LINE",
"1317 301 LINE",
"1110 618 LINE",
"1282 762 LINE"
);
}
);
width = 1509;
}
);
note = k;
unicode = 006B;
},
{
glyphname = l;
lastChange = "2021-03-26 14:05:54 +0000";
layers = (
{
layerId = "B1070C97-2DE4-4FC8-9990-FF316D9539D4";
paths = (
{
closed = 1;
nodes = (
"747 301 LINE",
"747 1561 LINE",
"92 1495 LINE",
"92 1223 LINE",
"268 1223 LINE",
"268 301 LINE",
"92 301 LINE",
"92 0 LINE",
"901 0 LINE",
"901 301 LINE"
);
}
);
width = 978;
}
);
note = l;
unicode = 006C;
},
{
glyphname = m;
lastChange = "2021-03-26 14:05:54 +0000";
layers = (
{
layerId = "B1070C97-2DE4-4FC8-9990-FF316D9539D4";
paths = (
{
closed = 1;
nodes = (
"2099 955 OFFCURVE",
"1989 1092 OFFCURVE",
"1769 1092 CURVE SMOOTH",
"1605 1092 OFFCURVE",
"1479 1039 OFFCURVE",
"1380 899 CURVE",
"1333 1028 OFFCURVE",
"1234 1092 OFFCURVE",
"1083 1092 CURVE SMOOTH",
"935 1092 OFFCURVE",
"819 1051 OFFCURVE",
"727 942 CURVE",
"727 1092 LINE",
"104 1032 LINE",
"104 762 LINE",
"249 762 LINE",
"249 289 LINE",
"104 289 LINE",
"104 0 LINE",
"729 0 LINE",
"729 289 LINE",
"727 289 LINE",
"727 508 LINE SMOOTH",
"727 599 OFFCURVE",
"734 669 OFFCURVE",
"747 718 CURVE SMOOTH",
"760 767 OFFCURVE",
"790 791 OFFCURVE",
"839 791 CURVE SMOOTH",
"891 791 OFFCURVE",
"933 739 OFFCURVE",
"933 682 CURVE SMOOTH",
"933 0 LINE",
"1413 0 LINE",
"1413 508 LINE SMOOTH",
"1413 599 OFFCURVE",
"1420 669 OFFCURVE",
"1433 718 CURVE SMOOTH",
"1446 767 OFFCURVE",
"1476 791 OFFCURVE",
"1525 791 CURVE SMOOTH",
"1577 791 OFFCURVE",
"1620 739 OFFCURVE",
"1620 682 CURVE SMOOTH",
"1620 0 LINE",
"2238 0 LINE",
"2238 289 LINE",
"2099 289 LINE",
"2099 680 LINE SMOOTH"
);
}
);
width = 2263;
}
);
note = m;
unicode = 006D;
},
{
glyphname = n;
lastChange = "2021-03-26 14:05:54 +0000";
layers = (
{
layerId = "B1070C97-2DE4-4FC8-9990-FF316D9539D4";
paths = (
{
closed = 1;
nodes = (
"1413 955 OFFCURVE",
"1303 1092 OFFCURVE",
"1083 1092 CURVE SMOOTH",
"935 1092 OFFCURVE",
"819 1051 OFFCURVE",
"727 942 CURVE",
"727 1092 LINE",
"104 1032 LINE",
"104 762 LINE",
"249 762 LINE",
"249 289 LINE",
"104 289 LINE",
"104 0 LINE",
"729 0 LINE",
"729 289 LINE",
"727 289 LINE",
"727 508 LINE SMOOTH",
"727 599 OFFCURVE",
"734 669 OFFCURVE",
"747 718 CURVE SMOOTH",
"760 767 OFFCURVE",
"790 791 OFFCURVE",
"839 791 CURVE SMOOTH",
"891 791 OFFCURVE",
"933 739 OFFCURVE",
"933 682 CURVE SMOOTH",
"933 0 LINE",
"1552 0 LINE",
"1552 289 LINE",
"1413 289 LINE",
"1413 680 LINE SMOOTH"
);
}
);
width = 1579;
}
);
note = n;
unicode = 006E;
},
{
glyphname = o;
lastChange = "2021-03-26 14:05:54 +0000";
layers = (
{
layerId = "B1070C97-2DE4-4FC8-9990-FF316D9539D4";
paths = (
{
closed = 1;
nodes = (
"924 -18 OFFCURVE",
"1113 72 OFFCURVE",
"1214 243 CURVE SMOOTH",
"1264 328 OFFCURVE",
"1289 430 OFFCURVE",
"1289 547 CURVE SMOOTH",
"1289 894 OFFCURVE",
"1050 1092 OFFCURVE",
"681 1092 CURVE SMOOTH",
"441 1092 OFFCURVE",
"252 1008 OFFCURVE",
"151 844 CURVE SMOOTH",
"100 762 OFFCURVE",
"75 663 OFFCURVE",
"75 547 CURVE SMOOTH",
"75 312 OFFCURVE",
"181 137 OFFCURVE",
"364 49 CURVE SMOOTH",
"455 4 OFFCURVE",
"561 -18 OFFCURVE",
"681 -18 CURVE SMOOTH"
);
},
{
closed = 1;
nodes = (
"639 274 OFFCURVE",
"607 296 OFFCURVE",
"586 339 CURVE SMOOTH",
"565 382 OFFCURVE",
"554 451 OFFCURVE",
"554 547 CURVE SMOOTH",
"554 724 OFFCURVE",
"594 799 OFFCURVE",
"681 799 CURVE SMOOTH",
"772 799 OFFCURVE",
"810 724 OFFCURVE",
"810 547 CURVE SMOOTH",
"810 451 OFFCURVE",
"800 382 OFFCURVE",
"779 339 CURVE SMOOTH",
"758 296 OFFCURVE",
"725 274 OFFCURVE",
"681 274 CURVE SMOOTH"
);
}
);
width = 1366;
}
);
note = o;
unicode = 006F;
},
{
glyphname = p;
lastChange = "2021-03-26 14:05:54 +0000";
layers = (
{
layerId = "B1070C97-2DE4-4FC8-9990-FF316D9539D4";
paths = (
{
closed = 1;
nodes = (
"800 -96 LINE",
"671 -96 LINE",
"671 119 LINE",
"743 42 OFFCURVE",
"856 -18 OFFCURVE",
"991 -18 CURVE SMOOTH",
"1184 -18 OFFCURVE",
"1322 91 OFFCURVE",
"1389 260 CURVE SMOOTH",
"1422 345 OFFCURVE",
"1439 438 OFFCURVE",
"1439 541 CURVE SMOOTH",
"1439 745 OFFCURVE",
"1371 919 OFFCURVE",
"1237 1018 CURVE SMOOTH",
"1170 1067 OFFCURVE",
"1088 1092 OFFCURVE",
"993 1092 CURVE SMOOTH",
"848 1092 OFFCURVE",
"739 1017 OFFCURVE",
"671 922 CURVE",
"671 1092 LINE",
"63 1030 LINE",
"63 762 LINE",
"192 762 LINE",
"192 -94 LINE",
"63 -94 LINE",
"63 -397 LINE",
"800 -397 LINE"
);
},
{
closed = 1;
nodes = (
"749 274 OFFCURVE",
"701 303 OFFCURVE",
"671 360 CURVE",
"671 707 LINE",
"694 762 OFFCURVE",
"753 799 OFFCURVE",
"821 799 CURVE SMOOTH",
"922 799 OFFCURVE",
"991 695 OFFCURVE",
"991 535 CURVE SMOOTH",
"991 379 OFFCURVE",
"935 274 OFFCURVE",
"815 274 CURVE SMOOTH"
);
}
);
width = 1511;
}
);
note = p;
unicode = 0070;
},
{
glyphname = q;
lastChange = "2021-03-26 14:05:54 +0000";
layers = (
{
layerId = "B1070C97-2DE4-4FC8-9990-FF316D9539D4";
paths = (
{
closed = 1;
nodes = (
"1445 -94 LINE",
"1326 -94 LINE",
"1326 762 LINE",
"1421 762 LINE",
"1421 1071 LINE",
"913 1071 LINE",
"841 922 LINE",
"773 1019 OFFCURVE",
"670 1092 OFFCURVE",
"526 1092 CURVE SMOOTH",
"334 1092 OFFCURVE",
"196 986 OFFCURVE",
"127 818 CURVE SMOOTH",
"92 734 OFFCURVE",
"75 642 OFFCURVE",
"75 541 CURVE SMOOTH",
"75 336 OFFCURVE",
"143 158 OFFCURVE",
"280 58 CURVE SMOOTH",
"348 7 OFFCURVE",
"431 -18 OFFCURVE",
"528 -18 CURVE SMOOTH",
"648 -18 OFFCURVE",
"752 28 OFFCURVE",
"841 119 CURVE",
"841 -96 LINE",
"728 -96 LINE",
"728 -397 LINE",
"1445 -397 LINE"
);
},
{
closed = 1;
nodes = (
"595 295 OFFCURVE",
"546 392 OFFCURVE",
"546 535 CURVE SMOOTH",
"546 697 OFFCURVE",
"600 778 OFFCURVE",
"708 778 CURVE SMOOTH",
"776 778 OFFCURVE",
"828 741 OFFCURVE",
"841 684 CURVE",
"841 389 LINE SMOOTH",
"841 337 OFFCURVE",
"780 295 OFFCURVE",
"712 295 CURVE SMOOTH"
);
}
);
width = 1515;
}
);
note = q;
unicode = 0071;
},
{
glyphname = r;
lastChange = "2021-03-26 14:05:54 +0000";
layers = (
{
layerId = "B1070C97-2DE4-4FC8-9990-FF316D9539D4";
paths = (
{
closed = 1;
nodes = (
"831 301 LINE",
"671 301 LINE",
"671 506 LINE SMOOTH",
"671 626 OFFCURVE",
"703 707 OFFCURVE",
"831 707 CURVE SMOOTH",
"882 707 OFFCURVE",
"946 694 OFFCURVE",
"1024 668 CURVE",
"1024 1092 LINE",
"912 1092 OFFCURVE",
"734 1018 OFFCURVE",
"671 918 CURVE",
"671 1092 LINE",
"63 1032 LINE",
"63 762 LINE",
"192 762 LINE",
"192 301 LINE",
"63 301 LINE",
"63 0 LINE",
"831 0 LINE"
);
}
);
width = 1071;
}
);
note = r;
unicode = 0072;
},
{
glyphname = s;
lastChange = "2021-03-26 14:05:54 +0000";
layers = (
{
layerId = "B1070C97-2DE4-4FC8-9990-FF316D9539D4";
paths = (
{
closed = 1;
nodes = (
"802 -18 OFFCURVE",
"944 36 OFFCURVE",
"1026 144 CURVE SMOOTH",
"1067 198 OFFCURVE",
"1087 264 OFFCURVE",
"1087 342 CURVE SMOOTH",
"1087 490 OFFCURVE",
"1006 588 OFFCURVE",
"913 643 CURVE SMOOTH",
"866 670 OFFCURVE",
"808 699 OFFCURVE",
"737 729 CURVE SMOOTH",
"680 754 OFFCURVE",
"639 774 OFFCURVE",
"614 789 CURVE SMOOTH",
"589 804 OFFCURVE",
"576 822 OFFCURVE",
"575 844 CURVE SMOOTH",
"575 879 OFFCURVE",
"602 891 OFFCURVE",
"649 891 CURVE SMOOTH",
"733 891 OFFCURVE",
"798 839 OFFCURVE",
"831 752 CURVE",
"1024 752 LINE",
"1024 1071 LINE",
"858 1071 LINE",
"833 1006 LINE",
"740 1063 OFFCURVE",
"639 1092 OFFCURVE",
"530 1092 CURVE SMOOTH",
"363 1092 OFFCURVE",
"214 1042 OFFCURVE",
"128 946 CURVE SMOOTH",
"85 898 OFFCURVE",
"63 841 OFFCURVE",
"63 774 CURVE SMOOTH",
"63 646 OFFCURVE",
"137 555 OFFCURVE",
"225 499 CURVE SMOOTH",
"268 471 OFFCURVE",
"324 440 OFFCURVE",
"393 406 CURVE SMOOTH",
"450 379 OFFCURVE",
"493 355 OFFCURVE",
"521 335 CURVE SMOOTH",
"549 315 OFFCURVE",
"563 293 OFFCURVE",
"563 268 CURVE SMOOTH",
"563 219 OFFCURVE",
"530 199 OFFCURVE",
"491 199 CURVE SMOOTH",
"390 199 OFFCURVE",
"303 294 OFFCURVE",
"286 395 CURVE",
"63 395 LINE",
"63 0 LINE",
"249 0 LINE",
"282 90 LINE",
"387 18 OFFCURVE",
"508 -18 OFFCURVE",
"645 -18 CURVE SMOOTH"
);
}
);
width = 1185;
}
);
note = s;
unicode = 0073;
},
{
glyphname = t;
lastChange = "2021-03-26 14:05:54 +0000";
layers = (
{
layerId = "B1070C97-2DE4-4FC8-9990-FF316D9539D4";
paths = (
{
closed = 1;
nodes = (
"680 -18 OFFCURVE",
"776 2 OFFCURVE",
"863 41 CURVE",
"863 319 LINE",
"839 315 OFFCURVE",
"815 313 OFFCURVE",
"790 313 CURVE SMOOTH",
"722 313 OFFCURVE",
"671 358 OFFCURVE",
"671 418 CURVE SMOOTH",
"671 778 LINE",
"863 778 LINE",
"863 1071 LINE",
"671 1071 LINE",
"671 1407 LINE",
"192 1300 LINE",
"192 1071 LINE",
"32 1071 LINE",
"32 778 LINE",
"192 778 LINE",
"192 383 LINE SMOOTH",
"192 112 OFFCURVE",
"317 -18 OFFCURVE",
"577 -18 CURVE SMOOTH"
);
}
);
width = 954;
}
);
note = t;
unicode = 0074;
},
{
glyphname = u;
lastChange = "2021-03-26 14:05:54 +0000";
layers = (
{
layerId = "B1070C97-2DE4-4FC8-9990-FF316D9539D4";
paths = (
{
closed = 1;
nodes = (
"674 -18 OFFCURVE",
"793 47 OFFCURVE",
"864 156 CURVE",
"864 0 LINE",
"1472 0 LINE",
"1472 301 LINE",
"1343 301 LINE",
"1343 1092 LINE",
"768 1032 LINE",
"768 762 LINE",
"864 762 LINE",
"864 387 LINE SMOOTH",
"864 327 OFFCURVE",
"828 281 OFFCURVE",
"768 281 CURVE SMOOTH",
"716 281 OFFCURVE",
"671 333 OFFCURVE",
"671 385 CURVE SMOOTH",
"671 1092 LINE",
"63 1032 LINE",
"63 762 LINE",
"192 762 LINE",
"192 385 LINE SMOOTH",
"192 116 OFFCURVE",
"299 -18 OFFCURVE",
"514 -18 CURVE SMOOTH"
);
}
);
width = 1538;
}
);
note = u;
unicode = 0075;
},
{
glyphname = v;
lastChange = "2021-03-26 14:05:54 +0000";
layers = (
{
layerId = "B1070C97-2DE4-4FC8-9990-FF316D9539D4";
paths = (
{
closed = 1;
nodes = (
"1440 762 LINE",
"1440 1071 LINE",
"897 1071 LINE",
"897 762 LINE",
"1024 762 LINE",
"831 258 LINE",
"657 762 LINE",
"768 762 LINE",
"768 1071 LINE",
"0 1071 LINE",
"0 762 LINE",
"147 762 LINE",
"481 0 LINE",
"991 0 LINE",
"1305 762 LINE"
);
}
);
width = 1482;
}
);
note = v;
unicode = 0076;
},
{
glyphname = w;
lastChange = "2021-03-26 14:05:54 +0000";
layers = (
{
layerId = "B1070C97-2DE4-4FC8-9990-FF316D9539D4";
paths = (
{
closed = 1;
nodes = (
"1159 0 LINE",
"1634 0 LINE",
"1861 762 LINE",
"1996 762 LINE",
"1996 1071 LINE",
"1445 1071 LINE",
"1445 762 LINE",
"1564 762 LINE",
"1464 379 LINE",
"1247 1071 LINE",
"981 1071 LINE",
"770 391 LINE",
"677 762 LINE",
"772 762 LINE",
"772 1071 LINE",
"63 1071 LINE",
"63 762 LINE",
"196 762 LINE",
"434 0 LINE",
"878 0 LINE",
"1030 430 LINE"
);
}
);
width = 2060;
}
);
note = w;
unicode = 0077;
},
{
glyphname = x;
lastChange = "2021-03-26 14:05:54 +0000";
layers = (
{
layerId = "B1070C97-2DE4-4FC8-9990-FF316D9539D4";
paths = (
{
closed = 1;
nodes = (
"775 0 LINE",
"1248 0 LINE",
"1248 301 LINE",
"1117 301 LINE",
"925 580 LINE",
"1087 762 LINE",
"1218 762 LINE",
"1218 1071 LINE",
"943 1071 LINE",
"759 821 LINE",
"597 1071 LINE",
"101 1071 LINE",
"101 762 LINE",
"230 762 LINE",
"413 512 LINE",
"233 301 LINE",
"83 301 LINE",
"83 0 LINE",
"380 0 LINE",
"587 276 LINE"
);
}
);
width = 1329;
}
);
note = x;
unicode = 0078;
},
{
glyphname = y;
lastChange = "2021-03-26 14:05:54 +0000";
layers = (
{
layerId = "B1070C97-2DE4-4FC8-9990-FF316D9539D4";
paths = (
{
closed = 1;
nodes = (
"937 -61 LINE",
"1374 762 LINE",
"1482 762 LINE",
"1482 1071 LINE",
"923 1071 LINE",
"923 762 LINE",
"1032 762 LINE",
"880 455 LINE",
"714 762 LINE",
"813 762 LINE",
"813 1071 LINE",
"63 1071 LINE",
"63 762 LINE",
"190 762 LINE",
"657 31 LINE",
"602 -61 LINE",
"399 -61 LINE",
"399 -377 LINE",
"1091 -377 LINE",
"1091 -61 LINE"
);
}
);
width = 1546;
}
);
note = y;
unicode = 0079;
},
{
glyphname = z;
lastChange = "2021-03-26 14:05:54 +0000";
layers = (
{
layerId = "B1070C97-2DE4-4FC8-9990-FF316D9539D4";
paths = (
{
closed = 1;
nodes = (
"982 451 LINE",
"947 295 LINE",
"661 295 LINE",
"1130 795 LINE",
"1130 1071 LINE",
"108 1071 LINE",
"108 637 LINE",
"304 637 LINE",
"370 778 LINE",
"575 778 LINE",
"81 283 LINE",
"81 0 LINE",
"1166 0 LINE",
"1166 451 LINE"
);
}
);
width = 1247;
}
);
note = z;
unicode = 007A;
},
{
glyphname = uni1780;
lastChange = "2021-03-26 14:05:54 +0000";
layers = (
{
layerId = "B1070C97-2DE4-4FC8-9990-FF316D9539D4";
paths = (
{
closed = 1;
nodes = (
"443 1158 OFFCURVE",
"376 1189 OFFCURVE",
"307 1194 CURVE",
"354 1219 OFFCURVE",
"390 1232 OFFCURVE",
"417 1232 CURVE SMOOTH",
"443 1232 OFFCURVE",
"501 1202 OFFCURVE",
"592 1143 CURVE SMOOTH",
"683 1084 OFFCURVE",
"749 1054 OFFCURVE",
"792 1054 CURVE SMOOTH",
"834 1054 OFFCURVE",
"888 1082 OFFCURVE",
"953 1137 CURVE SMOOTH",
"1018 1192 OFFCURVE",
"1064 1220 OFFCURVE",
"1091 1220 CURVE SMOOTH",
"1118 1220 OFFCURVE",
"1177 1200 OFFCURVE",
"1270 1160 CURVE SMOOTH",
"1362 1120 OFFCURVE",
"1444 1100 OFFCURVE",
"1515 1100 CURVE SMOOTH",
"1600 1100 OFFCURVE",
"1678 1183 OFFCURVE",
"1750 1350 CURVE",
"1671 1350 OFFCURVE",
"1586 1375 OFFCURVE",
"1493 1425 CURVE SMOOTH",
"1400 1475 OFFCURVE",
"1333 1500 OFFCURVE",
"1291 1500 CURVE SMOOTH",
"1248 1500 OFFCURVE",
"1191 1470 OFFCURVE",
"1119 1410 CURVE SMOOTH",
"1047 1350 OFFCURVE",
"995 1320 OFFCURVE",
"964 1320 CURVE SMOOTH",
"933 1320 OFFCURVE",
"871 1350 OFFCURVE",
"780 1410 CURVE SMOOTH",
"688 1470 OFFCURVE",
"613 1500 OFFCURVE",
"554 1500 CURVE SMOOTH",
"495 1500 OFFCURVE",
"360 1420 OFFCURVE",
"150 1260 CURVE",
"150 1054 LINE",
"161 1056 OFFCURVE",
"173 1057 OFFCURVE",
"185 1057 CURVE SMOOTH",
"242 1057 OFFCURVE",
"308 1037 OFFCURVE",
"383 997 CURVE",
"228 981 OFFCURVE",
"150 907 OFFCURVE",
"150 775 CURVE SMOOTH",
"150 625 OFFCURVE",
"250 550 OFFCURVE",
"450 550 CURVE SMOOTH",
"502 550 OFFCURVE",
"552 560 OFFCURVE",
"600 580 CURVE SMOOTH",
"617 587 OFFCURVE",
"633 595 OFFCURVE",
"648 604 CURVE",
"640 539 OFFCURVE",
"611 490 OFFCURVE",
"562 458 CURVE SMOOTH",
"503 419 OFFCURVE",
"435 400 OFFCURVE",
"359 400 CURVE SMOOTH",
"282 400 OFFCURVE",
"213 417 OFFCURVE",
"150 450 CURVE",
"150 300 LINE SMOOTH",
"150 100 OFFCURVE",
"250 0 OFFCURVE",
"450 0 CURVE SMOOTH",
"650 0 OFFCURVE",
"750 67 OFFCURVE",
"750 200 CURVE SMOOTH",
"750 677 LINE",
"846 726 OFFCURVE",
"948 750 OFFCURVE",
"1056 750 CURVE SMOOTH",
"1156 750 OFFCURVE",
"1310 711 OFFCURVE",
"1517 633 CURVE",
"1344 524 OFFCURVE",
"1189 463 OFFCURVE",
"1050 450 CURVE",
"1050 355 OFFCURVE",
"1090 256 OFFCURVE",
"1170 154 CURVE SMOOTH",
"1249 51 OFFCURVE",
"1343 0 OFFCURVE",
"1450 0 CURVE SMOOTH",
"1503 0 OFFCURVE",
"1570 47 OFFCURVE",
"1650 140 CURVE",
"1650 980 LINE",
"1405 1060 OFFCURVE",
"1220 1100 OFFCURVE",
"1096 1100 CURVE SMOOTH",
"995 1100 OFFCURVE",
"865 1030 OFFCURVE",
"707 891 CURVE",
"680 926 OFFCURVE",
"644 952 OFFCURVE",
"597 971 CURVE SMOOTH",
"549 990 OFFCURVE",
"500 1000 OFFCURVE",
"450 1000 CURVE SMOOTH",
"434 1000 LINE",
"507 1102 LINE"
);
},
{
closed = 1;
nodes = (
"1460 451 OFFCURVE",
"1457 460 OFFCURVE",
"1457 469 CURVE SMOOTH",
"1457 478 OFFCURVE",
"1461 486 OFFCURVE",
"1469 493 CURVE SMOOTH",
"1484 506 OFFCURVE",
"1511 530 OFFCURVE",
"1550 567 CURVE",
"1550 450 LINE SMOOTH",
"1550 421 OFFCURVE",
"1540 406 OFFCURVE",
"1519 406 CURVE SMOOTH",
"1498 406 OFFCURVE",
"1480 417 OFFCURVE",
"1467 440 CURVE SMOOTH"
);
}
);
width = 1800;
}
);
note = uni1780;
unicode = 1780;
},
{
glyphname = uni1781;
lastChange = "2021-03-26 14:05:54 +0000";
layers = (
{
layerId = "B1070C97-2DE4-4FC8-9990-FF316D9539D4";
paths = (
{
closed = 1;
nodes = (
"753 720 OFFCURVE",
"846 755 OFFCURVE",
"894 815 CURVE SMOOTH",
"918 844 OFFCURVE",
"930 875 OFFCURVE",
"930 908 CURVE SMOOTH",
"930 973 OFFCURVE",
"878 1039 OFFCURVE",
"791 1072 CURVE SMOOTH",
"748 1088 OFFCURVE",
"703 1096 OFFCURVE",
"658 1096 CURVE SMOOTH",
"566 1096 OFFCURVE",
"471 1062 OFFCURVE",
"423 1002 CURVE SMOOTH",
"398 972 OFFCURVE",
"386 941 OFFCURVE",
"386 908 CURVE SMOOTH",
"386 899 LINE",
"362 928 OFFCURVE",
"350 969 OFFCURVE",
"350 1020 CURVE SMOOTH",
"350 1140 OFFCURVE",
"500 1200 OFFCURVE",
"800 1200 CURVE SMOOTH",
"1100 1200 OFFCURVE",
"1250 1116 OFFCURVE",
"1250 949 CURVE SMOOTH",
"1250 821 OFFCURVE",
"1139 731 OFFCURVE",
"918 680 CURVE SMOOTH",
"697 629 OFFCURVE",
"441 602 OFFCURVE",
"150 601 CURVE",
"150 200 OFFCURVE",
"400 0 OFFCURVE",
"900 0 CURVE SMOOTH",
"1400 0 OFFCURVE",
"1650 219 OFFCURVE",
"1650 658 CURVE",
"1475 419 OFFCURVE",
"1267 300 OFFCURVE",
"1024 300 CURVE SMOOTH",
"781 300 OFFCURVE",
"640 355 OFFCURVE",
"600 464 CURVE",
"950 483 OFFCURVE",
"1213 538 OFFCURVE",
"1388 629 CURVE SMOOTH",
"1563 720 OFFCURVE",
"1650 846 OFFCURVE",
"1650 1009 CURVE SMOOTH",
"1650 1336 OFFCURVE",
"1400 1500 OFFCURVE",
"900 1500 CURVE SMOOTH",
"400 1500 OFFCURVE",
"150 1347 OFFCURVE",
"150 1040 CURVE SMOOTH",
"150 827 OFFCURVE",
"319 720 OFFCURVE",
"658 720 CURVE SMOOTH"
);
}
);
width = 1800;
}
);
note = uni1781;
unicode = 1781;
},
{
glyphname = uni1782;
lastChange = "2021-03-26 14:05:54 +0000";
layers = (
{
layerId = "B1070C97-2DE4-4FC8-9990-FF316D9539D4";
paths = (
{
closed = 1;
nodes = (
"458 1140 OFFCURVE",
"376 1189 OFFCURVE",
"307 1194 CURVE",
"354 1219 OFFCURVE",
"390 1232 OFFCURVE",
"417 1232 CURVE SMOOTH",
"443 1232 OFFCURVE",
"501 1204 OFFCURVE",
"592 1148 CURVE SMOOTH",
"683 1092 OFFCURVE",
"749 1064 OFFCURVE",
"792 1064 CURVE SMOOTH",
"834 1064 OFFCURVE",
"888 1090 OFFCURVE",
"953 1142 CURVE SMOOTH",
"1018 1194 OFFCURVE",
"1064 1220 OFFCURVE",
"1091 1220 CURVE SMOOTH",
"1118 1220 OFFCURVE",
"1177 1197 OFFCURVE",
"1270 1150 CURVE SMOOTH",
"1362 1103 OFFCURVE",
"1444 1080 OFFCURVE",
"1515 1080 CURVE SMOOTH",
"1600 1080 OFFCURVE",
"1678 1170 OFFCURVE",
"1750 1350 CURVE",
"1671 1350 OFFCURVE",
"1586 1375 OFFCURVE",
"1493 1425 CURVE SMOOTH",
"1400 1475 OFFCURVE",
"1333 1500 OFFCURVE",
"1291 1500 CURVE SMOOTH",
"1248 1500 OFFCURVE",
"1191 1470 OFFCURVE",
"1119 1410 CURVE SMOOTH",
"1047 1350 OFFCURVE",
"995 1320 OFFCURVE",
"964 1320 CURVE SMOOTH",
"933 1320 OFFCURVE",
"871 1350 OFFCURVE",
"780 1410 CURVE SMOOTH",
"688 1470 OFFCURVE",
"613 1500 OFFCURVE",
"554 1500 CURVE SMOOTH",
"495 1500 OFFCURVE",
"360 1420 OFFCURVE",
"150 1260 CURVE",
"150 1014 LINE",
"169 1017 OFFCURVE",
"187 1018 OFFCURVE",
"206 1018 CURVE SMOOTH",
"261 1018 OFFCURVE",
"315 1006 OFFCURVE",
"368 981 CURVE",
"552 1047 LINE"
);
},
{
closed = 1;
nodes = (
"476 1060 OFFCURVE",
"263 953 OFFCURVE",
"150 730 CURVE",
"150 299 LINE SMOOTH",
"150 122 OFFCURVE",
"241 0 OFFCURVE",
"438 0 CURVE SMOOTH",
"539 0 OFFCURVE",
"610 46 OFFCURVE",
"653 137 CURVE",
"608 172 OFFCURVE",
"586 210 OFFCURVE",
"586 251 CURVE SMOOTH",
"586 260 OFFCURVE",
"587 270 OFFCURVE",
"589 279 CURVE SMOOTH",
"601 317 OFFCURVE",
"627 336 OFFCURVE",
"668 337 CURVE SMOOTH",
"669 337 LINE SMOOTH",
"708 337 OFFCURVE",
"741 323 OFFCURVE",
"768 294 CURVE SMOOTH",
"795 265 OFFCURVE",
"830 250 OFFCURVE",
"874 250 CURVE SMOOTH",
"917 250 OFFCURVE",
"951 283 OFFCURVE",
"976 348 CURVE SMOOTH",
"984 370 OFFCURVE",
"988 391 OFFCURVE",
"988 412 CURVE SMOOTH",
"988 452 OFFCURVE",
"972 489 OFFCURVE",
"941 523 CURVE SMOOTH",
"893 574 OFFCURVE",
"829 600 OFFCURVE",
"749 600 CURVE SMOOTH",
"616 600 OFFCURVE",
"470 515 OFFCURVE",
"399 322 CURVE",
"300 334 OFFCURVE",
"250 383 OFFCURVE",
"250 470 CURVE SMOOTH",
"250 523 OFFCURVE",
"299 577 OFFCURVE",
"398 630 CURVE SMOOTH",
"496 683 OFFCURVE",
"629 710 OFFCURVE",
"796 710 CURVE SMOOTH",
"963 710 OFFCURVE",
"1203 684 OFFCURVE",
"1517 633 CURVE",
"1344 524 OFFCURVE",
"1189 463 OFFCURVE",
"1050 450 CURVE",
"1050 355 OFFCURVE",
"1090 256 OFFCURVE",
"1170 154 CURVE SMOOTH",
"1249 51 OFFCURVE",
"1343 0 OFFCURVE",
"1450 0 CURVE SMOOTH",
"1503 0 OFFCURVE",
"1570 47 OFFCURVE",
"1650 140 CURVE",
"1650 980 LINE",
"1298 1033 OFFCURVE",
"1030 1060 OFFCURVE",
"845 1060 CURVE SMOOTH"
);
},
{
closed = 1;
nodes = (
"1460 451 OFFCURVE",
"1457 460 OFFCURVE",
"1457 469 CURVE SMOOTH",
"1457 478 OFFCURVE",
"1461 486 OFFCURVE",
"1469 493 CURVE SMOOTH",
"1484 506 OFFCURVE",
"1511 530 OFFCURVE",
"1550 567 CURVE",
"1550 450 LINE SMOOTH",
"1550 421 OFFCURVE",
"1540 406 OFFCURVE",
"1519 406 CURVE SMOOTH",
"1498 406 OFFCURVE",
"1480 417 OFFCURVE",
"1467 440 CURVE SMOOTH"
);
}
);
width = 1800;
}
);
note = uni1782;
unicode = 1782;
},
{
glyphname = uni1783;
lastChange = "2021-03-26 14:05:54 +0000";
layers = (
{
layerId = "B1070C97-2DE4-4FC8-9990-FF316D9539D4";
paths = (
{
closed = 1;
nodes = (
"1627 424 OFFCURVE",
"1650 510 OFFCURVE",
"1650 601 CURVE SMOOTH",
"1650 767 OFFCURVE",
"1598 888 OFFCURVE",
"1493 965 CURVE SMOOTH",
"1431 1010 OFFCURVE",
"1358 1033 OFFCURVE",
"1274 1033 CURVE SMOOTH",
"1215 1033 OFFCURVE",
"1151 1022 OFFCURVE",
"1081 1000 CURVE",
"1101 1080 OFFCURVE",
"1136 1127 OFFCURVE",
"1185 1140 CURVE SMOOTH",
"1202 1145 OFFCURVE",
"1220 1147 OFFCURVE",
"1238 1147 CURVE SMOOTH",
"1269 1147 OFFCURVE",
"1299 1140 OFFCURVE",
"1329 1125 CURVE SMOOTH",
"1376 1102 OFFCURVE",
"1427 1090 OFFCURVE",
"1482 1090 CURVE SMOOTH",
"1483 1090 OFFCURVE",
"1484 1090 OFFCURVE",
"1485 1091 CURVE",
"1541 1091 OFFCURVE",
"1595 1182 OFFCURVE",
"1648 1364 CURVE",
"1587 1364 OFFCURVE",
"1516 1387 OFFCURVE",
"1434 1432 CURVE SMOOTH",
"1351 1477 OFFCURVE",
"1298 1500 OFFCURVE",
"1274 1500 CURVE SMOOTH",
"1226 1500 OFFCURVE",
"980 1325 OFFCURVE",
"980 1224 CURVE SMOOTH",
"980 650 LINE",
"1095 683 OFFCURVE",
"1190 700 OFFCURVE",
"1265 700 CURVE SMOOTH",
"1310 700 OFFCURVE",
"1347 694 OFFCURVE",
"1378 683 CURVE SMOOTH",
"1459 651 OFFCURVE",
"1500 617 OFFCURVE",
"1500 580 CURVE SMOOTH",
"1500 393 OFFCURVE",
"1323 320 OFFCURVE",
"1050 320 CURVE SMOOTH",
"923 320 OFFCURVE",
"821 332 OFFCURVE",
"744 355 CURVE SMOOTH",
"667 378 OFFCURVE",
"623 407 OFFCURVE",
"610 440 CURVE",
"785 668 OFFCURVE",
"840 925 OFFCURVE",
"840 1068 CURVE SMOOTH",
"840 1356 OFFCURVE",
"728 1500 OFFCURVE",
"481 1500 CURVE SMOOTH",
"394 1500 OFFCURVE",
"317 1462 OFFCURVE",
"250 1385 CURVE SMOOTH",
"183 1308 OFFCURVE",
"150 1203 OFFCURVE",
"150 1070 CURVE SMOOTH",
"150 810 OFFCURVE",
"276 700 OFFCURVE",
"403 700 CURVE SMOOTH",
"466 700 OFFCURVE",
"520 727 OFFCURVE",
"564 780 CURVE SMOOTH",
"596 819 OFFCURVE",
"612 864 OFFCURVE",
"612 913 CURVE SMOOTH",
"612 931 OFFCURVE",
"610 950 OFFCURVE",
"606 970 CURVE SMOOTH",
"590 1043 OFFCURVE",
"555 1096 OFFCURVE",
"500 1130 CURVE",
"467 1097 OFFCURVE",
"427 1080 OFFCURVE",
"381 1080 CURVE SMOOTH",
"328 1080 OFFCURVE",
"301 1105 OFFCURVE",
"301 1155 CURVE SMOOTH",
"301 1205 OFFCURVE",
"351 1230 OFFCURVE",
"450 1230 CURVE SMOOTH",
"577 1230 OFFCURVE",
"680 1079 OFFCURVE",
"680 938 CURVE SMOOTH",
"680 893 OFFCURVE",
"661 739 OFFCURVE",
"506 631 CURVE SMOOTH",
"429 577 OFFCURVE",
"310 550 OFFCURVE",
"150 550 CURVE",
"177 183 OFFCURVE",
"417 0 OFFCURVE",
"910 0 CURVE SMOOTH",
"1060 0 OFFCURVE",
"1190 27 OFFCURVE",
"1299 80 CURVE",
"1423 27 OFFCURVE",
"1567 0 OFFCURVE",
"1730 0 CURVE SMOOTH",
"2157 0 OFFCURVE",
"2450 288 OFFCURVE",
"2450 601 CURVE SMOOTH",
"2450 767 OFFCURVE",
"2398 888 OFFCURVE",
"2293 965 CURVE SMOOTH",
"2231 1010 OFFCURVE",
"2158 1033 OFFCURVE",
"2074 1033 CURVE SMOOTH",
"2015 1033 OFFCURVE",
"1951 1022 OFFCURVE",
"1881 1000 CURVE",
"1901 1080 OFFCURVE",
"1936 1127 OFFCURVE",
"1985 1140 CURVE SMOOTH",
"2002 1145 OFFCURVE",
"2020 1147 OFFCURVE",
"2038 1147 CURVE SMOOTH",
"2069 1147 OFFCURVE",
"2099 1140 OFFCURVE",
"2129 1125 CURVE SMOOTH",
"2176 1102 OFFCURVE",
"2227 1090 OFFCURVE",
"2282 1090 CURVE SMOOTH",
"2283 1090 OFFCURVE",
"2284 1090 OFFCURVE",
"2285 1091 CURVE",
"2341 1091 OFFCURVE",
"2395 1182 OFFCURVE",
"2448 1364 CURVE",
"2387 1364 OFFCURVE",
"2316 1387 OFFCURVE",
"2234 1432 CURVE SMOOTH",
"2151 1477 OFFCURVE",
"2098 1500 OFFCURVE",
"2074 1500 CURVE SMOOTH",
"2026 1500 OFFCURVE",
"1780 1325 OFFCURVE",
"1780 1224 CURVE SMOOTH",
"1780 650 LINE",
"1895 683 OFFCURVE",
"1990 700 OFFCURVE",
"2065 700 CURVE SMOOTH",
"2110 700 OFFCURVE",
"2147 694 OFFCURVE",
"2178 683 CURVE SMOOTH",
"2259 651 OFFCURVE",
"2300 617 OFFCURVE",
"2300 580 CURVE SMOOTH",
"2300 393 OFFCURVE",
"2123 320 OFFCURVE",
"1850 320 CURVE SMOOTH",
"1743 320 OFFCURVE",
"1653 328 OFFCURVE",
"1582 345 CURVE"
);
}
);
width = 2600;
}
);
note = uni1783;
unicode = 1783;
},
{
glyphname = uni1784;
lastChange = "2021-03-26 14:05:54 +0000";
layers = (
{
layerId = "B1070C97-2DE4-4FC8-9990-FF316D9539D4";
paths = (
{
closed = 1;
nodes = (
"426 1104 OFFCURVE",
"565 1190 OFFCURVE",
"953 1190 CURVE SMOOTH",
"1252 1190 OFFCURVE",
"1501 1084 OFFCURVE",
"1501 955 CURVE SMOOTH",
"1501 920 OFFCURVE",
"1473 902 OFFCURVE",
"1418 902 CURVE SMOOTH",
"1412 902 LINE SMOOTH",
"1357 903 OFFCURVE",
"1330 925 OFFCURVE",
"1330 967 CURVE SMOOTH",
"1330 972 OFFCURVE",
"1330 976 OFFCURVE",
"1331 981 CURVE",
"1298 1027 OFFCURVE",
"1240 1050 OFFCURVE",
"1155 1050 CURVE SMOOTH",
"1151 1050 LINE SMOOTH",
"1024 1050 OFFCURVE",
"960 982 OFFCURVE",
"960 845 CURVE SMOOTH",
"960 708 OFFCURVE",
"1061 640 OFFCURVE",
"1264 640 CURVE SMOOTH",
"1515 640 OFFCURVE",
"1650 819 OFFCURVE",
"1650 1008 CURVE SMOOTH",
"1650 1251 OFFCURVE",
"1337 1500 OFFCURVE",
"949 1500 CURVE SMOOTH",
"522 1500 OFFCURVE",
"270 1308 OFFCURVE",
"150 1116 CURVE",
"150 650 LINE",
"258 683 OFFCURVE",
"368 703 OFFCURVE",
"481 710 CURVE SMOOTH",
"496 711 OFFCURVE",
"509 711 OFFCURVE",
"522 711 CURVE SMOOTH",
"607 711 OFFCURVE",
"650 692 OFFCURVE",
"650 653 CURVE SMOOTH",
"650 608 OFFCURVE",
"607 571 OFFCURVE",
"520 543 CURVE SMOOTH",
"433 514 OFFCURVE",
"310 500 OFFCURVE",
"150 500 CURVE",
"177 200 OFFCURVE",
"417 0 OFFCURVE",
"910 0 CURVE SMOOTH",
"1363 0 OFFCURVE",
"1650 258 OFFCURVE",
"1650 691 CURVE",
"1507 459 OFFCURVE",
"1323 320 OFFCURVE",
"1050 320 CURVE SMOOTH",
"923 320 OFFCURVE",
"821 332 OFFCURVE",
"744 355 CURVE SMOOTH",
"667 378 OFFCURVE",
"623 407 OFFCURVE",
"610 440 CURVE",
"743 527 OFFCURVE",
"810 619 OFFCURVE",
"810 718 CURVE SMOOTH",
"810 857 OFFCURVE",
"759 948 OFFCURVE",
"656 993 CURVE SMOOTH",
"591 1021 OFFCURVE",
"519 1035 OFFCURVE",
"442 1035 CURVE SMOOTH",
"397 1035 OFFCURVE",
"351 1030 OFFCURVE",
"302 1021 CURVE"
);
}
);
width = 1800;
}
);
note = uni1784;
unicode = 1784;
},
{
glyphname = uni1785;
lastChange = "2021-03-26 14:05:54 +0000";
layers = (
{
layerId = "B1070C97-2DE4-4FC8-9990-FF316D9539D4";
paths = (
{
closed = 1;
nodes = (
"285 1079 OFFCURVE",
"316 1113 OFFCURVE",
"349 1136 CURVE SMOOTH",
"394 1167 OFFCURVE",
"435 1182 OFFCURVE",
"474 1182 CURVE SMOOTH",
"499 1182 OFFCURVE",
"545 1162 OFFCURVE",
"610 1123 CURVE SMOOTH",
"675 1084 OFFCURVE",
"729 1064 OFFCURVE",
"770 1064 CURVE SMOOTH",
"811 1064 OFFCURVE",
"863 1087 OFFCURVE",
"926 1132 CURVE SMOOTH",
"989 1177 OFFCURVE",
"1034 1200 OFFCURVE",
"1060 1200 CURVE SMOOTH",
"1086 1200 OFFCURVE",
"1144 1180 OFFCURVE",
"1234 1140 CURVE SMOOTH",
"1323 1100 OFFCURVE",
"1403 1080 OFFCURVE",
"1472 1080 CURVE SMOOTH",
"1554 1080 OFFCURVE",
"1630 1170 OFFCURVE",
"1700 1350 CURVE",
"1623 1350 OFFCURVE",
"1540 1375 OFFCURVE",
"1451 1425 CURVE SMOOTH",
"1361 1475 OFFCURVE",
"1295 1500 OFFCURVE",
"1254 1500 CURVE SMOOTH",
"1213 1500 OFFCURVE",
"1157 1470 OFFCURVE",
"1088 1410 CURVE SMOOTH",
"1018 1350 OFFCURVE",
"968 1320 OFFCURVE",
"937 1320 CURVE SMOOTH",
"906 1320 OFFCURVE",
"847 1350 OFFCURVE",
"758 1410 CURVE SMOOTH",
"669 1470 OFFCURVE",
"596 1500 OFFCURVE",
"539 1500 CURVE SMOOTH",
"482 1500 OFFCURVE",
"352 1420 OFFCURVE",
"150 1260 CURVE",
"150 650 LINE",
"258 697 OFFCURVE",
"368 723 OFFCURVE",
"481 730 CURVE SMOOTH",
"496 731 OFFCURVE",
"509 731 OFFCURVE",
"522 731 CURVE SMOOTH",
"607 731 OFFCURVE",
"650 712 OFFCURVE",
"650 673 CURVE SMOOTH",
"650 628 OFFCURVE",
"607 588 OFFCURVE",
"520 553 CURVE SMOOTH",
"433 518 OFFCURVE",
"310 500 OFFCURVE",
"150 500 CURVE",
"177 200 OFFCURVE",
"417 0 OFFCURVE",
"910 0 CURVE SMOOTH",
"1363 0 OFFCURVE",
"1650 271 OFFCURVE",
"1650 650 CURVE SMOOTH",
"1650 883 OFFCURVE",
"1517 1000 OFFCURVE",
"1250 1000 CURVE SMOOTH",
"1165 1000 OFFCURVE",
"1077 964 OFFCURVE",
"1032 899 CURVE SMOOTH",
"1009 866 OFFCURVE",
"998 832 OFFCURVE",
"998 797 CURVE SMOOTH",
"998 728 OFFCURVE",
"1044 657 OFFCURVE",
"1125 622 CURVE SMOOTH",
"1165 604 OFFCURVE",
"1207 595 OFFCURVE",
"1250 595 CURVE SMOOTH",
"1337 595 OFFCURVE",
"1425 632 OFFCURVE",
"1469 697 CURVE SMOOTH",
"1478 710 OFFCURVE",
"1486 724 OFFCURVE",
"1491 737 CURVE",
"1497 711 OFFCURVE",
"1500 682 OFFCURVE",
"1500 650 CURVE SMOOTH",
"1500 446 OFFCURVE",
"1323 320 OFFCURVE",
"1050 320 CURVE SMOOTH",
"923 320 OFFCURVE",
"821 332 OFFCURVE",
"744 355 CURVE SMOOTH",
"667 378 OFFCURVE",
"623 407 OFFCURVE",
"610 440 CURVE",
"743 527 OFFCURVE",
"810 619 OFFCURVE",
"810 718 CURVE SMOOTH",
"810 857 OFFCURVE",
"759 955 OFFCURVE",
"656 1013 CURVE SMOOTH",
"602 1043 OFFCURVE",
"536 1058 OFFCURVE",
"457 1058 CURVE SMOOTH",
"397 1058 OFFCURVE",
"330 1049 OFFCURVE",
"256 1032 CURVE"
);
}
);
width = 1800;
}
);
note = uni1785;
unicode = 1785;
},
{
glyphname = uni1786;
lastChange = "2021-03-26 14:05:54 +0000";
layers = (
{
layerId = "B1070C97-2DE4-4FC8-9990-FF316D9539D4";
paths = (
{
closed = 1;
nodes = (
"803 450 OFFCURVE",
"841 407 OFFCURVE",
"864 322 CURVE",
"888 107 OFFCURVE",
"1005 0 OFFCURVE",
"1215 0 CURVE SMOOTH",
"1448 0 OFFCURVE",
"1650 218 OFFCURVE",
"1650 650 CURVE SMOOTH",
"1650 883 OFFCURVE",
"1517 1000 OFFCURVE",
"1250 1000 CURVE SMOOTH",
"1165 1000 OFFCURVE",
"1077 964 OFFCURVE",
"1032 899 CURVE SMOOTH",
"1009 866 OFFCURVE",
"998 832 OFFCURVE",
"998 797 CURVE SMOOTH",
"998 728 OFFCURVE",
"1044 657 OFFCURVE",
"1125 622 CURVE SMOOTH",
"1165 604 OFFCURVE",
"1207 595 OFFCURVE",
"1250 595 CURVE SMOOTH",
"1337 595 OFFCURVE",
"1425 632 OFFCURVE",
"1469 697 CURVE SMOOTH",
"1478 710 OFFCURVE",
"1486 724 OFFCURVE",
"1491 737 CURVE",
"1497 711 OFFCURVE",
"1500 682 OFFCURVE",
"1500 650 CURVE SMOOTH",
"1500 450 OFFCURVE",
"1421 320 OFFCURVE",
"1198 320 CURVE SMOOTH",
"1106 320 OFFCURVE",
"1047 349 OFFCURVE",
"1020 408 CURVE SMOOTH",
"993 466 OFFCURVE",
"956 513 OFFCURVE",
"910 548 CURVE SMOOTH",
"863 583 OFFCURVE",
"810 600 OFFCURVE",
"750 600 CURVE",
"750 850 LINE",
"717 917 OFFCURVE",
"655 968 OFFCURVE",
"563 1003 CURVE SMOOTH",
"499 1027 OFFCURVE",
"430 1039 OFFCURVE",
"357 1039 CURVE SMOOTH",
"324 1039 OFFCURVE",
"291 1037 OFFCURVE",
"256 1032 CURVE",
"285 1079 OFFCURVE",
"316 1113 OFFCURVE",
"349 1136 CURVE SMOOTH",
"394 1167 OFFCURVE",
"435 1182 OFFCURVE",
"474 1182 CURVE SMOOTH",
"499 1182 OFFCURVE",
"545 1162 OFFCURVE",
"610 1123 CURVE SMOOTH",
"675 1084 OFFCURVE",
"729 1064 OFFCURVE",
"770 1064 CURVE SMOOTH",
"811 1064 OFFCURVE",
"863 1087 OFFCURVE",
"926 1132 CURVE SMOOTH",
"989 1177 OFFCURVE",
"1034 1200 OFFCURVE",
"1060 1200 CURVE SMOOTH",
"1086 1200 OFFCURVE",
"1144 1180 OFFCURVE",
"1234 1140 CURVE SMOOTH",
"1323 1100 OFFCURVE",
"1403 1080 OFFCURVE",
"1472 1080 CURVE SMOOTH",
"1554 1080 OFFCURVE",
"1630 1170 OFFCURVE",
"1700 1350 CURVE",
"1623 1350 OFFCURVE",
"1540 1375 OFFCURVE",
"1451 1425 CURVE SMOOTH",
"1361 1475 OFFCURVE",
"1295 1500 OFFCURVE",
"1254 1500 CURVE SMOOTH",
"1213 1500 OFFCURVE",
"1157 1470 OFFCURVE",
"1088 1410 CURVE SMOOTH",
"1018 1350 OFFCURVE",
"968 1320 OFFCURVE",
"937 1320 CURVE SMOOTH",
"906 1320 OFFCURVE",
"847 1350 OFFCURVE",
"758 1410 CURVE SMOOTH",
"669 1470 OFFCURVE",
"596 1500 OFFCURVE",
"539 1500 CURVE SMOOTH",
"482 1500 OFFCURVE",
"352 1420 OFFCURVE",
"150 1260 CURVE",
"150 650 LINE",
"227 685 OFFCURVE",
"302 703 OFFCURVE",
"375 703 CURVE SMOOTH",
"407 703 OFFCURVE",
"439 700 OFFCURVE",
"470 693 CURVE SMOOTH",
"571 670 OFFCURVE",
"622 640 OFFCURVE",
"622 602 CURVE SMOOTH",
"622 600 LINE",
"485 600 LINE SMOOTH",
"360 600 OFFCURVE",
"249 550 OFFCURVE",
"150 450 CURVE",
"150 355 OFFCURVE",
"190 256 OFFCURVE",
"270 154 CURVE SMOOTH",
"349 51 OFFCURVE",
"443 0 OFFCURVE",
"550 0 CURVE SMOOTH",
"603 0 OFFCURVE",
"670 47 OFFCURVE",
"750 140 CURVE",
"750 450 LINE"
);
},
{
closed = 1;
nodes = (
"650 371 OFFCURVE",
"640 356 OFFCURVE",
"619 356 CURVE SMOOTH",
"598 356 OFFCURVE",
"580 367 OFFCURVE",
"567 390 CURVE SMOOTH",
"560 401 OFFCURVE",
"557 410 OFFCURVE",
"557 418 CURVE SMOOTH",
"557 426 OFFCURVE",
"561 432 OFFCURVE",
"569 437 CURVE SMOOTH",
"584 446 OFFCURVE",
"611 450 OFFCURVE",
"650 450 CURVE",
"650 400 LINE SMOOTH"
);
}
);
width = 1800;
}
);
note = uni1786;
unicode = 1786;
},
{
glyphname = uni1787;
lastChange = "2021-03-26 14:05:54 +0000";
layers = (
{
layerId = "B1070C97-2DE4-4FC8-9990-FF316D9539D4";
paths = (
{
closed = 1;
nodes = (
"334 1113 OFFCURVE",
"428 1159 OFFCURVE",
"545 1159 CURVE SMOOTH",
"635 1159 OFFCURVE",
"735 1127 OFFCURVE",
"846 1064 CURVE SMOOTH",
"956 1001 OFFCURVE",
"1066 969 OFFCURVE",
"1176 969 CURVE SMOOTH",
"1385 969 OFFCURVE",
"1650 1201 OFFCURVE",
"1650 1394 CURVE SMOOTH",
"1650 1587 OFFCURVE",
"1481 1699 OFFCURVE",
"1316 1699 CURVE SMOOTH",
"1233 1699 OFFCURVE",
"1174 1665 OFFCURVE",
"1141 1597 CURVE SMOOTH",
"1132 1580 OFFCURVE",
"1128 1564 OFFCURVE",
"1128 1549 CURVE SMOOTH",
"1128 1502 OFFCURVE",
"1167 1461 OFFCURVE",
"1246 1427 CURVE SMOOTH",
"1349 1382 OFFCURVE",
"1401 1333 OFFCURVE",
"1401 1280 CURVE SMOOTH",
"1401 1226 OFFCURVE",
"1380 1199 OFFCURVE",
"1339 1199 CURVE SMOOTH",
"1291 1199 OFFCURVE",
"1198 1249 OFFCURVE",
"1059 1349 CURVE SMOOTH",
"920 1449 OFFCURVE",
"800 1499 OFFCURVE",
"699 1500 CURVE SMOOTH",
"495 1500 OFFCURVE",
"249 1349 OFFCURVE",
"150 1170 CURVE",
"150 650 LINE",
"251 700 OFFCURVE",
"355 725 OFFCURVE",
"461 725 CURVE SMOOTH",
"481 725 LINE SMOOTH",
"594 722 OFFCURVE",
"650 698 OFFCURVE",
"650 653 CURVE SMOOTH",
"650 608 OFFCURVE",
"607 571 OFFCURVE",
"520 543 CURVE SMOOTH",
"433 514 OFFCURVE",
"310 500 OFFCURVE",
"150 500 CURVE",
"177 200 OFFCURVE",
"417 0 OFFCURVE",
"910 0 CURVE SMOOTH",
"1363 0 OFFCURVE",
"1650 234 OFFCURVE",
"1650 761 CURVE",
"1507 436 OFFCURVE",
"1323 320 OFFCURVE",
"1050 320 CURVE SMOOTH",
"923 320 OFFCURVE",
"821 332 OFFCURVE",
"744 355 CURVE SMOOTH",
"667 378 OFFCURVE",
"623 407 OFFCURVE",
"610 440 CURVE",
"743 527 OFFCURVE",
"810 619 OFFCURVE",
"810 718 CURVE SMOOTH",
"810 857 OFFCURVE",
"759 952 OFFCURVE",
"656 1003 CURVE SMOOTH",
"597 1032 OFFCURVE",
"530 1047 OFFCURVE",
"453 1047 CURVE SMOOTH",
"395 1047 OFFCURVE",
"331 1038 OFFCURVE",
"262 1021 CURVE"
);
}
);
width = 1800;
}
);
note = uni1787;
unicode = 1787;
},
{
glyphname = uni1788;
lastChange = "2021-03-26 14:05:54 +0000";
layers = (
{
layerId = "B1070C97-2DE4-4FC8-9990-FF316D9539D4";
paths = (
{
closed = 1;
nodes = (
"742 1190 OFFCURVE",
"827 1162 OFFCURVE",
"903 1107 CURVE SMOOTH",
"979 1051 OFFCURVE",
"1044 974 OFFCURVE",
"1098 877 CURVE",
"777 413 LINE",
"888 138 OFFCURVE",
"1133 0 OFFCURVE",
"1440 0 CURVE SMOOTH",
"1590 0 OFFCURVE",
"1720 27 OFFCURVE",
"1829 80 CURVE",
"1953 27 OFFCURVE",
"2097 0 OFFCURVE",
"2260 0 CURVE SMOOTH",
"2687 0 OFFCURVE",
"2980 288 OFFCURVE",
"2980 601 CURVE SMOOTH",
"2980 767 OFFCURVE",
"2928 888 OFFCURVE",
"2823 965 CURVE SMOOTH",
"2761 1010 OFFCURVE",
"2688 1033 OFFCURVE",
"2604 1033 CURVE SMOOTH",
"2545 1033 OFFCURVE",
"2481 1022 OFFCURVE",
"2411 1000 CURVE",
"2431 1080 OFFCURVE",
"2466 1127 OFFCURVE",
"2515 1140 CURVE SMOOTH",
"2532 1145 OFFCURVE",
"2550 1147 OFFCURVE",
"2568 1147 CURVE SMOOTH",
"2599 1147 OFFCURVE",
"2629 1140 OFFCURVE",
"2659 1125 CURVE SMOOTH",
"2706 1102 OFFCURVE",
"2757 1090 OFFCURVE",
"2812 1090 CURVE SMOOTH",
"2813 1090 OFFCURVE",
"2814 1090 OFFCURVE",
"2815 1091 CURVE",
"2871 1091 OFFCURVE",
"2925 1182 OFFCURVE",
"2978 1364 CURVE",
"2917 1364 OFFCURVE",
"2846 1387 OFFCURVE",
"2764 1432 CURVE SMOOTH",
"2681 1477 OFFCURVE",
"2628 1500 OFFCURVE",
"2604 1500 CURVE SMOOTH",
"2556 1500 OFFCURVE",
"2310 1325 OFFCURVE",
"2310 1224 CURVE SMOOTH",
"2310 650 LINE",
"2425 683 OFFCURVE",
"2520 700 OFFCURVE",
"2595 700 CURVE SMOOTH",
"2640 700 OFFCURVE",
"2677 694 OFFCURVE",
"2708 683 CURVE SMOOTH",
"2789 651 OFFCURVE",
"2830 617 OFFCURVE",
"2830 580 CURVE SMOOTH",
"2830 393 OFFCURVE",
"2653 320 OFFCURVE",
"2380 320 CURVE SMOOTH",
"2273 320 OFFCURVE",
"2183 328 OFFCURVE",
"2112 345 CURVE",
"2157 424 OFFCURVE",
"2180 510 OFFCURVE",
"2180 601 CURVE SMOOTH",
"2180 767 OFFCURVE",
"2128 888 OFFCURVE",
"2023 965 CURVE SMOOTH",
"1961 1010 OFFCURVE",
"1888 1033 OFFCURVE",
"1804 1033 CURVE SMOOTH",
"1745 1033 OFFCURVE",
"1681 1022 OFFCURVE",
"1611 1000 CURVE",
"1631 1080 OFFCURVE",
"1666 1127 OFFCURVE",
"1715 1140 CURVE SMOOTH",
"1732 1145 OFFCURVE",
"1750 1147 OFFCURVE",
"1768 1147 CURVE SMOOTH",
"1799 1147 OFFCURVE",
"1829 1140 OFFCURVE",
"1859 1125 CURVE SMOOTH",
"1906 1102 OFFCURVE",
"1957 1090 OFFCURVE",
"2012 1090 CURVE SMOOTH",
"2013 1090 OFFCURVE",
"2014 1090 OFFCURVE",
"2015 1091 CURVE",
"2071 1091 OFFCURVE",
"2125 1182 OFFCURVE",
"2178 1364 CURVE",
"2117 1364 OFFCURVE",
"2046 1387 OFFCURVE",
"1964 1432 CURVE SMOOTH",
"1881 1477 OFFCURVE",
"1828 1500 OFFCURVE",
"1804 1500 CURVE SMOOTH",
"1756 1500 OFFCURVE",
"1510 1325 OFFCURVE",
"1510 1224 CURVE SMOOTH",
"1510 650 LINE",
"1625 683 OFFCURVE",
"1720 700 OFFCURVE",
"1795 700 CURVE SMOOTH",
"1840 700 OFFCURVE",
"1877 694 OFFCURVE",
"1908 683 CURVE SMOOTH",
"1989 651 OFFCURVE",
"2030 617 OFFCURVE",
"2030 580 CURVE SMOOTH",
"2030 393 OFFCURVE",
"1853 320 OFFCURVE",
"1580 320 CURVE SMOOTH",
"1325 320 OFFCURVE",
"1192 411 OFFCURVE",
"1121 603 CURVE",
"1393 1067 LINE",
"1340 1175 LINE SMOOTH",
"1269 1318 OFFCURVE",
"1041 1500 OFFCURVE",
"722 1500 CURVE SMOOTH",
"403 1500 OFFCURVE",
"243 1308 OFFCURVE",
"150 1116 CURVE",
"150 670 LINE",
"192 709 OFFCURVE",
"250 728 OFFCURVE",
"324 728 CURVE SMOOTH",
"397 728 OFFCURVE",
"439 691 OFFCURVE",
"450 616 CURVE",
"319 567 OFFCURVE",
"237 514 OFFCURVE",
"202 457 CURVE SMOOTH",
"167 399 OFFCURVE",
"150 340 OFFCURVE",
"150 280 CURVE SMOOTH",
"150 93 OFFCURVE",
"242 0 OFFCURVE",
"425 0 CURVE SMOOTH",
"608 0 OFFCURVE",
"700 90 OFFCURVE",
"700 270 CURVE SMOOTH",
"700 377 OFFCURVE",
"652 430 OFFCURVE",
"557 430 CURVE SMOOTH",
"521 430 OFFCURVE",
"490 408 OFFCURVE",
"465 364 CURVE SMOOTH",
"448 334 OFFCURVE",
"430 319 OFFCURVE",
"413 319 CURVE SMOOTH",
"404 319 OFFCURVE",
"395 323 OFFCURVE",
"386 330 CURVE SMOOTH",
"381 334 OFFCURVE",
"378 339 OFFCURVE",
"378 346 CURVE SMOOTH",
"378 374 OFFCURVE",
"424 424 OFFCURVE",
"516 496 CURVE SMOOTH",
"605 565 OFFCURVE",
"650 639 OFFCURVE",
"650 718 CURVE SMOOTH",
"650 857 OFFCURVE",
"612 948 OFFCURVE",
"537 993 CURVE SMOOTH",
"489 1021 OFFCURVE",
"436 1035 OFFCURVE",
"377 1035 CURVE SMOOTH",
"342 1035 OFFCURVE",
"306 1030 OFFCURVE",
"268 1021 CURVE",
"317 1062 OFFCURVE",
"369 1101 OFFCURVE",
"425 1137 CURVE SMOOTH",
"480 1172 OFFCURVE",
"555 1190 OFFCURVE",
"649 1190 CURVE SMOOTH"
);
}
);
width = 3130;
}
);
note = uni1788;
unicode = 1788;
},
{
glyphname = uni1789;
lastChange = "2021-03-26 14:05:54 +0000";
layers = (
{
layerId = "B1070C97-2DE4-4FC8-9990-FF316D9539D4";
paths = (
{
closed = 1;
nodes = (
"1747 1105 OFFCURVE",
"1827 1140 OFFCURVE",
"1892 1140 CURVE SMOOTH",
"1987 1140 OFFCURVE",
"2096 1101 OFFCURVE",
"2218 1022 CURVE SMOOTH",
"2339 943 OFFCURVE",
"2400 867 OFFCURVE",
"2400 793 CURVE SMOOTH",
"2400 684 OFFCURVE",
"2317 606 OFFCURVE",
"2150 560 CURVE SMOOTH",
"1983 514 OFFCURVE",
"1900 467 OFFCURVE",
"1900 420 CURVE SMOOTH",
"1900 345 OFFCURVE",
"1940 256 OFFCURVE",
"2020 154 CURVE SMOOTH",
"2099 51 OFFCURVE",
"2193 0 OFFCURVE",
"2300 0 CURVE SMOOTH",
"2353 0 OFFCURVE",
"2400 23 OFFCURVE",
"2440 70 CURVE SMOOTH",
"2480 117 OFFCURVE",
"2500 160 OFFCURVE",
"2500 200 CURVE SMOOTH",
"2500 1150 LINE SMOOTH",
"2500 1289 OFFCURVE",
"2195 1500 OFFCURVE",
"1975 1500 CURVE SMOOTH",
"1905 1500 OFFCURVE",
"1828 1448 OFFCURVE",
"1744 1343 CURVE SMOOTH",
"1705 1294 OFFCURVE",
"1673 1243 OFFCURVE",
"1649 1189 CURVE",
"1640 1252 OFFCURVE",
"1591 1318 OFFCURVE",
"1500 1387 CURVE SMOOTH",
"1400 1462 OFFCURVE",
"1302 1500 OFFCURVE",
"1205 1500 CURVE SMOOTH",
"1135 1500 OFFCURVE",
"1057 1435 OFFCURVE",
"970 1305 CURVE",
"861 1413 OFFCURVE",
"733 1500 OFFCURVE",
"588 1500 CURVE SMOOTH",
"475 1500 OFFCURVE",
"374 1435 OFFCURVE",
"285 1305 CURVE SMOOTH",
"195 1175 OFFCURVE",
"150 990 OFFCURVE",
"150 750 CURVE SMOOTH",
"150 250 OFFCURVE",
"277 0 OFFCURVE",
"531 0 CURVE SMOOTH",
"710 0 OFFCURVE",
"800 186 OFFCURVE",
"800 558 CURVE SMOOTH",
"800 788 OFFCURVE",
"726 903 OFFCURVE",
"577 903 CURVE SMOOTH",
"442 903 OFFCURVE",
"375 824 OFFCURVE",
"375 665 CURVE SMOOTH",
"375 546 OFFCURVE",
"422 487 OFFCURVE",
"517 487 CURVE SMOOTH",
"568 487 OFFCURVE",
"602 497 OFFCURVE",
"620 518 CURVE SMOOTH",
"629 529 OFFCURVE",
"639 535 OFFCURVE",
"650 535 CURVE SMOOTH",
"657 535 OFFCURVE",
"665 532 OFFCURVE",
"673 525 CURVE SMOOTH",
"691 509 OFFCURVE",
"700 488 OFFCURVE",
"700 461 CURVE SMOOTH",
"700 415 OFFCURVE",
"650 387 OFFCURVE",
"550 377 CURVE SMOOTH",
"538 376 OFFCURVE",
"526 375 OFFCURVE",
"514 375 CURVE SMOOTH",
"433 375 OFFCURVE",
"375 406 OFFCURVE",
"340 469 CURVE SMOOTH",
"300 540 OFFCURVE",
"280 634 OFFCURVE",
"280 750 CURVE SMOOTH",
"280 863 OFFCURVE",
"308 957 OFFCURVE",
"365 1030 CURVE SMOOTH",
"422 1103 OFFCURVE",
"486 1139 OFFCURVE",
"559 1140 CURVE SMOOTH",
"658 1140 OFFCURVE",
"769 1102 OFFCURVE",
"890 1027 CURVE",
"969 1102 OFFCURVE",
"1046 1140 OFFCURVE",
"1122 1140 CURVE SMOOTH",
"1197 1140 OFFCURVE",
"1288 1101 OFFCURVE",
"1393 1022 CURVE SMOOTH",
"1498 943 OFFCURVE",
"1550 867 OFFCURVE",
"1550 793 CURVE SMOOTH",
"1550 684 OFFCURVE",
"1467 606 OFFCURVE",
"1300 560 CURVE SMOOTH",
"1133 514 OFFCURVE",
"1050 467 OFFCURVE",
"1050 420 CURVE SMOOTH",
"1050 345 OFFCURVE",
"1090 256 OFFCURVE",
"1170 154 CURVE SMOOTH",
"1249 51 OFFCURVE",
"1343 0 OFFCURVE",
"1450 0 CURVE SMOOTH",
"1503 0 OFFCURVE",
"1550 23 OFFCURVE",
"1590 70 CURVE SMOOTH",
"1630 117 OFFCURVE",
"1650 160 OFFCURVE",
"1650 200 CURVE SMOOTH",
"1650 1035 LINE"
);
},
{
closed = 1;
nodes = (
"1498 406 OFFCURVE",
"1480 417 OFFCURVE",
"1467 440 CURVE SMOOTH",
"1460 451 OFFCURVE",
"1457 460 OFFCURVE",
"1457 469 CURVE SMOOTH",
"1457 478 OFFCURVE",
"1461 486 OFFCURVE",
"1469 493 CURVE SMOOTH",
"1484 506 OFFCURVE",
"1511 530 OFFCURVE",
"1550 567 CURVE",
"1550 450 LINE SMOOTH",
"1550 421 OFFCURVE",
"1540 406 OFFCURVE",
"1519 406 CURVE SMOOTH"
);
},
{
closed = 1;
nodes = (
"2348 406 OFFCURVE",
"2330 417 OFFCURVE",
"2317 440 CURVE SMOOTH",
"2310 451 OFFCURVE",
"2307 460 OFFCURVE",
"2307 469 CURVE SMOOTH",
"2307 478 OFFCURVE",
"2311 486 OFFCURVE",
"2319 493 CURVE SMOOTH",
"2334 506 OFFCURVE",
"2361 530 OFFCURVE",
"2400 567 CURVE",
"2400 450 LINE SMOOTH",
"2400 421 OFFCURVE",
"2390 406 OFFCURVE",
"2369 406 CURVE SMOOTH"
);
},
{
closed = 1;
nodes = (
"2350 -133 OFFCURVE",
"2258 -50 OFFCURVE",
"2074 -50 CURVE SMOOTH",
"1890 -50 OFFCURVE",
"1798 -117 OFFCURVE",
"1798 -250 CURVE SMOOTH",
"1798 -350 OFFCURVE",
"1853 -400 OFFCURVE",
"1963 -400 CURVE SMOOTH",
"2037 -400 OFFCURVE",
"2074 -350 OFFCURVE",
"2074 -250 CURVE",
"2037 -250 OFFCURVE",
"2019 -233 OFFCURVE",
"2019 -200 CURVE SMOOTH",
"2019 -167 OFFCURVE",
"2037 -150 OFFCURVE",
"2074 -150 CURVE SMOOTH",
"2147 -150 OFFCURVE",
"2184 -200 OFFCURVE",
"2184 -300 CURVE SMOOTH",
"2184 -467 OFFCURVE",
"2092 -550 OFFCURVE",
"1908 -550 CURVE SMOOTH",
"1801 -550 OFFCURVE",
"1654 -500 OFFCURVE",
"1468 -400 CURVE SMOOTH",
"1283 -300 OFFCURVE",
"1061 -250 OFFCURVE",
"803 -250 CURVE SMOOTH",
"435 -250 OFFCURVE",
"251 -350 OFFCURVE",
"251 -550 CURVE",
"331 -450 OFFCURVE",
"478 -400 OFFCURVE",
"693 -400 CURVE SMOOTH",
"816 -400 OFFCURVE",
"931 -417 OFFCURVE",
"1040 -450 CURVE",
"1287 -555 OFFCURVE",
"1466 -614 OFFCURVE",
"1577 -628 CURVE SMOOTH",
"1688 -643 OFFCURVE",
"1796 -650 OFFCURVE",
"1908 -650 CURVE SMOOTH",
"2203 -650 OFFCURVE",
"2350 -533 OFFCURVE",
"2350 -300 CURVE SMOOTH"
);
}
);
width = 2650;
}
);
note = uni1789;
unicode = 1789;
},
{
glyphname = uni178A;
lastChange = "2021-03-26 14:05:54 +0000";
layers = (
{
layerId = "B1070C97-2DE4-4FC8-9990-FF316D9539D4";
paths = (
{
closed = 1;
nodes = (
"334 1113 OFFCURVE",
"428 1159 OFFCURVE",
"545 1159 CURVE SMOOTH",
"635 1159 OFFCURVE",
"735 1127 OFFCURVE",
"846 1064 CURVE SMOOTH",
"956 1001 OFFCURVE",
"1066 969 OFFCURVE",
"1176 969 CURVE SMOOTH",
"1385 969 OFFCURVE",
"1650 1201 OFFCURVE",
"1650 1394 CURVE SMOOTH",
"1650 1587 OFFCURVE",
"1481 1699 OFFCURVE",
"1316 1699 CURVE SMOOTH",
"1233 1699 OFFCURVE",
"1174 1665 OFFCURVE",
"1141 1597 CURVE SMOOTH",
"1132 1580 OFFCURVE",
"1128 1564 OFFCURVE",
"1128 1549 CURVE SMOOTH",
"1128 1502 OFFCURVE",
"1167 1461 OFFCURVE",
"1246 1427 CURVE SMOOTH",
"1349 1382 OFFCURVE",
"1401 1333 OFFCURVE",
"1401 1280 CURVE SMOOTH",
"1401 1226 OFFCURVE",
"1380 1199 OFFCURVE",
"1339 1199 CURVE SMOOTH",
"1291 1199 OFFCURVE",
"1198 1249 OFFCURVE",
"1059 1349 CURVE SMOOTH",
"920 1449 OFFCURVE",
"800 1499 OFFCURVE",
"699 1500 CURVE SMOOTH",
"495 1500 OFFCURVE",
"249 1349 OFFCURVE",
"150 1170 CURVE",
"150 650 LINE",
"251 700 OFFCURVE",
"355 725 OFFCURVE",
"461 725 CURVE SMOOTH",
"481 725 LINE SMOOTH",
"594 722 OFFCURVE",
"650 698 OFFCURVE",
"650 653 CURVE SMOOTH",
"650 608 OFFCURVE",
"607 571 OFFCURVE",
"520 543 CURVE SMOOTH",
"433 514 OFFCURVE",
"310 500 OFFCURVE",
"150 500 CURVE",
"177 200 OFFCURVE",
"402 0 OFFCURVE",
"593 0 CURVE SMOOTH",
"688 0 OFFCURVE",
"795 56 OFFCURVE",
"916 167 CURVE",
"1045 56 OFFCURVE",
"1160 0 OFFCURVE",
"1260 0 CURVE SMOOTH",
"1360 0 OFFCURVE",
"1450 61 OFFCURVE",
"1530 183 CURVE SMOOTH",
"1610 305 OFFCURVE",
"1650 498 OFFCURVE",
"1650 761 CURVE",
"1579 598 OFFCURVE",
"1507 491 OFFCURVE",
"1434 439 CURVE SMOOTH",
"1361 386 OFFCURVE",
"1300 360 OFFCURVE",
"1249 360 CURVE SMOOTH",
"1198 360 OFFCURVE",
"1136 413 OFFCURVE",
"1063 518 CURVE",
"958 399 OFFCURVE",
"877 340 OFFCURVE",
"822 340 CURVE SMOOTH",
"711 340 OFFCURVE",
"635 373 OFFCURVE",
"610 440 CURVE",
"743 527 OFFCURVE",
"810 619 OFFCURVE",
"810 718 CURVE SMOOTH",
"810 857 OFFCURVE",
"759 952 OFFCURVE",
"656 1003 CURVE SMOOTH",
"597 1032 OFFCURVE",
"530 1047 OFFCURVE",
"453 1047 CURVE SMOOTH",
"395 1047 OFFCURVE",
"331 1038 OFFCURVE",
"262 1021 CURVE"
);
}
);
width = 1800;
}
);
note = uni178A;
unicode = 178A;
},
{
glyphname = uni178B;
lastChange = "2021-03-26 14:05:54 +0000";
layers = (
{
layerId = "B1070C97-2DE4-4FC8-9990-FF316D9539D4";
paths = (
{
closed = 1;
nodes = (
"1363 0 OFFCURVE",
"1650 288 OFFCURVE",
"1650 601 CURVE SMOOTH",
"1650 767 OFFCURVE",
"1598 888 OFFCURVE",
"1493 965 CURVE SMOOTH",
"1431 1010 OFFCURVE",
"1358 1033 OFFCURVE",
"1274 1033 CURVE SMOOTH",
"1215 1033 OFFCURVE",
"1151 1022 OFFCURVE",
"1081 1000 CURVE",
"1101 1080 OFFCURVE",
"1136 1127 OFFCURVE",
"1185 1140 CURVE SMOOTH",
"1202 1145 OFFCURVE",
"1220 1147 OFFCURVE",
"1238 1147 CURVE SMOOTH",
"1269 1147 OFFCURVE",
"1299 1140 OFFCURVE",
"1329 1125 CURVE SMOOTH",
"1376 1102 OFFCURVE",
"1427 1090 OFFCURVE",
"1482 1090 CURVE SMOOTH",
"1483 1090 OFFCURVE",
"1484 1090 OFFCURVE",
"1485 1091 CURVE",
"1597 1091 OFFCURVE",
"1650 1252 OFFCURVE",
"1650 1484 CURVE SMOOTH",
"1650 1811 OFFCURVE",
"1481 1889 OFFCURVE",
"1316 1889 CURVE SMOOTH",
"1233 1889 OFFCURVE",
"1183 1848 OFFCURVE",
"1168 1765 CURVE SMOOTH",
"1165 1753 OFFCURVE",
"1164 1742 OFFCURVE",
"1164 1731 CURVE SMOOTH",
"1164 1665 OFFCURVE",
"1205 1616 OFFCURVE",
"1287 1583 CURVE",
"1322 1590 OFFCURVE",
"1353 1594 OFFCURVE",
"1379 1594 CURVE SMOOTH",
"1460 1594 OFFCURVE",
"1500 1559 OFFCURVE",
"1500 1489 CURVE SMOOTH",
"1500 1461 OFFCURVE",
"1489 1442 OFFCURVE",
"1467 1433 CURVE SMOOTH",
"1461 1430 OFFCURVE",
"1454 1429 OFFCURVE",
"1447 1429 CURVE SMOOTH",
"1427 1429 OFFCURVE",
"1402 1439 OFFCURVE",
"1372 1459 CURVE SMOOTH",
"1331 1486 OFFCURVE",
"1298 1500 OFFCURVE",
"1274 1500 CURVE SMOOTH",
"1226 1500 OFFCURVE",
"980 1325 OFFCURVE",
"980 1224 CURVE SMOOTH",
"980 650 LINE",
"1095 683 OFFCURVE",
"1190 700 OFFCURVE",
"1265 700 CURVE SMOOTH",
"1310 700 OFFCURVE",
"1347 694 OFFCURVE",
"1378 683 CURVE SMOOTH",
"1459 651 OFFCURVE",
"1500 617 OFFCURVE",
"1500 580 CURVE SMOOTH",
"1500 393 OFFCURVE",
"1323 320 OFFCURVE",
"1050 320 CURVE SMOOTH",
"923 320 OFFCURVE",
"821 332 OFFCURVE",
"744 355 CURVE SMOOTH",
"667 378 OFFCURVE",
"623 407 OFFCURVE",
"610 440 CURVE",
"785 668 OFFCURVE",
"840 925 OFFCURVE",
"840 1068 CURVE SMOOTH",
"840 1356 OFFCURVE",
"728 1500 OFFCURVE",
"481 1500 CURVE SMOOTH",
"394 1500 OFFCURVE",
"317 1462 OFFCURVE",
"250 1385 CURVE SMOOTH",
"183 1308 OFFCURVE",
"150 1203 OFFCURVE",
"150 1070 CURVE SMOOTH",
"150 810 OFFCURVE",
"276 700 OFFCURVE",
"403 700 CURVE SMOOTH",
"466 700 OFFCURVE",
"520 727 OFFCURVE",
"564 780 CURVE SMOOTH",
"596 819 OFFCURVE",
"612 864 OFFCURVE",
"612 913 CURVE SMOOTH",
"612 931 OFFCURVE",
"610 950 OFFCURVE",
"606 970 CURVE SMOOTH",
"590 1043 OFFCURVE",
"555 1096 OFFCURVE",
"500 1130 CURVE",
"467 1097 OFFCURVE",
"427 1080 OFFCURVE",
"381 1080 CURVE SMOOTH",
"328 1080 OFFCURVE",
"301 1105 OFFCURVE",
"301 1155 CURVE SMOOTH",
"301 1205 OFFCURVE",
"351 1230 OFFCURVE",
"450 1230 CURVE SMOOTH",
"577 1230 OFFCURVE",
"680 1079 OFFCURVE",
"680 938 CURVE SMOOTH",
"680 893 OFFCURVE",
"661 739 OFFCURVE",
"506 631 CURVE SMOOTH",
"429 577 OFFCURVE",
"310 550 OFFCURVE",
"150 550 CURVE",
"177 183 OFFCURVE",
"417 0 OFFCURVE",
"910 0 CURVE SMOOTH"
);
}
);
width = 1800;
}
);
note = uni178B;
unicode = 178B;
},
{
glyphname = uni178C;
lastChange = "2021-03-26 14:05:54 +0000";
layers = (
{
layerId = "B1070C97-2DE4-4FC8-9990-FF316D9539D4";
paths = (
{
closed = 1;
nodes = (
"1297 981 OFFCURVE",
"1181 883 OFFCURVE",
"949 762 CURVE SMOOTH",
"716 641 OFFCURVE",
"450 570 OFFCURVE",
"150 550 CURVE",
"150 428 LINE SMOOTH",
"150 346 OFFCURVE",
"217 254 OFFCURVE",
"350 152 CURVE SMOOTH",
"483 51 OFFCURVE",
"633 0 OFFCURVE",
"800 0 CURVE SMOOTH",
"1033 0 OFFCURVE",
"1203 98 OFFCURVE",
"1310 294 CURVE",
"1310 98 OFFCURVE",
"1293 0 OFFCURVE",
"1260 0 CURVE",
"1325 -17 OFFCURVE",
"1381 -25 OFFCURVE",
"1430 -25 CURVE SMOOTH",
"1576 -25 OFFCURVE",
"1649 50 OFFCURVE",
"1650 200 CURVE SMOOTH",
"1650 630 LINE SMOOTH",
"1650 669 OFFCURVE",
"1624 688 OFFCURVE",
"1572 688 CURVE SMOOTH",
"1515 688 OFFCURVE",
"1428 665 OFFCURVE",
"1310 620 CURVE",
"1310 427 OFFCURVE",
"1173 310 OFFCURVE",
"890 310 CURVE SMOOTH",
"742 310 OFFCURVE",
"665 363 OFFCURVE",
"640 430 CURVE",
"847 497 OFFCURVE",
"1037 576 OFFCURVE",
"1212 669 CURVE SMOOTH",
"1387 762 OFFCURVE",
"1504 842 OFFCURVE",
"1562 909 CURVE SMOOTH",
"1621 976 OFFCURVE",
"1650 1058 OFFCURVE",
"1650 1153 CURVE SMOOTH",
"1650 1337 OFFCURVE",
"1418 1500 OFFCURVE",
"1241 1500 CURVE SMOOTH",
"1152 1500 OFFCURVE",
"1065 1448 OFFCURVE",
"980 1343 CURVE",
"809 1462 OFFCURVE",
"740 1500 OFFCURVE",
"619 1500 CURVE SMOOTH",
"498 1500 OFFCURVE",
"150 1303 OFFCURVE",
"150 1051 CURVE SMOOTH",
"150 948 OFFCURVE",
"176 863 OFFCURVE",
"229 798 CURVE SMOOTH",
"282 733 OFFCURVE",
"356 700 OFFCURVE",
"451 700 CURVE SMOOTH",
"677 700 OFFCURVE",
"790 763 OFFCURVE",
"790 889 CURVE SMOOTH",
"790 1003 OFFCURVE",
"721 1060 OFFCURVE",
"584 1060 CURVE SMOOTH",
"487 1060 OFFCURVE",
"425 1007 OFFCURVE",
"399 900 CURVE",
"359 900 OFFCURVE",
"339 915 OFFCURVE",
"339 945 CURVE SMOOTH",
"339 990 LINE SMOOTH",
"339 1117 OFFCURVE",
"391 1180 OFFCURVE",
"494 1180 CURVE SMOOTH",
"611 1180 OFFCURVE",
"741 1124 OFFCURVE",
"883 1013 CURVE",
"956 1124 OFFCURVE",
"1030 1180 OFFCURVE",
"1104 1180 CURVE SMOOTH",
"1199 1180 OFFCURVE",
"1263 1139 OFFCURVE",
"1297 1056 CURVE"
);
}
);
width = 1800;
}
);
note = uni178C;
unicode = 178C;
},
{
glyphname = uni178D;
lastChange = "2021-03-26 14:05:54 +0000";
layers = (
{
layerId = "B1070C97-2DE4-4FC8-9990-FF316D9539D4";
paths = (
{
closed = 1;
nodes = (
"800 788 OFFCURVE",
"726 903 OFFCURVE",
"577 903 CURVE SMOOTH",
"442 903 OFFCURVE",
"375 824 OFFCURVE",
"375 665 CURVE SMOOTH",
"375 546 OFFCURVE",
"422 487 OFFCURVE",
"517 487 CURVE SMOOTH",
"568 487 OFFCURVE",
"602 497 OFFCURVE",
"620 518 CURVE SMOOTH",
"629 529 OFFCURVE",
"639 535 OFFCURVE",
"650 535 CURVE SMOOTH",
"657 535 OFFCURVE",
"665 532 OFFCURVE",
"673 525 CURVE SMOOTH",
"691 509 OFFCURVE",
"700 488 OFFCURVE",
"700 461 CURVE SMOOTH",
"700 415 OFFCURVE",
"650 387 OFFCURVE",
"550 377 CURVE SMOOTH",
"538 376 OFFCURVE",
"526 375 OFFCURVE",
"514 375 CURVE SMOOTH",
"433 375 OFFCURVE",
"375 406 OFFCURVE",
"340 469 CURVE SMOOTH",
"300 540 OFFCURVE",
"280 634 OFFCURVE",
"280 750 CURVE SMOOTH",
"280 863 OFFCURVE",
"308 957 OFFCURVE",
"365 1030 CURVE SMOOTH",
"422 1103 OFFCURVE",
"486 1139 OFFCURVE",
"559 1140 CURVE SMOOTH",
"658 1140 OFFCURVE",
"769 1102 OFFCURVE",
"890 1027 CURVE",
"969 1102 OFFCURVE",
"1046 1140 OFFCURVE",
"1122 1140 CURVE SMOOTH",
"1273 1140 OFFCURVE",
"1550 941 OFFCURVE",
"1550 793 CURVE SMOOTH",
"1550 600 LINE",
"1385 600 LINE SMOOTH",
"1260 600 OFFCURVE",
"1149 550 OFFCURVE",
"1050 450 CURVE",
"1050 355 OFFCURVE",
"1090 256 OFFCURVE",
"1170 154 CURVE SMOOTH",
"1249 51 OFFCURVE",
"1343 0 OFFCURVE",
"1450 0 CURVE SMOOTH",
"1503 0 OFFCURVE",
"1570 47 OFFCURVE",
"1650 140 CURVE",
"1650 450 LINE",
"1703 450 OFFCURVE",
"1741 407 OFFCURVE",
"1764 322 CURVE",
"1788 107 OFFCURVE",
"1905 0 OFFCURVE",
"2115 0 CURVE SMOOTH",
"2348 0 OFFCURVE",
"2550 239 OFFCURVE",
"2550 588 CURVE SMOOTH",
"2550 763 OFFCURVE",
"2498 888 OFFCURVE",
"2393 965 CURVE SMOOTH",
"2331 1010 OFFCURVE",
"2258 1033 OFFCURVE",
"2174 1033 CURVE SMOOTH",
"2115 1033 OFFCURVE",
"2051 1022 OFFCURVE",
"1981 1000 CURVE",
"2001 1080 OFFCURVE",
"2036 1127 OFFCURVE",
"2085 1140 CURVE SMOOTH",
"2102 1145 OFFCURVE",
"2120 1147 OFFCURVE",
"2138 1147 CURVE SMOOTH",
"2169 1147 OFFCURVE",
"2199 1140 OFFCURVE",
"2229 1125 CURVE SMOOTH",
"2276 1102 OFFCURVE",
"2327 1090 OFFCURVE",
"2382 1090 CURVE SMOOTH",
"2383 1090 OFFCURVE",
"2384 1090 OFFCURVE",
"2385 1091 CURVE",
"2441 1091 OFFCURVE",
"2495 1182 OFFCURVE",
"2548 1364 CURVE",
"2487 1364 OFFCURVE",
"2416 1387 OFFCURVE",
"2334 1432 CURVE SMOOTH",
"2251 1477 OFFCURVE",
"2198 1500 OFFCURVE",
"2174 1500 CURVE SMOOTH",
"2126 1500 OFFCURVE",
"1880 1325 OFFCURVE",
"1880 1224 CURVE SMOOTH",
"1880 650 LINE",
"1995 683 OFFCURVE",
"2091 700 OFFCURVE",
"2166 700 CURVE SMOOTH",
"2210 700 OFFCURVE",
"2247 694 OFFCURVE",
"2278 683 CURVE SMOOTH",
"2359 651 OFFCURVE",
"2400 613 OFFCURVE",
"2400 568 CURVE SMOOTH",
"2400 503 OFFCURVE",
"2376 445 OFFCURVE",
"2328 395 CURVE SMOOTH",
"2279 345 OFFCURVE",
"2203 320 OFFCURVE",
"2098 320 CURVE SMOOTH",
"2006 320 OFFCURVE",
"1947 349 OFFCURVE",
"1920 408 CURVE SMOOTH",
"1893 466 OFFCURVE",
"1856 513 OFFCURVE",
"1810 548 CURVE SMOOTH",
"1763 583 OFFCURVE",
"1710 600 OFFCURVE",
"1650 600 CURVE",
"1650 1170 LINE SMOOTH",
"1650 1239 OFFCURVE",
"1600 1312 OFFCURVE",
"1500 1387 CURVE SMOOTH",
"1408 1456 OFFCURVE",
"1318 1491 OFFCURVE",
"1229 1491 CURVE SMOOTH",
"1221 1491 OFFCURVE",
"1213 1491 OFFCURVE",
"1205 1490 CURVE SMOOTH",
"1135 1483 OFFCURVE",
"1057 1422 OFFCURVE",
"970 1305 CURVE",
"861 1413 OFFCURVE",
"733 1500 OFFCURVE",
"588 1500 CURVE SMOOTH",
"475 1500 OFFCURVE",
"374 1435 OFFCURVE",
"285 1305 CURVE SMOOTH",
"195 1175 OFFCURVE",
"150 990 OFFCURVE",
"150 750 CURVE SMOOTH",
"150 250 OFFCURVE",
"277 0 OFFCURVE",
"531 0 CURVE SMOOTH",
"710 0 OFFCURVE",
"800 186 OFFCURVE",
"800 558 CURVE SMOOTH"
);
},
{
closed = 1;
nodes = (
"1550 371 OFFCURVE",
"1540 356 OFFCURVE",
"1519 356 CURVE SMOOTH",
"1498 356 OFFCURVE",
"1480 367 OFFCURVE",
"1467 390 CURVE SMOOTH",
"1460 401 OFFCURVE",
"1457 410 OFFCURVE",
"1457 418 CURVE SMOOTH",
"1457 426 OFFCURVE",
"1461 432 OFFCURVE",
"1469 437 CURVE SMOOTH",
"1484 446 OFFCURVE",
"1511 450 OFFCURVE",
"1550 450 CURVE",
"1550 400 LINE SMOOTH"
);
}
);
width = 2700;
}
);
note = uni178D;
unicode = 178D;
},
{
glyphname = uni178E;
lastChange = "2021-03-26 14:05:54 +0000";
layers = (
{
layerId = "B1070C97-2DE4-4FC8-9990-FF316D9539D4";
paths = (
{
closed = 1;
nodes = (
"856 1190 OFFCURVE",
"1040 1112 OFFCURVE",
"1148 917 CURVE",
"909 768 OFFCURVE",
"790 629 OFFCURVE",
"790 500 CURVE",
"817 200 OFFCURVE",
"1032 0 OFFCURVE",
"1223 0 CURVE SMOOTH",
"1304 0 OFFCURVE",
"1409 56 OFFCURVE",
"1536 167 CURVE",
"1639 56 OFFCURVE",
"1740 0 OFFCURVE",
"1840 0 CURVE SMOOTH",
"2040 0 OFFCURVE",
"2290 194 OFFCURVE",
"2290 601 CURVE SMOOTH",
"2290 767 OFFCURVE",
"2244 888 OFFCURVE",
"2153 965 CURVE SMOOTH",
"2099 1010 OFFCURVE",
"2031 1033 OFFCURVE",
"1950 1033 CURVE SMOOTH",
"1894 1033 OFFCURVE",
"1831 1022 OFFCURVE",
"1761 1000 CURVE",
"1796 1067 OFFCURVE",
"1854 1115 OFFCURVE",
"1937 1145 CURVE SMOOTH",
"2019 1175 OFFCURVE",
"2107 1190 OFFCURVE",
"2201 1190 CURVE SMOOTH",
"2314 1190 OFFCURVE",
"2464 1142 OFFCURVE",
"2651 1047 CURVE SMOOTH",
"2837 952 OFFCURVE",
"2930 867 OFFCURVE",
"2930 793 CURVE SMOOTH",
"2930 684 OFFCURVE",
"2847 606 OFFCURVE",
"2680 560 CURVE SMOOTH",
"2513 514 OFFCURVE",
"2430 467 OFFCURVE",
"2430 420 CURVE SMOOTH",
"2430 345 OFFCURVE",
"2470 256 OFFCURVE",
"2550 154 CURVE SMOOTH",
"2629 51 OFFCURVE",
"2723 0 OFFCURVE",
"2830 0 CURVE SMOOTH",
"2883 0 OFFCURVE",
"2930 23 OFFCURVE",
"2970 70 CURVE SMOOTH",
"3010 117 OFFCURVE",
"3030 160 OFFCURVE",
"3030 200 CURVE SMOOTH",
"3030 1170 LINE SMOOTH",
"3030 1309 OFFCURVE",
"2636 1500 OFFCURVE",
"2276 1500 CURVE SMOOTH",
"1983 1500 OFFCURVE",
"1660 1275 OFFCURVE",
"1660 1174 CURVE SMOOTH",
"1660 650 LINE",
"1775 683 OFFCURVE",
"1868 700 OFFCURVE",
"1937 700 CURVE SMOOTH",
"1978 700 OFFCURVE",
"2012 694 OFFCURVE",
"2038 683 CURVE SMOOTH",
"2106 651 OFFCURVE",
"2140 617 OFFCURVE",
"2140 580 CURVE SMOOTH",
"2140 443 OFFCURVE",
"1997 360 OFFCURVE",
"1869 360 CURVE SMOOTH",
"1805 360 OFFCURVE",
"1736 413 OFFCURVE",
"1663 518 CURVE",
"1584 399 OFFCURVE",
"1514 340 OFFCURVE",
"1452 340 CURVE SMOOTH",
"1328 340 OFFCURVE",
"1215 374 OFFCURVE",
"1128 577 CURVE",
"1128 661 OFFCURVE",
"1189 742 OFFCURVE",
"1312 819 CURVE SMOOTH",
"1434 896 OFFCURVE",
"1495 964 OFFCURVE",
"1496 1021 CURVE",
"1393 1340 OFFCURVE",
"1051 1500 OFFCURVE",
"772 1500 CURVE SMOOTH",
"427 1500 OFFCURVE",
"243 1308 OFFCURVE",
"150 1116 CURVE",
"150 670 LINE",
"192 709 OFFCURVE",
"250 728 OFFCURVE",
"324 728 CURVE SMOOTH",
"397 728 OFFCURVE",
"439 691 OFFCURVE",
"450 616 CURVE",
"319 567 OFFCURVE",
"237 514 OFFCURVE",
"202 457 CURVE SMOOTH",
"167 399 OFFCURVE",
"150 340 OFFCURVE",
"150 280 CURVE SMOOTH",
"150 93 OFFCURVE",
"242 0 OFFCURVE",
"425 0 CURVE SMOOTH",
"608 0 OFFCURVE",
"700 90 OFFCURVE",
"700 270 CURVE SMOOTH",
"700 377 OFFCURVE",
"652 430 OFFCURVE",
"557 430 CURVE SMOOTH",
"521 430 OFFCURVE",
"490 408 OFFCURVE",
"465 364 CURVE SMOOTH",
"448 334 OFFCURVE",
"430 319 OFFCURVE",
"413 319 CURVE SMOOTH",
"404 319 OFFCURVE",
"395 323 OFFCURVE",
"386 330 CURVE SMOOTH",
"381 334 OFFCURVE",
"378 339 OFFCURVE",
"378 346 CURVE SMOOTH",
"378 374 OFFCURVE",
"424 424 OFFCURVE",
"516 496 CURVE SMOOTH",
"605 565 OFFCURVE",
"650 639 OFFCURVE",
"650 718 CURVE SMOOTH",
"650 857 OFFCURVE",
"612 948 OFFCURVE",
"537 993 CURVE SMOOTH",
"489 1021 OFFCURVE",
"436 1035 OFFCURVE",
"377 1035 CURVE SMOOTH",
"342 1035 OFFCURVE",
"306 1030 OFFCURVE",
"268 1021 CURVE",
"317 1062 OFFCURVE",
"369 1101 OFFCURVE",
"425 1137 CURVE SMOOTH",
"480 1172 OFFCURVE",
"562 1190 OFFCURVE",
"669 1190 CURVE SMOOTH"
);
},
{
closed = 1;
nodes = (
"2840 451 OFFCURVE",
"2837 460 OFFCURVE",
"2837 469 CURVE SMOOTH",
"2837 478 OFFCURVE",
"2841 486 OFFCURVE",
"2849 493 CURVE SMOOTH",
"2864 506 OFFCURVE",
"2891 530 OFFCURVE",
"2930 567 CURVE",
"2930 450 LINE SMOOTH",
"2930 421 OFFCURVE",
"2920 406 OFFCURVE",
"2899 406 CURVE SMOOTH",
"2878 406 OFFCURVE",
"2860 417 OFFCURVE",
"2847 440 CURVE SMOOTH"
);
}
);
width = 3180;
}
);
note = uni178E;
unicode = 178E;
},
{
glyphname = uni178F;
lastChange = "2021-03-26 14:05:54 +0000";
layers = (
{
layerId = "B1070C97-2DE4-4FC8-9990-FF316D9539D4";
paths = (
{
closed = 1;
nodes = (
"458 1140 OFFCURVE",
"376 1189 OFFCURVE",
"307 1194 CURVE",
"354 1219 OFFCURVE",
"390 1232 OFFCURVE",
"417 1232 CURVE SMOOTH",
"443 1232 OFFCURVE",
"501 1204 OFFCURVE",
"592 1148 CURVE SMOOTH",
"683 1092 OFFCURVE",
"749 1064 OFFCURVE",
"792 1064 CURVE SMOOTH",
"834 1064 OFFCURVE",
"888 1090 OFFCURVE",
"953 1142 CURVE SMOOTH",
"1018 1194 OFFCURVE",
"1064 1220 OFFCURVE",
"1091 1220 CURVE SMOOTH",
"1118 1220 OFFCURVE",
"1177 1197 OFFCURVE",
"1270 1150 CURVE SMOOTH",
"1362 1103 OFFCURVE",
"1444 1080 OFFCURVE",
"1515 1080 CURVE SMOOTH",
"1600 1080 OFFCURVE",
"1678 1170 OFFCURVE",
"1750 1350 CURVE",
"1671 1350 OFFCURVE",
"1586 1375 OFFCURVE",
"1493 1425 CURVE SMOOTH",
"1400 1475 OFFCURVE",
"1333 1500 OFFCURVE",
"1291 1500 CURVE SMOOTH",
"1248 1500 OFFCURVE",
"1191 1470 OFFCURVE",
"1119 1410 CURVE SMOOTH",
"1047 1350 OFFCURVE",
"995 1320 OFFCURVE",
"964 1320 CURVE SMOOTH",
"933 1320 OFFCURVE",
"871 1350 OFFCURVE",
"780 1410 CURVE SMOOTH",
"688 1470 OFFCURVE",
"613 1500 OFFCURVE",
"554 1500 CURVE SMOOTH",
"495 1500 OFFCURVE",
"360 1420 OFFCURVE",
"150 1260 CURVE",
"150 1014 LINE",
"169 1017 OFFCURVE",
"187 1018 OFFCURVE",
"206 1018 CURVE SMOOTH",
"261 1018 OFFCURVE",
"315 1006 OFFCURVE",
"368 981 CURVE",
"552 1047 LINE"
);
},
{
closed = 1;
nodes = (
"476 1060 OFFCURVE",
"150 915 OFFCURVE",
"150 495 CURVE SMOOTH",
"150 165 OFFCURVE",
"297 0 OFFCURVE",
"590 0 CURVE SMOOTH",
"709 0 OFFCURVE",
"802 52 OFFCURVE",
"868 157 CURVE SMOOTH",
"907 219 OFFCURVE",
"926 282 OFFCURVE",
"926 347 CURVE SMOOTH",
"926 392 OFFCURVE",
"917 437 OFFCURVE",
"899 483 CURVE SMOOTH",
"859 585 OFFCURVE",
"779 636 OFFCURVE",
"658 636 CURVE SMOOTH",
"645 636 OFFCURVE",
"631 635 OFFCURVE",
"616 634 CURVE SMOOTH",
"472 621 OFFCURVE",
"400 563 OFFCURVE",
"400 461 CURVE SMOOTH",
"400 362 OFFCURVE",
"461 312 OFFCURVE",
"582 312 CURVE SMOOTH",
"594 312 LINE",
"585 277 OFFCURVE",
"567 260 OFFCURVE",
"538 260 CURVE SMOOTH",
"379 260 OFFCURVE",
"300 313 OFFCURVE",
"300 420 CURVE SMOOTH",
"300 633 OFFCURVE",
"461 710 OFFCURVE",
"796 710 CURVE SMOOTH",
"963 710 OFFCURVE",
"1203 684 OFFCURVE",
"1517 633 CURVE",
"1344 524 OFFCURVE",
"1189 463 OFFCURVE",
"1050 450 CURVE",
"1050 355 OFFCURVE",
"1090 256 OFFCURVE",
"1170 154 CURVE SMOOTH",
"1249 51 OFFCURVE",
"1343 0 OFFCURVE",
"1450 0 CURVE SMOOTH",
"1503 0 OFFCURVE",
"1570 47 OFFCURVE",
"1650 140 CURVE",
"1650 980 LINE",
"1298 1033 OFFCURVE",
"1030 1060 OFFCURVE",
"845 1060 CURVE SMOOTH"
);
},
{
closed = 1;
nodes = (
"1460 451 OFFCURVE",
"1457 460 OFFCURVE",
"1457 469 CURVE SMOOTH",
"1457 478 OFFCURVE",
"1461 486 OFFCURVE",
"1469 493 CURVE SMOOTH",
"1484 506 OFFCURVE",
"1511 530 OFFCURVE",
"1550 567 CURVE",
"1550 450 LINE SMOOTH",
"1550 421 OFFCURVE",
"1540 406 OFFCURVE",
"1519 406 CURVE SMOOTH",
"1498 406 OFFCURVE",
"1480 417 OFFCURVE",
"1467 440 CURVE SMOOTH"
);
}
);
width = 1800;
}
);
note = uni178F;
unicode = 178F;
},
{
glyphname = uni1790;
lastChange = "2021-03-26 14:05:54 +0000";
layers = (
{
layerId = "B1070C97-2DE4-4FC8-9990-FF316D9539D4";
paths = (
{
closed = 1;
nodes = (
"258 697 OFFCURVE",
"368 723 OFFCURVE",
"481 730 CURVE SMOOTH",
"496 731 OFFCURVE",
"509 731 OFFCURVE",
"522 731 CURVE SMOOTH",
"607 731 OFFCURVE",
"650 712 OFFCURVE",
"650 673 CURVE SMOOTH",
"650 628 OFFCURVE",
"607 588 OFFCURVE",
"520 553 CURVE SMOOTH",
"433 518 OFFCURVE",
"310 500 OFFCURVE",
"150 500 CURVE",
"177 200 OFFCURVE",
"417 0 OFFCURVE",
"910 0 CURVE SMOOTH",
"1363 0 OFFCURVE",
"1650 288 OFFCURVE",
"1650 600 CURVE SMOOTH",
"1650 833 OFFCURVE",
"1517 950 OFFCURVE",
"1250 950 CURVE SMOOTH",
"1165 950 OFFCURVE",
"1077 914 OFFCURVE",
"1032 849 CURVE SMOOTH",
"1009 816 OFFCURVE",
"998 782 OFFCURVE",
"998 747 CURVE SMOOTH",
"998 678 OFFCURVE",
"1044 607 OFFCURVE",
"1125 572 CURVE SMOOTH",
"1165 554 OFFCURVE",
"1207 545 OFFCURVE",
"1250 545 CURVE SMOOTH",
"1337 545 OFFCURVE",
"1425 582 OFFCURVE",
"1469 647 CURVE SMOOTH",
"1478 660 OFFCURVE",
"1486 674 OFFCURVE",
"1491 687 CURVE",
"1497 661 OFFCURVE",
"1500 632 OFFCURVE",
"1500 600 CURVE SMOOTH",
"1500 463 OFFCURVE",
"1323 320 OFFCURVE",
"1050 320 CURVE SMOOTH",
"923 320 OFFCURVE",
"821 332 OFFCURVE",
"744 355 CURVE SMOOTH",
"667 378 OFFCURVE",
"623 407 OFFCURVE",
"610 440 CURVE",
"743 527 OFFCURVE",
"810 619 OFFCURVE",
"810 718 CURVE SMOOTH",
"810 857 OFFCURVE",
"759 955 OFFCURVE",
"656 1013 CURVE SMOOTH",
"602 1043 OFFCURVE",
"536 1058 OFFCURVE",
"457 1058 CURVE SMOOTH",
"402 1058 OFFCURVE",
"341 1051 OFFCURVE",
"274 1036 CURVE",
"345 1118 OFFCURVE",
"435 1159 OFFCURVE",
"545 1159 CURVE SMOOTH",
"635 1159 OFFCURVE",
"735 1137 OFFCURVE",
"846 1094 CURVE SMOOTH",
"956 1051 OFFCURVE",
"1066 1029 OFFCURVE",
"1176 1029 CURVE SMOOTH",
"1385 1029 OFFCURVE",
"1650 1261 OFFCURVE",
"1650 1454 CURVE SMOOTH",
"1650 1647 OFFCURVE",
"1481 1759 OFFCURVE",
"1316 1759 CURVE SMOOTH",
"1233 1759 OFFCURVE",
"1174 1725 OFFCURVE",
"1141 1657 CURVE SMOOTH",
"1132 1640 OFFCURVE",
"1128 1624 OFFCURVE",
"1128 1609 CURVE SMOOTH",
"1128 1562 OFFCURVE",
"1167 1521 OFFCURVE",
"1246 1487 CURVE SMOOTH",
"1349 1442 OFFCURVE",
"1401 1393 OFFCURVE",
"1401 1340 CURVE SMOOTH",
"1401 1286 OFFCURVE",
"1380 1259 OFFCURVE",
"1339 1259 CURVE SMOOTH",
"1291 1259 OFFCURVE",
"1198 1299 OFFCURVE",
"1059 1379 CURVE SMOOTH",
"920 1459 OFFCURVE",
"800 1499 OFFCURVE",
"699 1500 CURVE SMOOTH",
"495 1500 OFFCURVE",
"249 1349 OFFCURVE",
"150 1170 CURVE",
"150 650 LINE"
);
}
);
width = 1800;
}
);
note = uni1790;
unicode = 1790;
},
{
glyphname = uni1791;
lastChange = "2021-03-26 14:05:54 +0000";
layers = (
{
layerId = "B1070C97-2DE4-4FC8-9990-FF316D9539D4";
paths = (
{
closed = 1;
nodes = (
"737 492 OFFCURVE",
"810 599 OFFCURVE",
"810 718 CURVE SMOOTH",
"810 857 OFFCURVE",
"759 948 OFFCURVE",
"656 993 CURVE SMOOTH",
"591 1021 OFFCURVE",
"519 1035 OFFCURVE",
"442 1035 CURVE SMOOTH",
"397 1035 OFFCURVE",
"351 1030 OFFCURVE",
"302 1021 CURVE",
"426 1104 OFFCURVE",
"565 1190 OFFCURVE",
"953 1190 CURVE SMOOTH",
"1102 1190 OFFCURVE",
"1231 1169 OFFCURVE",
"1339 1126 CURVE SMOOTH",
"1447 1083 OFFCURVE",
"1501 1040 OFFCURVE",
"1501 995 CURVE SMOOTH",
"1501 960 OFFCURVE",
"1473 942 OFFCURVE",
"1418 942 CURVE SMOOTH",
"1412 942 LINE SMOOTH",
"1357 943 OFFCURVE",
"1330 965 OFFCURVE",
"1330 1007 CURVE SMOOTH",
"1330 1012 OFFCURVE",
"1330 1016 OFFCURVE",
"1331 1021 CURVE",
"1298 1067 OFFCURVE",
"1240 1090 OFFCURVE",
"1155 1090 CURVE SMOOTH",
"1151 1090 LINE SMOOTH",
"1024 1090 OFFCURVE",
"960 1022 OFFCURVE",
"960 885 CURVE SMOOTH",
"960 748 OFFCURVE",
"1061 680 OFFCURVE",
"1264 680 CURVE SMOOTH",
"1515 680 OFFCURVE",
"1650 872 OFFCURVE",
"1650 1008 CURVE SMOOTH",
"1650 1251 OFFCURVE",
"1337 1500 OFFCURVE",
"949 1500 CURVE SMOOTH",
"522 1500 OFFCURVE",
"270 1308 OFFCURVE",
"150 1116 CURVE",
"150 650 LINE",
"258 683 OFFCURVE",
"368 703 OFFCURVE",
"481 710 CURVE SMOOTH",
"496 711 OFFCURVE",
"509 711 OFFCURVE",
"522 711 CURVE SMOOTH",
"607 711 OFFCURVE",
"650 692 OFFCURVE",
"650 653 CURVE SMOOTH",
"650 608 OFFCURVE",
"615 571 OFFCURVE",
"545 543 CURVE SMOOTH",
"475 514 OFFCURVE",
"377 500 OFFCURVE",
"250 500 CURVE SMOOTH",
"150 500 LINE",
"150 368 LINE SMOOTH",
"150 279 OFFCURVE",
"198 196 OFFCURVE",
"295 118 CURVE SMOOTH",
"392 39 OFFCURVE",
"500 0 OFFCURVE",
"620 0 CURVE SMOOTH",
"800 0 OFFCURVE",
"928 72 OFFCURVE",
"1005 215 CURVE SMOOTH",
"1082 358 OFFCURVE",
"1163 430 OFFCURVE",
"1250 430 CURVE SMOOTH",
"1350 430 OFFCURVE",
"1400 408 OFFCURVE",
"1400 365 CURVE SMOOTH",
"1400 335 OFFCURVE",
"1383 320 OFFCURVE",
"1350 320 CURVE SMOOTH",
"1317 320 OFFCURVE",
"1300 337 OFFCURVE",
"1300 370 CURVE",
"1233 370 OFFCURVE",
"1183 353 OFFCURVE",
"1150 320 CURVE",
"1117 307 OFFCURVE",
"1100 267 OFFCURVE",
"1100 200 CURVE SMOOTH",
"1100 133 OFFCURVE",
"1121 83 OFFCURVE",
"1162 50 CURVE SMOOTH",
"1204 17 OFFCURVE",
"1267 0 OFFCURVE",
"1350 0 CURVE SMOOTH",
"1517 0 OFFCURVE",
"1650 154 OFFCURVE",
"1650 319 CURVE SMOOTH",
"1650 484 OFFCURVE",
"1487 620 OFFCURVE",
"1320 620 CURVE SMOOTH",
"1187 620 OFFCURVE",
"1068 572 OFFCURVE",
"965 475 CURVE SMOOTH",
"861 378 OFFCURVE",
"781 330 OFFCURVE",
"724 330 CURVE SMOOTH",
"674 330 OFFCURVE",
"630 352 OFFCURVE",
"591 395 CURVE"
);
}
);
width = 1800;
}
);
note = uni1791;
unicode = 1791;
},
{
glyphname = uni1792;
lastChange = "2021-03-26 14:05:54 +0000";
layers = (
{
layerId = "B1070C97-2DE4-4FC8-9990-FF316D9539D4";
paths = (
{
closed = 1;
nodes = (
"1500 473 OFFCURVE",
"1350 360 OFFCURVE",
"1249 360 CURVE SMOOTH",
"1198 360 OFFCURVE",
"1136 413 OFFCURVE",
"1063 518 CURVE",
"958 399 OFFCURVE",
"877 340 OFFCURVE",
"822 340 CURVE SMOOTH",
"711 340 OFFCURVE",
"635 373 OFFCURVE",
"610 440 CURVE",
"743 527 OFFCURVE",
"810 619 OFFCURVE",
"810 718 CURVE SMOOTH",
"810 857 OFFCURVE",
"759 955 OFFCURVE",
"656 1013 CURVE SMOOTH",
"602 1043 OFFCURVE",
"536 1058 OFFCURVE",
"457 1058 CURVE SMOOTH",
"397 1058 OFFCURVE",
"330 1049 OFFCURVE",
"256 1032 CURVE",
"285 1079 OFFCURVE",
"316 1113 OFFCURVE",
"349 1136 CURVE SMOOTH",
"394 1167 OFFCURVE",
"435 1182 OFFCURVE",
"474 1182 CURVE SMOOTH",
"499 1182 OFFCURVE",
"545 1162 OFFCURVE",
"610 1123 CURVE SMOOTH",
"675 1084 OFFCURVE",
"729 1064 OFFCURVE",
"770 1064 CURVE SMOOTH",
"811 1064 OFFCURVE",
"863 1087 OFFCURVE",
"926 1132 CURVE SMOOTH",
"989 1177 OFFCURVE",
"1034 1200 OFFCURVE",
"1060 1200 CURVE SMOOTH",
"1086 1200 OFFCURVE",
"1144 1180 OFFCURVE",
"1234 1140 CURVE SMOOTH",
"1323 1100 OFFCURVE",
"1403 1080 OFFCURVE",
"1472 1080 CURVE SMOOTH",
"1554 1080 OFFCURVE",
"1630 1170 OFFCURVE",
"1700 1350 CURVE",
"1623 1350 OFFCURVE",
"1540 1375 OFFCURVE",
"1451 1425 CURVE SMOOTH",
"1361 1475 OFFCURVE",
"1295 1500 OFFCURVE",
"1254 1500 CURVE SMOOTH",
"1213 1500 OFFCURVE",
"1157 1470 OFFCURVE",
"1088 1410 CURVE SMOOTH",
"1018 1350 OFFCURVE",
"968 1320 OFFCURVE",
"937 1320 CURVE SMOOTH",
"906 1320 OFFCURVE",
"847 1350 OFFCURVE",
"758 1410 CURVE SMOOTH",
"669 1470 OFFCURVE",
"596 1500 OFFCURVE",
"539 1500 CURVE SMOOTH",
"482 1500 OFFCURVE",
"352 1420 OFFCURVE",
"150 1260 CURVE",
"150 650 LINE",
"258 697 OFFCURVE",
"368 723 OFFCURVE",
"481 730 CURVE SMOOTH",
"494 731 OFFCURVE",
"506 731 OFFCURVE",
"517 731 CURVE SMOOTH",
"606 731 OFFCURVE",
"650 708 OFFCURVE",
"650 663 CURVE SMOOTH",
"650 611 OFFCURVE",
"607 571 OFFCURVE",
"520 543 CURVE SMOOTH",
"433 514 OFFCURVE",
"310 500 OFFCURVE",
"150 500 CURVE",
"177 200 OFFCURVE",
"402 0 OFFCURVE",
"593 0 CURVE SMOOTH",
"688 0 OFFCURVE",
"795 56 OFFCURVE",
"916 167 CURVE",
"1045 56 OFFCURVE",
"1160 0 OFFCURVE",
"1260 0 CURVE SMOOTH",
"1460 0 OFFCURVE",
"1650 271 OFFCURVE",
"1650 650 CURVE SMOOTH",
"1650 883 OFFCURVE",
"1517 1000 OFFCURVE",
"1250 1000 CURVE SMOOTH",
"1165 1000 OFFCURVE",
"1077 964 OFFCURVE",
"1032 899 CURVE SMOOTH",
"1009 866 OFFCURVE",
"998 832 OFFCURVE",
"998 797 CURVE SMOOTH",
"998 728 OFFCURVE",
"1044 657 OFFCURVE",
"1125 622 CURVE SMOOTH",
"1165 604 OFFCURVE",
"1207 595 OFFCURVE",
"1250 595 CURVE SMOOTH",
"1337 595 OFFCURVE",
"1425 632 OFFCURVE",
"1469 697 CURVE SMOOTH",
"1478 710 OFFCURVE",
"1486 724 OFFCURVE",
"1491 737 CURVE",
"1497 711 OFFCURVE",
"1500 682 OFFCURVE",
"1500 650 CURVE SMOOTH"
);
}
);
width = 1800;
}
);
note = uni1792;
unicode = 1792;
},
{
glyphname = uni1793;
lastChange = "2021-03-26 14:05:54 +0000";
layers = (
{
layerId = "B1070C97-2DE4-4FC8-9990-FF316D9539D4";
paths = (
{
closed = 1;
nodes = (
"803 450 OFFCURVE",
"841 407 OFFCURVE",
"864 322 CURVE",
"888 107 OFFCURVE",
"1005 0 OFFCURVE",
"1215 0 CURVE SMOOTH",
"1448 0 OFFCURVE",
"1650 204 OFFCURVE",
"1650 691 CURVE",
"1543 404 OFFCURVE",
"1421 320 OFFCURVE",
"1198 320 CURVE SMOOTH",
"1106 320 OFFCURVE",
"1047 349 OFFCURVE",
"1020 408 CURVE SMOOTH",
"993 466 OFFCURVE",
"956 513 OFFCURVE",
"910 548 CURVE SMOOTH",
"863 583 OFFCURVE",
"810 600 OFFCURVE",
"750 600 CURVE",
"750 850 LINE",
"717 917 OFFCURVE",
"655 968 OFFCURVE",
"563 1003 CURVE SMOOTH",
"508 1024 OFFCURVE",
"454 1034 OFFCURVE",
"402 1034 CURVE SMOOTH",
"368 1034 OFFCURVE",
"335 1030 OFFCURVE",
"302 1021 CURVE",
"426 1104 OFFCURVE",
"565 1190 OFFCURVE",
"953 1190 CURVE SMOOTH",
"1252 1190 OFFCURVE",
"1501 1084 OFFCURVE",
"1501 955 CURVE SMOOTH",
"1501 920 OFFCURVE",
"1473 902 OFFCURVE",
"1418 902 CURVE SMOOTH",
"1412 902 LINE SMOOTH",
"1357 903 OFFCURVE",
"1330 925 OFFCURVE",
"1330 967 CURVE SMOOTH",
"1330 972 OFFCURVE",
"1330 976 OFFCURVE",
"1331 981 CURVE",
"1298 1027 OFFCURVE",
"1240 1050 OFFCURVE",
"1155 1050 CURVE SMOOTH",
"1151 1050 LINE SMOOTH",
"1024 1050 OFFCURVE",
"960 982 OFFCURVE",
"960 845 CURVE SMOOTH",
"960 708 OFFCURVE",
"1061 640 OFFCURVE",
"1264 640 CURVE SMOOTH",
"1515 640 OFFCURVE",
"1650 819 OFFCURVE",
"1650 1008 CURVE SMOOTH",
"1650 1251 OFFCURVE",
"1337 1500 OFFCURVE",
"949 1500 CURVE SMOOTH",
"522 1500 OFFCURVE",
"270 1308 OFFCURVE",
"150 1116 CURVE",
"150 650 LINE",
"265 683 OFFCURVE",
"359 700 OFFCURVE",
"432 700 CURVE SMOOTH",
"475 700 OFFCURVE",
"510 694 OFFCURVE",
"538 683 CURVE SMOOTH",
"575 667 OFFCURVE",
"603 639 OFFCURVE",
"622 600 CURVE",
"485 600 LINE SMOOTH",
"360 600 OFFCURVE",
"249 550 OFFCURVE",
"150 450 CURVE",
"150 355 OFFCURVE",
"190 256 OFFCURVE",
"270 154 CURVE SMOOTH",
"349 51 OFFCURVE",
"443 0 OFFCURVE",
"550 0 CURVE SMOOTH",
"603 0 OFFCURVE",
"670 47 OFFCURVE",
"750 140 CURVE",
"750 450 LINE"
);
},
{
closed = 1;
nodes = (
"650 371 OFFCURVE",
"640 356 OFFCURVE",
"619 356 CURVE SMOOTH",
"598 356 OFFCURVE",
"580 367 OFFCURVE",
"567 390 CURVE SMOOTH",
"560 401 OFFCURVE",
"557 410 OFFCURVE",
"557 418 CURVE SMOOTH",
"557 426 OFFCURVE",
"561 432 OFFCURVE",
"569 437 CURVE SMOOTH",
"584 446 OFFCURVE",
"611 450 OFFCURVE",
"650 450 CURVE",
"650 400 LINE SMOOTH"
);
}
);
width = 1800;
}
);
note = uni1793;
unicode = 1793;
},
{
glyphname = uni1794;
lastChange = "2021-03-26 14:05:54 +0000";
layers = (
{
layerId = "B1070C97-2DE4-4FC8-9990-FF316D9539D4";
paths = (
{
closed = 1;
nodes = (
"258 683 OFFCURVE",
"368 703 OFFCURVE",
"481 710 CURVE SMOOTH",
"496 711 OFFCURVE",
"509 711 OFFCURVE",
"522 711 CURVE SMOOTH",
"607 711 OFFCURVE",
"650 692 OFFCURVE",
"650 653 CURVE SMOOTH",
"650 608 OFFCURVE",
"607 571 OFFCURVE",
"520 543 CURVE SMOOTH",
"433 514 OFFCURVE",
"310 500 OFFCURVE",
"150 500 CURVE",
"177 200 OFFCURVE",
"417 0 OFFCURVE",
"910 0 CURVE SMOOTH",
"1363 0 OFFCURVE",
"1650 288 OFFCURVE",
"1650 601 CURVE SMOOTH",
"1650 767 OFFCURVE",
"1598 888 OFFCURVE",
"1493 965 CURVE SMOOTH",
"1431 1010 OFFCURVE",
"1358 1033 OFFCURVE",
"1274 1033 CURVE SMOOTH",
"1215 1033 OFFCURVE",
"1151 1022 OFFCURVE",
"1081 1000 CURVE",
"1101 1080 OFFCURVE",
"1136 1127 OFFCURVE",
"1185 1140 CURVE SMOOTH",
"1202 1145 OFFCURVE",
"1220 1147 OFFCURVE",
"1238 1147 CURVE SMOOTH",
"1269 1147 OFFCURVE",
"1299 1140 OFFCURVE",
"1329 1125 CURVE SMOOTH",
"1376 1102 OFFCURVE",
"1427 1090 OFFCURVE",
"1482 1090 CURVE SMOOTH",
"1483 1090 OFFCURVE",
"1484 1090 OFFCURVE",
"1485 1091 CURVE",
"1541 1091 OFFCURVE",
"1595 1182 OFFCURVE",
"1648 1364 CURVE",
"1587 1364 OFFCURVE",
"1516 1387 OFFCURVE",
"1434 1432 CURVE SMOOTH",
"1351 1477 OFFCURVE",
"1298 1500 OFFCURVE",
"1274 1500 CURVE SMOOTH",
"1226 1500 OFFCURVE",
"980 1325 OFFCURVE",
"980 1224 CURVE SMOOTH",
"980 650 LINE",
"1095 683 OFFCURVE",
"1190 700 OFFCURVE",
"1265 700 CURVE SMOOTH",
"1310 700 OFFCURVE",
"1347 694 OFFCURVE",
"1378 683 CURVE SMOOTH",
"1459 651 OFFCURVE",
"1500 617 OFFCURVE",
"1500 580 CURVE SMOOTH",
"1500 393 OFFCURVE",
"1323 320 OFFCURVE",
"1050 320 CURVE SMOOTH",
"923 320 OFFCURVE",
"821 332 OFFCURVE",
"744 355 CURVE SMOOTH",
"667 378 OFFCURVE",
"623 407 OFFCURVE",
"610 440 CURVE",
"743 527 OFFCURVE",
"810 619 OFFCURVE",
"810 718 CURVE SMOOTH",
"810 857 OFFCURVE",
"759 948 OFFCURVE",
"656 993 CURVE SMOOTH",
"601 1016 OFFCURVE",
"537 1028 OFFCURVE",
"463 1028 CURVE SMOOTH",
"397 1028 OFFCURVE",
"323 1019 OFFCURVE",
"241 1000 CURVE",
"281 1087 OFFCURVE",
"327 1137 OFFCURVE",
"380 1150 CURVE SMOOTH",
"399 1155 OFFCURVE",
"417 1157 OFFCURVE",
"436 1157 CURVE SMOOTH",
"468 1157 OFFCURVE",
"499 1150 OFFCURVE",
"529 1135 CURVE SMOOTH",
"576 1112 OFFCURVE",
"630 1100 OFFCURVE",
"692 1100 CURVE SMOOTH",
"693 1100 OFFCURVE",
"694 1100 OFFCURVE",
"695 1101 CURVE",
"758 1101 OFFCURVE",
"825 1189 OFFCURVE",
"898 1364 CURVE",
"801 1375 OFFCURVE",
"715 1401 OFFCURVE",
"640 1441 CURVE SMOOTH",
"564 1480 OFFCURVE",
"511 1500 OFFCURVE",
"482 1500 CURVE SMOOTH",
"423 1500 OFFCURVE",
"150 1325 OFFCURVE",
"150 1224 CURVE SMOOTH",
"150 650 LINE"
);
}
);
width = 1800;
}
);
note = uni1794;
unicode = 1794;
},
{
glyphname = uni1795;
lastChange = "2021-03-26 14:05:54 +0000";
layers = (
{
layerId = "B1070C97-2DE4-4FC8-9990-FF316D9539D4";
paths = (
{
closed = 1;
nodes = (
"1500 486 OFFCURVE",
"1350 360 OFFCURVE",
"1249 360 CURVE SMOOTH",
"1198 360 OFFCURVE",
"1136 413 OFFCURVE",
"1063 518 CURVE",
"958 399 OFFCURVE",
"877 340 OFFCURVE",
"822 340 CURVE SMOOTH",
"711 340 OFFCURVE",
"635 373 OFFCURVE",
"610 440 CURVE",
"743 527 OFFCURVE",
"810 619 OFFCURVE",
"810 718 CURVE SMOOTH",
"810 857 OFFCURVE",
"759 955 OFFCURVE",
"656 1013 CURVE SMOOTH",
"602 1043 OFFCURVE",
"536 1058 OFFCURVE",
"457 1058 CURVE SMOOTH",
"397 1058 OFFCURVE",
"330 1049 OFFCURVE",
"256 1032 CURVE",
"339 1117 OFFCURVE",
"435 1159 OFFCURVE",
"545 1159 CURVE SMOOTH",
"635 1159 OFFCURVE",
"735 1137 OFFCURVE",
"846 1094 CURVE SMOOTH",
"956 1051 OFFCURVE",
"1066 1029 OFFCURVE",
"1176 1029 CURVE SMOOTH",
"1385 1029 OFFCURVE",
"1650 1261 OFFCURVE",
"1650 1454 CURVE SMOOTH",
"1650 1647 OFFCURVE",
"1481 1759 OFFCURVE",
"1316 1759 CURVE SMOOTH",
"1233 1759 OFFCURVE",
"1174 1725 OFFCURVE",
"1141 1657 CURVE SMOOTH",
"1132 1640 OFFCURVE",
"1128 1624 OFFCURVE",
"1128 1609 CURVE SMOOTH",
"1128 1562 OFFCURVE",
"1167 1521 OFFCURVE",
"1246 1487 CURVE SMOOTH",
"1349 1442 OFFCURVE",
"1401 1393 OFFCURVE",
"1401 1340 CURVE SMOOTH",
"1401 1286 OFFCURVE",
"1380 1259 OFFCURVE",
"1339 1259 CURVE SMOOTH",
"1291 1259 OFFCURVE",
"1198 1299 OFFCURVE",
"1059 1379 CURVE SMOOTH",
"920 1459 OFFCURVE",
"800 1499 OFFCURVE",
"699 1500 CURVE SMOOTH",
"495 1500 OFFCURVE",
"249 1349 OFFCURVE",
"150 1170 CURVE",
"150 650 LINE",
"258 697 OFFCURVE",
"368 723 OFFCURVE",
"481 730 CURVE SMOOTH",
"494 731 OFFCURVE",
"506 731 OFFCURVE",
"517 731 CURVE SMOOTH",
"606 731 OFFCURVE",
"650 708 OFFCURVE",
"650 663 CURVE SMOOTH",
"650 611 OFFCURVE",
"607 571 OFFCURVE",
"520 543 CURVE SMOOTH",
"433 514 OFFCURVE",
"310 500 OFFCURVE",
"150 500 CURVE",
"177 200 OFFCURVE",
"402 0 OFFCURVE",
"593 0 CURVE SMOOTH",
"688 0 OFFCURVE",
"795 56 OFFCURVE",
"916 167 CURVE",
"1045 56 OFFCURVE",
"1160 0 OFFCURVE",
"1260 0 CURVE SMOOTH",
"1460 0 OFFCURVE",
"1650 285 OFFCURVE",
"1650 610 CURVE SMOOTH",
"1650 843 OFFCURVE",
"1517 960 OFFCURVE",
"1250 960 CURVE SMOOTH",
"1165 960 OFFCURVE",
"1077 924 OFFCURVE",
"1032 859 CURVE SMOOTH",
"1009 826 OFFCURVE",
"998 792 OFFCURVE",
"998 757 CURVE SMOOTH",
"998 688 OFFCURVE",
"1044 617 OFFCURVE",
"1125 582 CURVE SMOOTH",
"1165 564 OFFCURVE",
"1207 555 OFFCURVE",
"1250 555 CURVE SMOOTH",
"1337 555 OFFCURVE",
"1425 592 OFFCURVE",
"1469 657 CURVE SMOOTH",
"1478 670 OFFCURVE",
"1486 684 OFFCURVE",
"1491 697 CURVE",
"1497 671 OFFCURVE",
"1500 642 OFFCURVE",
"1500 610 CURVE SMOOTH"
);
}
);
width = 1800;
}
);
note = uni1795;
unicode = 1795;
},
{
glyphname = uni1796;
lastChange = "2021-03-26 14:05:54 +0000";
layers = (
{
layerId = "B1070C97-2DE4-4FC8-9990-FF316D9539D4";
paths = (
{
closed = 1;
nodes = (
"800 788 OFFCURVE",
"726 903 OFFCURVE",
"577 903 CURVE SMOOTH",
"442 903 OFFCURVE",
"375 824 OFFCURVE",
"375 665 CURVE SMOOTH",
"375 546 OFFCURVE",
"422 487 OFFCURVE",
"517 487 CURVE SMOOTH",
"568 487 OFFCURVE",
"602 497 OFFCURVE",
"620 518 CURVE SMOOTH",
"629 529 OFFCURVE",
"639 535 OFFCURVE",
"650 535 CURVE SMOOTH",
"657 535 OFFCURVE",
"665 532 OFFCURVE",
"673 525 CURVE SMOOTH",
"691 509 OFFCURVE",
"700 488 OFFCURVE",
"700 461 CURVE SMOOTH",
"700 415 OFFCURVE",
"650 387 OFFCURVE",
"550 377 CURVE SMOOTH",
"538 376 OFFCURVE",
"526 375 OFFCURVE",
"514 375 CURVE SMOOTH",
"433 375 OFFCURVE",
"375 406 OFFCURVE",
"340 469 CURVE SMOOTH",
"300 540 OFFCURVE",
"280 634 OFFCURVE",
"280 750 CURVE SMOOTH",
"280 863 OFFCURVE",
"308 957 OFFCURVE",
"365 1030 CURVE SMOOTH",
"422 1103 OFFCURVE",
"486 1139 OFFCURVE",
"559 1140 CURVE SMOOTH",
"658 1140 OFFCURVE",
"769 1102 OFFCURVE",
"890 1027 CURVE",
"969 1102 OFFCURVE",
"1046 1140 OFFCURVE",
"1122 1140 CURVE SMOOTH",
"1197 1140 OFFCURVE",
"1288 1101 OFFCURVE",
"1393 1022 CURVE SMOOTH",
"1498 943 OFFCURVE",
"1550 867 OFFCURVE",
"1550 793 CURVE SMOOTH",
"1550 684 OFFCURVE",
"1467 606 OFFCURVE",
"1300 560 CURVE SMOOTH",
"1133 514 OFFCURVE",
"1050 467 OFFCURVE",
"1050 420 CURVE SMOOTH",
"1050 345 OFFCURVE",
"1090 256 OFFCURVE",
"1170 154 CURVE SMOOTH",
"1249 51 OFFCURVE",
"1343 0 OFFCURVE",
"1450 0 CURVE SMOOTH",
"1503 0 OFFCURVE",
"1550 23 OFFCURVE",
"1590 70 CURVE SMOOTH",
"1630 117 OFFCURVE",
"1650 160 OFFCURVE",
"1650 200 CURVE SMOOTH",
"1650 1170 LINE SMOOTH",
"1650 1239 OFFCURVE",
"1600 1312 OFFCURVE",
"1500 1387 CURVE SMOOTH",
"1408 1456 OFFCURVE",
"1318 1491 OFFCURVE",
"1229 1491 CURVE SMOOTH",
"1221 1491 OFFCURVE",
"1213 1491 OFFCURVE",
"1205 1490 CURVE SMOOTH",
"1135 1483 OFFCURVE",
"1057 1422 OFFCURVE",
"970 1305 CURVE",
"861 1413 OFFCURVE",
"733 1500 OFFCURVE",
"588 1500 CURVE SMOOTH",
"475 1500 OFFCURVE",
"374 1435 OFFCURVE",
"285 1305 CURVE SMOOTH",
"195 1175 OFFCURVE",
"150 990 OFFCURVE",
"150 750 CURVE SMOOTH",
"150 250 OFFCURVE",
"277 0 OFFCURVE",
"531 0 CURVE SMOOTH",
"710 0 OFFCURVE",
"800 186 OFFCURVE",
"800 558 CURVE SMOOTH"
);
},
{
closed = 1;
nodes = (
"1460 451 OFFCURVE",
"1457 460 OFFCURVE",
"1457 469 CURVE SMOOTH",
"1457 478 OFFCURVE",
"1461 486 OFFCURVE",
"1469 493 CURVE SMOOTH",
"1484 506 OFFCURVE",
"1511 530 OFFCURVE",
"1550 567 CURVE",
"1550 450 LINE SMOOTH",
"1550 421 OFFCURVE",
"1540 406 OFFCURVE",
"1519 406 CURVE SMOOTH",
"1498 406 OFFCURVE",
"1480 417 OFFCURVE",
"1467 440 CURVE SMOOTH"
);
}
);
width = 1800;
}
);
note = uni1796;
unicode = 1796;
},
{
glyphname = uni1797;
lastChange = "2021-03-26 14:05:55 +0000";
layers = (
{
layerId = "B1070C97-2DE4-4FC8-9990-FF316D9539D4";
paths = (
{
closed = 1;
nodes = (
"458 1140 OFFCURVE",
"376 1189 OFFCURVE",
"307 1194 CURVE",
"354 1219 OFFCURVE",
"390 1232 OFFCURVE",
"417 1232 CURVE SMOOTH",
"443 1232 OFFCURVE",
"501 1204 OFFCURVE",
"592 1148 CURVE SMOOTH",
"683 1092 OFFCURVE",
"749 1064 OFFCURVE",
"792 1064 CURVE SMOOTH",
"834 1064 OFFCURVE",
"888 1090 OFFCURVE",
"953 1142 CURVE SMOOTH",
"1018 1194 OFFCURVE",
"1064 1220 OFFCURVE",
"1091 1220 CURVE SMOOTH",
"1118 1220 OFFCURVE",
"1177 1197 OFFCURVE",
"1270 1150 CURVE SMOOTH",
"1362 1103 OFFCURVE",
"1444 1080 OFFCURVE",
"1515 1080 CURVE SMOOTH",
"1600 1080 OFFCURVE",
"1678 1170 OFFCURVE",
"1750 1350 CURVE",
"1671 1350 OFFCURVE",
"1586 1375 OFFCURVE",
"1493 1425 CURVE SMOOTH",
"1400 1475 OFFCURVE",
"1333 1500 OFFCURVE",
"1291 1500 CURVE SMOOTH",
"1248 1500 OFFCURVE",
"1191 1470 OFFCURVE",
"1119 1410 CURVE SMOOTH",
"1047 1350 OFFCURVE",
"995 1320 OFFCURVE",
"964 1320 CURVE SMOOTH",
"933 1320 OFFCURVE",
"871 1350 OFFCURVE",
"780 1410 CURVE SMOOTH",
"688 1470 OFFCURVE",
"613 1500 OFFCURVE",
"554 1500 CURVE SMOOTH",
"495 1500 OFFCURVE",
"360 1420 OFFCURVE",
"150 1260 CURVE",
"150 1014 LINE",
"169 1017 OFFCURVE",
"187 1018 OFFCURVE",
"206 1018 CURVE SMOOTH",
"261 1018 OFFCURVE",
"315 1006 OFFCURVE",
"368 981 CURVE",
"552 1047 LINE"
);
},
{
closed = 1;
nodes = (
"476 1060 OFFCURVE",
"150 838 OFFCURVE",
"150 565 CURVE",
"215 579 OFFCURVE",
"276 586 OFFCURVE",
"333 586 CURVE SMOOTH",
"398 586 OFFCURVE",
"457 577 OFFCURVE",
"510 559 CURVE SMOOTH",
"610 524 OFFCURVE",
"660 470 OFFCURVE",
"660 395 CURVE SMOOTH",
"660 292 OFFCURVE",
"614 236 OFFCURVE",
"522 229 CURVE SMOOTH",
"503 228 OFFCURVE",
"484 227 OFFCURVE",
"466 227 CURVE SMOOTH",
"379 227 OFFCURVE",
"317 242 OFFCURVE",
"282 273 CURVE SMOOTH",
"251 300 OFFCURVE",
"235 323 OFFCURVE",
"235 340 CURVE SMOOTH",
"235 346 OFFCURVE",
"237 351 OFFCURVE",
"240 356 CURVE SMOOTH",
"243 361 OFFCURVE",
"249 363 OFFCURVE",
"256 363 CURVE SMOOTH",
"275 363 OFFCURVE",
"308 343 OFFCURVE",
"354 303 CURVE SMOOTH",
"390 272 OFFCURVE",
"426 256 OFFCURVE",
"463 256 CURVE SMOOTH",
"490 256 OFFCURVE",
"518 264 OFFCURVE",
"545 281 CURVE SMOOTH",
"588 308 OFFCURVE",
"610 339 OFFCURVE",
"610 375 CURVE SMOOTH",
"610 394 OFFCURVE",
"604 414 OFFCURVE",
"592 435 CURVE SMOOTH",
"558 497 OFFCURVE",
"493 528 OFFCURVE",
"398 528 CURVE SMOOTH",
"395 528 LINE SMOOTH",
"232 527 OFFCURVE",
"150 446 OFFCURVE",
"150 285 CURVE SMOOTH",
"150 95 OFFCURVE",
"275 0 OFFCURVE",
"524 0 CURVE SMOOTH",
"775 0 OFFCURVE",
"900 112 OFFCURVE",
"900 337 CURVE SMOOTH",
"900 497 OFFCURVE",
"790 602 OFFCURVE",
"570 653 CURVE",
"633 691 OFFCURVE",
"715 710 OFFCURVE",
"816 710 CURVE SMOOTH",
"969 710 OFFCURVE",
"1203 684 OFFCURVE",
"1517 633 CURVE",
"1344 524 OFFCURVE",
"1189 463 OFFCURVE",
"1050 450 CURVE",
"1050 355 OFFCURVE",
"1090 256 OFFCURVE",
"1170 154 CURVE SMOOTH",
"1249 51 OFFCURVE",
"1343 0 OFFCURVE",
"1450 0 CURVE SMOOTH",
"1503 0 OFFCURVE",
"1570 47 OFFCURVE",
"1650 140 CURVE",
"1650 980 LINE",
"1298 1033 OFFCURVE",
"1030 1060 OFFCURVE",
"845 1060 CURVE SMOOTH"
);
},
{
closed = 1;
nodes = (
"1460 451 OFFCURVE",
"1457 460 OFFCURVE",
"1457 469 CURVE SMOOTH",
"1457 478 OFFCURVE",
"1461 486 OFFCURVE",
"1469 493 CURVE SMOOTH",
"1484 506 OFFCURVE",
"1511 530 OFFCURVE",
"1550 567 CURVE",
"1550 450 LINE SMOOTH",
"1550 421 OFFCURVE",
"1540 406 OFFCURVE",
"1519 406 CURVE SMOOTH",
"1498 406 OFFCURVE",
"1480 417 OFFCURVE",
"1467 440 CURVE SMOOTH"
);
}
);
width = 1800;
}
);
note = uni1797;
unicode = 1797;
},
{
glyphname = uni1798;
lastChange = "2021-03-26 14:05:55 +0000";
layers = (
{
layerId = "B1070C97-2DE4-4FC8-9990-FF316D9539D4";
paths = (
{
closed = 1;
nodes = (
"258 683 OFFCURVE",
"368 703 OFFCURVE",
"481 710 CURVE SMOOTH",
"496 711 OFFCURVE",
"509 711 OFFCURVE",
"522 711 CURVE SMOOTH",
"607 711 OFFCURVE",
"650 692 OFFCURVE",
"650 653 CURVE SMOOTH",
"650 608 OFFCURVE",
"607 571 OFFCURVE",
"520 543 CURVE SMOOTH",
"433 514 OFFCURVE",
"310 500 OFFCURVE",
"150 500 CURVE",
"177 200 OFFCURVE",
"417 0 OFFCURVE",
"910 0 CURVE SMOOTH",
"1363 0 OFFCURVE",
"1650 288 OFFCURVE",
"1650 601 CURVE SMOOTH",
"1650 767 OFFCURVE",
"1598 888 OFFCURVE",
"1493 965 CURVE SMOOTH",
"1431 1010 OFFCURVE",
"1358 1033 OFFCURVE",
"1274 1033 CURVE SMOOTH",
"1215 1033 OFFCURVE",
"1151 1022 OFFCURVE",
"1081 1000 CURVE",
"1101 1080 OFFCURVE",
"1136 1127 OFFCURVE",
"1185 1140 CURVE SMOOTH",
"1202 1145 OFFCURVE",
"1220 1147 OFFCURVE",
"1238 1147 CURVE SMOOTH",
"1269 1147 OFFCURVE",
"1299 1140 OFFCURVE",
"1329 1125 CURVE SMOOTH",
"1376 1102 OFFCURVE",
"1427 1090 OFFCURVE",
"1482 1090 CURVE SMOOTH",
"1483 1090 OFFCURVE",
"1484 1090 OFFCURVE",
"1485 1091 CURVE",
"1541 1091 OFFCURVE",
"1595 1182 OFFCURVE",
"1648 1364 CURVE",
"1587 1364 OFFCURVE",
"1516 1387 OFFCURVE",
"1434 1432 CURVE SMOOTH",
"1351 1477 OFFCURVE",
"1298 1500 OFFCURVE",
"1274 1500 CURVE SMOOTH",
"1226 1500 OFFCURVE",
"980 1325 OFFCURVE",
"980 1224 CURVE SMOOTH",
"980 650 LINE",
"1095 683 OFFCURVE",
"1190 700 OFFCURVE",
"1265 700 CURVE SMOOTH",
"1310 700 OFFCURVE",
"1347 694 OFFCURVE",
"1378 683 CURVE SMOOTH",
"1459 651 OFFCURVE",
"1500 617 OFFCURVE",
"1500 580 CURVE SMOOTH",
"1500 393 OFFCURVE",
"1323 320 OFFCURVE",
"1050 320 CURVE SMOOTH",
"923 320 OFFCURVE",
"821 332 OFFCURVE",
"744 355 CURVE SMOOTH",
"667 378 OFFCURVE",
"623 407 OFFCURVE",
"610 440 CURVE",
"743 527 OFFCURVE",
"810 619 OFFCURVE",
"810 718 CURVE SMOOTH",
"810 857 OFFCURVE",
"759 948 OFFCURVE",
"656 993 CURVE SMOOTH",
"601 1016 OFFCURVE",
"537 1028 OFFCURVE",
"463 1028 CURVE SMOOTH",
"397 1028 OFFCURVE",
"323 1019 OFFCURVE",
"241 1000 CURVE",
"281 1087 OFFCURVE",
"327 1137 OFFCURVE",
"380 1150 CURVE SMOOTH",
"399 1155 OFFCURVE",
"417 1157 OFFCURVE",
"436 1157 CURVE SMOOTH",
"468 1157 OFFCURVE",
"499 1150 OFFCURVE",
"529 1135 CURVE SMOOTH",
"576 1112 OFFCURVE",
"630 1100 OFFCURVE",
"692 1100 CURVE SMOOTH",
"693 1100 OFFCURVE",
"694 1100 OFFCURVE",
"695 1101 CURVE",
"758 1101 OFFCURVE",
"825 1189 OFFCURVE",
"898 1364 CURVE",
"801 1375 OFFCURVE",
"715 1401 OFFCURVE",
"640 1441 CURVE SMOOTH",
"564 1480 OFFCURVE",
"511 1500 OFFCURVE",
"482 1500 CURVE SMOOTH",
"423 1500 OFFCURVE",
"150 1325 OFFCURVE",
"150 1224 CURVE SMOOTH",
"150 650 LINE"
);
},
{
closed = 1;
nodes = (
"838 628 OFFCURVE",
"795 545 OFFCURVE",
"720 482 CURVE",
"859 432 OFFCURVE",
"973 407 OFFCURVE",
"1064 407 CURVE SMOOTH",
"1092 407 OFFCURVE",
"1118 409 OFFCURVE",
"1142 414 CURVE SMOOTH",
"1242 435 OFFCURVE",
"1315 488 OFFCURVE",
"1361 571 CURVE",
"1347 571 LINE SMOOTH",
"1252 571 OFFCURVE",
"1168 578 OFFCURVE",
"1095 591 CURVE SMOOTH",
"1019 604 OFFCURVE",
"937 651 OFFCURVE",
"849 732 CURVE"
);
}
);
width = 1800;
}
);
note = uni1798;
unicode = 1798;
},
{
glyphname = uni1799;
lastChange = "2021-03-26 14:05:55 +0000";
layers = (
{
layerId = "B1070C97-2DE4-4FC8-9990-FF316D9539D4";
paths = (
{
closed = 1;
nodes = (
"650 340 OFFCURVE",
"480 405 OFFCURVE",
"368 549 CURVE SMOOTH",
"312 621 OFFCURVE",
"281 690 OFFCURVE",
"276 757 CURVE SMOOTH",
"273 793 OFFCURVE",
"271 823 OFFCURVE",
"271 846 CURVE SMOOTH",
"271 865 OFFCURVE",
"272 880 OFFCURVE",
"274 890 CURVE SMOOTH",
"289 959 OFFCURVE",
"328 1019 OFFCURVE",
"391 1070 CURVE SMOOTH",
"442 1111 OFFCURVE",
"492 1132 OFFCURVE",
"542 1132 CURVE SMOOTH",
"555 1132 OFFCURVE",
"567 1131 OFFCURVE",
"579 1128 CURVE SMOOTH",
"667 1109 OFFCURVE",
"711 1079 OFFCURVE",
"711 1037 CURVE SMOOTH",
"711 1033 OFFCURVE",
"711 1029 OFFCURVE",
"710 1024 CURVE SMOOTH",
"701 984 OFFCURVE",
"679 964 OFFCURVE",
"643 964 CURVE SMOOTH",
"635 964 OFFCURVE",
"626 965 OFFCURVE",
"616 967 CURVE SMOOTH",
"571 976 OFFCURVE",
"535 1001 OFFCURVE",
"510 1040 CURVE",
"449 1018 OFFCURVE",
"400 973 OFFCURVE",
"363 905 CURVE SMOOTH",
"344 872 OFFCURVE",
"335 839 OFFCURVE",
"335 807 CURVE SMOOTH",
"335 774 OFFCURVE",
"345 742 OFFCURVE",
"365 711 CURVE SMOOTH",
"404 650 OFFCURVE",
"463 614 OFFCURVE",
"542 605 CURVE SMOOTH",
"552 604 OFFCURVE",
"562 603 OFFCURVE",
"571 603 CURVE SMOOTH",
"639 603 OFFCURVE",
"701 632 OFFCURVE",
"756 690 CURVE SMOOTH",
"819 755 OFFCURVE",
"850 868 OFFCURVE",
"850 1029 CURVE SMOOTH",
"850 1343 OFFCURVE",
"747 1500 OFFCURVE",
"540 1500 CURVE SMOOTH",
"280 1500 OFFCURVE",
"150 1277 OFFCURVE",
"150 830 CURVE SMOOTH",
"150 277 OFFCURVE",
"393 0 OFFCURVE",
"880 0 CURVE SMOOTH",
"1050 0 OFFCURVE",
"1190 27 OFFCURVE",
"1299 80 CURVE",
"1423 27 OFFCURVE",
"1567 0 OFFCURVE",
"1730 0 CURVE SMOOTH",
"2157 0 OFFCURVE",
"2450 288 OFFCURVE",
"2450 601 CURVE SMOOTH",
"2450 767 OFFCURVE",
"2398 888 OFFCURVE",
"2293 965 CURVE SMOOTH",
"2231 1010 OFFCURVE",
"2158 1033 OFFCURVE",
"2074 1033 CURVE SMOOTH",
"2015 1033 OFFCURVE",
"1951 1022 OFFCURVE",
"1881 1000 CURVE",
"1901 1080 OFFCURVE",
"1936 1127 OFFCURVE",
"1985 1140 CURVE SMOOTH",
"2002 1145 OFFCURVE",
"2020 1147 OFFCURVE",
"2038 1147 CURVE SMOOTH",
"2069 1147 OFFCURVE",
"2099 1140 OFFCURVE",
"2129 1125 CURVE SMOOTH",
"2176 1102 OFFCURVE",
"2227 1090 OFFCURVE",
"2282 1090 CURVE SMOOTH",
"2283 1090 OFFCURVE",
"2284 1090 OFFCURVE",
"2285 1091 CURVE",
"2341 1091 OFFCURVE",
"2395 1182 OFFCURVE",
"2448 1364 CURVE",
"2387 1364 OFFCURVE",
"2316 1387 OFFCURVE",
"2234 1432 CURVE SMOOTH",
"2151 1477 OFFCURVE",
"2098 1500 OFFCURVE",
"2074 1500 CURVE SMOOTH",
"2026 1500 OFFCURVE",
"1780 1325 OFFCURVE",
"1780 1224 CURVE SMOOTH",
"1780 650 LINE",
"1895 683 OFFCURVE",
"1990 700 OFFCURVE",
"2065 700 CURVE SMOOTH",
"2110 700 OFFCURVE",
"2147 694 OFFCURVE",
"2178 683 CURVE SMOOTH",
"2259 651 OFFCURVE",
"2300 617 OFFCURVE",
"2300 580 CURVE SMOOTH",
"2300 393 OFFCURVE",
"2123 320 OFFCURVE",
"1850 320 CURVE SMOOTH",
"1743 320 OFFCURVE",
"1653 328 OFFCURVE",
"1582 345 CURVE",
"1627 424 OFFCURVE",
"1650 510 OFFCURVE",
"1650 601 CURVE SMOOTH",
"1650 767 OFFCURVE",
"1598 888 OFFCURVE",
"1493 965 CURVE SMOOTH",
"1431 1010 OFFCURVE",
"1358 1033 OFFCURVE",
"1274 1033 CURVE SMOOTH",
"1215 1033 OFFCURVE",
"1151 1022 OFFCURVE",
"1081 1000 CURVE",
"1101 1080 OFFCURVE",
"1136 1127 OFFCURVE",
"1185 1140 CURVE SMOOTH",
"1202 1145 OFFCURVE",
"1220 1147 OFFCURVE",
"1238 1147 CURVE SMOOTH",
"1269 1147 OFFCURVE",
"1299 1140 OFFCURVE",
"1329 1125 CURVE SMOOTH",
"1376 1102 OFFCURVE",
"1427 1090 OFFCURVE",
"1482 1090 CURVE SMOOTH",
"1483 1090 OFFCURVE",
"1484 1090 OFFCURVE",
"1485 1091 CURVE",
"1541 1091 OFFCURVE",
"1595 1182 OFFCURVE",
"1648 1364 CURVE",
"1587 1364 OFFCURVE",
"1516 1387 OFFCURVE",
"1434 1432 CURVE SMOOTH",
"1351 1477 OFFCURVE",
"1298 1500 OFFCURVE",
"1274 1500 CURVE SMOOTH",
"1226 1500 OFFCURVE",
"980 1325 OFFCURVE",
"980 1224 CURVE SMOOTH",
"980 650 LINE",
"1095 683 OFFCURVE",
"1190 700 OFFCURVE",
"1265 700 CURVE SMOOTH",
"1310 700 OFFCURVE",
"1347 694 OFFCURVE",
"1378 683 CURVE SMOOTH",
"1459 651 OFFCURVE",
"1500 617 OFFCURVE",
"1500 580 CURVE SMOOTH",
"1500 433 OFFCURVE",
"1263 340 OFFCURVE",
"990 340 CURVE SMOOTH"
);
}
);
width = 2600;
}
);
note = uni1799;
unicode = 1799;
},
{
glyphname = uni179A;
lastChange = "2021-03-26 14:05:55 +0000";
layers = (
{
layerId = "B1070C97-2DE4-4FC8-9990-FF316D9539D4";
paths = (
{
closed = 1;
nodes = (
"717 917 OFFCURVE",
"655 968 OFFCURVE",
"563 1003 CURVE SMOOTH",
"518 1020 OFFCURVE",
"471 1028 OFFCURVE",
"420 1028 CURVE SMOOTH",
"367 1028 OFFCURVE",
"310 1019 OFFCURVE",
"251 1000 CURVE",
"271 1080 OFFCURVE",
"302 1127 OFFCURVE",
"345 1140 CURVE SMOOTH",
"360 1145 OFFCURVE",
"376 1147 OFFCURVE",
"392 1147 CURVE SMOOTH",
"420 1147 OFFCURVE",
"449 1140 OFFCURVE",
"479 1125 CURVE SMOOTH",
"526 1102 OFFCURVE",
"577 1090 OFFCURVE",
"632 1090 CURVE SMOOTH",
"633 1090 OFFCURVE",
"634 1090 OFFCURVE",
"635 1091 CURVE",
"691 1091 OFFCURVE",
"746 1182 OFFCURVE",
"800 1364 CURVE",
"738 1364 OFFCURVE",
"669 1387 OFFCURVE",
"594 1432 CURVE SMOOTH",
"518 1477 OFFCURVE",
"468 1500 OFFCURVE",
"444 1500 CURVE SMOOTH",
"396 1500 OFFCURVE",
"150 1325 OFFCURVE",
"150 1224 CURVE SMOOTH",
"150 650 LINE",
"265 683 OFFCURVE",
"359 700 OFFCURVE",
"432 700 CURVE SMOOTH",
"475 700 OFFCURVE",
"510 694 OFFCURVE",
"538 683 CURVE SMOOTH",
"575 667 OFFCURVE",
"603 650 OFFCURVE",
"622 633 CURVE",
"617 633 LINE",
"444 524 OFFCURVE",
"289 463 OFFCURVE",
"150 450 CURVE",
"150 355 OFFCURVE",
"190 256 OFFCURVE",
"270 154 CURVE SMOOTH",
"349 51 OFFCURVE",
"443 0 OFFCURVE",
"550 0 CURVE SMOOTH",
"603 0 OFFCURVE",
"670 47 OFFCURVE",
"750 140 CURVE",
"750 850 LINE"
);
},
{
closed = 1;
nodes = (
"598 406 OFFCURVE",
"580 417 OFFCURVE",
"567 440 CURVE SMOOTH",
"560 451 OFFCURVE",
"557 460 OFFCURVE",
"557 469 CURVE SMOOTH",
"557 478 OFFCURVE",
"561 486 OFFCURVE",
"569 493 CURVE SMOOTH",
"584 506 OFFCURVE",
"611 530 OFFCURVE",
"650 567 CURVE",
"650 450 LINE SMOOTH",
"650 421 OFFCURVE",
"640 406 OFFCURVE",
"619 406 CURVE SMOOTH"
);
}
);
width = 900;
}
);
note = uni179A;
unicode = 179A;
},
{
glyphname = uni179B;
lastChange = "2021-03-26 14:05:55 +0000";
layers = (
{
layerId = "B1070C97-2DE4-4FC8-9990-FF316D9539D4";
paths = (
{
closed = 1;
nodes = (
"742 1190 OFFCURVE",
"827 1162 OFFCURVE",
"903 1107 CURVE SMOOTH",
"979 1051 OFFCURVE",
"1044 974 OFFCURVE",
"1098 877 CURVE",
"777 413 LINE",
"888 138 OFFCURVE",
"1133 0 OFFCURVE",
"1440 0 CURVE SMOOTH",
"1920 0 OFFCURVE",
"2180 254 OFFCURVE",
"2180 601 CURVE SMOOTH",
"2180 767 OFFCURVE",
"2128 888 OFFCURVE",
"2023 965 CURVE SMOOTH",
"1961 1010 OFFCURVE",
"1888 1033 OFFCURVE",
"1804 1033 CURVE SMOOTH",
"1745 1033 OFFCURVE",
"1681 1022 OFFCURVE",
"1611 1000 CURVE",
"1631 1080 OFFCURVE",
"1666 1127 OFFCURVE",
"1715 1140 CURVE SMOOTH",
"1732 1145 OFFCURVE",
"1750 1147 OFFCURVE",
"1768 1147 CURVE SMOOTH",
"1799 1147 OFFCURVE",
"1829 1140 OFFCURVE",
"1859 1125 CURVE SMOOTH",
"1906 1102 OFFCURVE",
"1957 1090 OFFCURVE",
"2012 1090 CURVE SMOOTH",
"2013 1090 OFFCURVE",
"2014 1090 OFFCURVE",
"2015 1091 CURVE",
"2071 1091 OFFCURVE",
"2125 1182 OFFCURVE",
"2178 1364 CURVE",
"2117 1364 OFFCURVE",
"2046 1387 OFFCURVE",
"1964 1432 CURVE SMOOTH",
"1881 1477 OFFCURVE",
"1828 1500 OFFCURVE",
"1804 1500 CURVE SMOOTH",
"1756 1500 OFFCURVE",
"1510 1325 OFFCURVE",
"1510 1224 CURVE SMOOTH",
"1510 650 LINE",
"1625 683 OFFCURVE",
"1720 700 OFFCURVE",
"1795 700 CURVE SMOOTH",
"1840 700 OFFCURVE",
"1877 694 OFFCURVE",
"1908 683 CURVE SMOOTH",
"1989 651 OFFCURVE",
"2030 617 OFFCURVE",
"2030 580 CURVE SMOOTH",
"2030 393 OFFCURVE",
"1853 320 OFFCURVE",
"1580 320 CURVE SMOOTH",
"1325 320 OFFCURVE",
"1192 411 OFFCURVE",
"1121 603 CURVE",
"1393 1067 LINE",
"1340 1175 LINE SMOOTH",
"1269 1318 OFFCURVE",
"1041 1500 OFFCURVE",
"722 1500 CURVE SMOOTH",
"403 1500 OFFCURVE",
"243 1308 OFFCURVE",
"150 1116 CURVE",
"150 670 LINE",
"192 709 OFFCURVE",
"250 728 OFFCURVE",
"324 728 CURVE SMOOTH",
"397 728 OFFCURVE",
"439 691 OFFCURVE",
"450 616 CURVE",
"319 567 OFFCURVE",
"237 514 OFFCURVE",
"202 457 CURVE SMOOTH",
"167 399 OFFCURVE",
"150 340 OFFCURVE",
"150 280 CURVE SMOOTH",
"150 93 OFFCURVE",
"242 0 OFFCURVE",
"425 0 CURVE SMOOTH",
"608 0 OFFCURVE",
"700 90 OFFCURVE",
"700 270 CURVE SMOOTH",
"700 377 OFFCURVE",
"652 430 OFFCURVE",
"557 430 CURVE SMOOTH",
"521 430 OFFCURVE",
"490 408 OFFCURVE",
"465 364 CURVE SMOOTH",
"448 334 OFFCURVE",
"430 319 OFFCURVE",
"413 319 CURVE SMOOTH",
"404 319 OFFCURVE",
"395 323 OFFCURVE",
"386 330 CURVE SMOOTH",
"381 334 OFFCURVE",
"378 339 OFFCURVE",
"378 346 CURVE SMOOTH",
"378 374 OFFCURVE",
"424 424 OFFCURVE",
"516 496 CURVE SMOOTH",
"605 565 OFFCURVE",
"650 639 OFFCURVE",
"650 718 CURVE SMOOTH",
"650 857 OFFCURVE",
"612 948 OFFCURVE",
"537 993 CURVE SMOOTH",
"489 1021 OFFCURVE",
"436 1035 OFFCURVE",
"377 1035 CURVE SMOOTH",
"342 1035 OFFCURVE",
"306 1030 OFFCURVE",
"268 1021 CURVE",
"317 1062 OFFCURVE",
"369 1101 OFFCURVE",
"425 1137 CURVE SMOOTH",
"480 1172 OFFCURVE",
"555 1190 OFFCURVE",
"649 1190 CURVE SMOOTH"
);
}
);
width = 2330;
}
);
note = uni179B;
unicode = 179B;
},
{
glyphname = uni179C;
lastChange = "2021-03-26 14:05:55 +0000";
layers = (
{
layerId = "B1070C97-2DE4-4FC8-9990-FF316D9539D4";
paths = (
{
closed = 1;
nodes = (
"299 967 OFFCURVE",
"298 982 OFFCURVE",
"298 997 CURVE SMOOTH",
"298 1070 OFFCURVE",
"316 1120 OFFCURVE",
"351 1148 CURVE SMOOTH",
"394 1181 OFFCURVE",
"428 1198 OFFCURVE",
"455 1198 CURVE SMOOTH",
"481 1198 OFFCURVE",
"533 1176 OFFCURVE",
"611 1131 CURVE SMOOTH",
"689 1086 OFFCURVE",
"749 1064 OFFCURVE",
"792 1064 CURVE SMOOTH",
"834 1064 OFFCURVE",
"888 1090 OFFCURVE",
"953 1142 CURVE SMOOTH",
"1018 1194 OFFCURVE",
"1064 1220 OFFCURVE",
"1091 1220 CURVE SMOOTH",
"1118 1220 OFFCURVE",
"1177 1197 OFFCURVE",
"1270 1150 CURVE SMOOTH",
"1362 1103 OFFCURVE",
"1444 1080 OFFCURVE",
"1515 1080 CURVE SMOOTH",
"1600 1080 OFFCURVE",
"1678 1170 OFFCURVE",
"1750 1350 CURVE",
"1671 1350 OFFCURVE",
"1586 1375 OFFCURVE",
"1493 1425 CURVE SMOOTH",
"1400 1475 OFFCURVE",
"1333 1500 OFFCURVE",
"1291 1500 CURVE SMOOTH",
"1248 1500 OFFCURVE",
"1191 1470 OFFCURVE",
"1119 1410 CURVE SMOOTH",
"1047 1350 OFFCURVE",
"995 1320 OFFCURVE",
"964 1320 CURVE SMOOTH",
"933 1320 OFFCURVE",
"871 1350 OFFCURVE",
"780 1410 CURVE SMOOTH",
"688 1470 OFFCURVE",
"613 1500 OFFCURVE",
"554 1500 CURVE SMOOTH",
"495 1500 OFFCURVE",
"413 1460 OFFCURVE",
"308 1380 CURVE SMOOTH",
"203 1299 OFFCURVE",
"150 1236 OFFCURVE",
"150 1190 CURVE SMOOTH",
"150 789 LINE",
"263 856 OFFCURVE",
"381 899 OFFCURVE",
"664 899 CURVE SMOOTH",
"805 899 OFFCURVE",
"947 871 OFFCURVE",
"1088 814 CURVE SMOOTH",
"1229 758 OFFCURVE",
"1300 673 OFFCURVE",
"1300 560 CURVE SMOOTH",
"1300 477 OFFCURVE",
"1243 414 OFFCURVE",
"1130 372 CURVE SMOOTH",
"1017 331 OFFCURVE",
"870 310 OFFCURVE",
"690 310 CURVE SMOOTH",
"556 310 OFFCURVE",
"458 330 OFFCURVE",
"395 370 CURVE SMOOTH",
"332 410 OFFCURVE",
"300 450 OFFCURVE",
"300 490 CURVE SMOOTH",
"300 563 OFFCURVE",
"327 600 OFFCURVE",
"380 600 CURVE",
"382 527 OFFCURVE",
"423 475 OFFCURVE",
"502 444 CURVE SMOOTH",
"574 418 OFFCURVE",
"641 405 OFFCURVE",
"703 405 CURVE SMOOTH",
"751 405 OFFCURVE",
"796 413 OFFCURVE",
"838 429 CURVE SMOOTH",
"933 465 OFFCURVE",
"980 520 OFFCURVE",
"980 593 CURVE SMOOTH",
"980 740 OFFCURVE",
"780 800 OFFCURVE",
"580 800 CURVE SMOOTH",
"427 800 OFFCURVE",
"317 774 OFFCURVE",
"250 722 CURVE SMOOTH",
"183 671 OFFCURVE",
"150 593 OFFCURVE",
"150 490 CURVE SMOOTH",
"150 313 OFFCURVE",
"217 187 OFFCURVE",
"350 112 CURVE SMOOTH",
"483 37 OFFCURVE",
"650 0 OFFCURVE",
"850 0 CURVE SMOOTH",
"1050 0 OFFCURVE",
"1233 46 OFFCURVE",
"1400 138 CURVE SMOOTH",
"1567 230 OFFCURVE",
"1650 368 OFFCURVE",
"1650 551 CURVE SMOOTH",
"1650 883 OFFCURVE",
"1288 1050 OFFCURVE",
"856 1050 CURVE SMOOTH",
"639 1050 OFFCURVE",
"454 1017 OFFCURVE",
"300 950 CURVE"
);
}
);
width = 1800;
}
);
note = uni179C;
unicode = 179C;
},
{
glyphname = uni179D;
lastChange = "2021-03-26 14:05:55 +0000";
layers = (
{
layerId = "B1070C97-2DE4-4FC8-9990-FF316D9539D4";
paths = (
{
closed = 1;
nodes = (
"458 1140 OFFCURVE",
"376 1189 OFFCURVE",
"307 1194 CURVE",
"354 1219 OFFCURVE",
"390 1232 OFFCURVE",
"417 1232 CURVE SMOOTH",
"443 1232 OFFCURVE",
"501 1204 OFFCURVE",
"592 1148 CURVE SMOOTH",
"683 1092 OFFCURVE",
"749 1064 OFFCURVE",
"792 1064 CURVE SMOOTH",
"834 1064 OFFCURVE",
"888 1090 OFFCURVE",
"953 1142 CURVE SMOOTH",
"1018 1194 OFFCURVE",
"1064 1220 OFFCURVE",
"1091 1220 CURVE SMOOTH",
"1118 1220 OFFCURVE",
"1177 1197 OFFCURVE",
"1270 1150 CURVE SMOOTH",
"1362 1103 OFFCURVE",
"1444 1080 OFFCURVE",
"1515 1080 CURVE SMOOTH",
"1600 1080 OFFCURVE",
"1678 1170 OFFCURVE",
"1750 1350 CURVE",
"1671 1350 OFFCURVE",
"1586 1375 OFFCURVE",
"1493 1425 CURVE SMOOTH",
"1400 1475 OFFCURVE",
"1333 1500 OFFCURVE",
"1291 1500 CURVE SMOOTH",
"1248 1500 OFFCURVE",
"1191 1470 OFFCURVE",
"1119 1410 CURVE SMOOTH",
"1047 1350 OFFCURVE",
"995 1320 OFFCURVE",
"964 1320 CURVE SMOOTH",
"933 1320 OFFCURVE",
"871 1350 OFFCURVE",
"780 1410 CURVE SMOOTH",
"688 1470 OFFCURVE",
"613 1500 OFFCURVE",
"554 1500 CURVE SMOOTH",
"495 1500 OFFCURVE",
"360 1420 OFFCURVE",
"150 1260 CURVE",
"150 1014 LINE",
"169 1017 OFFCURVE",
"187 1018 OFFCURVE",
"206 1018 CURVE SMOOTH",
"261 1018 OFFCURVE",
"315 1006 OFFCURVE",
"368 981 CURVE",
"552 1047 LINE"
);
},
{
closed = 1;
nodes = (
"1742 557 OFFCURVE",
"1805 618 OFFCURVE",
"1838 705 CURVE",
"1770 694 OFFCURVE",
"1707 688 OFFCURVE",
"1650 686 CURVE",
"1650 980 LINE",
"1298 1033 OFFCURVE",
"1030 1060 OFFCURVE",
"845 1060 CURVE SMOOTH",
"476 1060 OFFCURVE",
"263 953 OFFCURVE",
"150 730 CURVE",
"150 299 LINE SMOOTH",
"150 122 OFFCURVE",
"241 0 OFFCURVE",
"438 0 CURVE SMOOTH",
"539 0 OFFCURVE",
"610 46 OFFCURVE",
"653 137 CURVE",
"608 172 OFFCURVE",
"586 210 OFFCURVE",
"586 251 CURVE SMOOTH",
"586 260 OFFCURVE",
"587 270 OFFCURVE",
"589 279 CURVE SMOOTH",
"601 317 OFFCURVE",
"627 336 OFFCURVE",
"668 337 CURVE SMOOTH",
"669 337 LINE SMOOTH",
"708 337 OFFCURVE",
"741 323 OFFCURVE",
"768 294 CURVE SMOOTH",
"795 265 OFFCURVE",
"830 250 OFFCURVE",
"874 250 CURVE SMOOTH",
"917 250 OFFCURVE",
"951 283 OFFCURVE",
"976 348 CURVE SMOOTH",
"984 370 OFFCURVE",
"988 391 OFFCURVE",
"988 412 CURVE SMOOTH",
"988 452 OFFCURVE",
"972 489 OFFCURVE",
"941 523 CURVE SMOOTH",
"893 574 OFFCURVE",
"829 600 OFFCURVE",
"749 600 CURVE SMOOTH",
"616 600 OFFCURVE",
"470 515 OFFCURVE",
"399 322 CURVE",
"300 334 OFFCURVE",
"250 383 OFFCURVE",
"250 470 CURVE SMOOTH",
"250 523 OFFCURVE",
"299 577 OFFCURVE",
"398 630 CURVE SMOOTH",
"496 683 OFFCURVE",
"629 710 OFFCURVE",
"796 710 CURVE SMOOTH",
"921 710 OFFCURVE",
"1087 696 OFFCURVE",
"1294 667 CURVE",
"1279 615 OFFCURVE",
"1252 568 OFFCURVE",
"1215 527 CURVE",
"1240 522 OFFCURVE",
"1265 517 OFFCURVE",
"1289 513 CURVE",
"1204 478 OFFCURVE",
"1125 457 OFFCURVE",
"1050 450 CURVE",
"1050 355 OFFCURVE",
"1090 256 OFFCURVE",
"1170 154 CURVE SMOOTH",
"1249 51 OFFCURVE",
"1343 0 OFFCURVE",
"1450 0 CURVE SMOOTH",
"1503 0 OFFCURVE",
"1570 47 OFFCURVE",
"1650 140 CURVE",
"1650 522 LINE"
);
},
{
closed = 1;
nodes = (
"1550 421 OFFCURVE",
"1540 406 OFFCURVE",
"1519 406 CURVE SMOOTH",
"1498 406 OFFCURVE",
"1480 417 OFFCURVE",
"1467 440 CURVE SMOOTH",
"1460 451 OFFCURVE",
"1457 460 OFFCURVE",
"1457 469 CURVE SMOOTH",
"1457 478 OFFCURVE",
"1461 486 OFFCURVE",
"1469 493 CURVE SMOOTH",
"1471 495 LINE",
"1485 495 LINE SMOOTH",
"1508 495 OFFCURVE",
"1529 496 OFFCURVE",
"1550 499 CURVE",
"1550 450 LINE SMOOTH"
);
}
);
width = 1800;
}
);
note = uni179D;
unicode = 179D;
},
{
glyphname = uni179E;
lastChange = "2021-03-26 14:05:55 +0000";
layers = (
{
layerId = "B1070C97-2DE4-4FC8-9990-FF316D9539D4";
paths = (
{
closed = 1;
nodes = (
"1643 423 LINE SMOOTH",
"1739 458 OFFCURVE",
"1804 520 OFFCURVE",
"1838 609 CURVE",
"1770 598 OFFCURVE",
"1707 592 OFFCURVE",
"1650 590 CURVE",
"1650 601 LINE SMOOTH",
"1650 767 OFFCURVE",
"1598 888 OFFCURVE",
"1493 965 CURVE SMOOTH",
"1431 1010 OFFCURVE",
"1358 1033 OFFCURVE",
"1274 1033 CURVE SMOOTH",
"1215 1033 OFFCURVE",
"1151 1022 OFFCURVE",
"1081 1000 CURVE",
"1101 1080 OFFCURVE",
"1136 1127 OFFCURVE",
"1185 1140 CURVE SMOOTH",
"1202 1145 OFFCURVE",
"1220 1147 OFFCURVE",
"1238 1147 CURVE SMOOTH",
"1269 1147 OFFCURVE",
"1299 1140 OFFCURVE",
"1329 1125 CURVE SMOOTH",
"1376 1102 OFFCURVE",
"1427 1090 OFFCURVE",
"1482 1090 CURVE SMOOTH",
"1483 1090 OFFCURVE",
"1484 1090 OFFCURVE",
"1485 1091 CURVE",
"1541 1091 OFFCURVE",
"1595 1182 OFFCURVE",
"1648 1364 CURVE",
"1587 1364 OFFCURVE",
"1516 1387 OFFCURVE",
"1434 1432 CURVE SMOOTH",
"1351 1477 OFFCURVE",
"1298 1500 OFFCURVE",
"1274 1500 CURVE SMOOTH",
"1226 1500 OFFCURVE",
"980 1325 OFFCURVE",
"980 1224 CURVE SMOOTH",
"980 650 LINE",
"1095 683 OFFCURVE",
"1191 700 OFFCURVE",
"1266 700 CURVE SMOOTH",
"1310 700 OFFCURVE",
"1347 694 OFFCURVE",
"1378 683 CURVE SMOOTH",
"1442 658 OFFCURVE",
"1481 631 OFFCURVE",
"1494 603 CURVE",
"1437 620 OFFCURVE",
"1375 651 OFFCURVE",
"1308 697 CURVE",
"1308 679 LINE SMOOTH",
"1308 582 OFFCURVE",
"1277 500 OFFCURVE",
"1215 431 CURVE",
"1288 416 OFFCURVE",
"1355 406 OFFCURVE",
"1414 401 CURVE",
"1403 394 OFFCURVE",
"1391 387 OFFCURVE",
"1378 380 CURVE SMOOTH",
"1296 340 OFFCURVE",
"1187 320 OFFCURVE",
"1050 320 CURVE SMOOTH",
"923 320 OFFCURVE",
"821 332 OFFCURVE",
"744 355 CURVE SMOOTH",
"667 378 OFFCURVE",
"623 407 OFFCURVE",
"610 440 CURVE",
"743 527 OFFCURVE",
"810 619 OFFCURVE",
"810 718 CURVE SMOOTH",
"810 857 OFFCURVE",
"759 948 OFFCURVE",
"656 993 CURVE SMOOTH",
"601 1016 OFFCURVE",
"537 1028 OFFCURVE",
"463 1028 CURVE SMOOTH",
"397 1028 OFFCURVE",
"323 1019 OFFCURVE",
"241 1000 CURVE",
"281 1087 OFFCURVE",
"327 1137 OFFCURVE",
"380 1150 CURVE SMOOTH",
"399 1155 OFFCURVE",
"417 1157 OFFCURVE",
"436 1157 CURVE SMOOTH",
"468 1157 OFFCURVE",
"499 1150 OFFCURVE",
"529 1135 CURVE SMOOTH",
"576 1112 OFFCURVE",
"630 1100 OFFCURVE",
"692 1100 CURVE SMOOTH",
"693 1100 OFFCURVE",
"694 1100 OFFCURVE",
"695 1101 CURVE",
"758 1101 OFFCURVE",
"825 1189 OFFCURVE",
"898 1364 CURVE",
"801 1375 OFFCURVE",
"715 1401 OFFCURVE",
"640 1441 CURVE SMOOTH",
"564 1480 OFFCURVE",
"511 1500 OFFCURVE",
"482 1500 CURVE SMOOTH",
"423 1500 OFFCURVE",
"150 1325 OFFCURVE",
"150 1224 CURVE SMOOTH",
"150 650 LINE",
"258 683 OFFCURVE",
"368 703 OFFCURVE",
"481 710 CURVE SMOOTH",
"496 711 OFFCURVE",
"509 711 OFFCURVE",
"522 711 CURVE SMOOTH",
"607 711 OFFCURVE",
"650 692 OFFCURVE",
"650 653 CURVE SMOOTH",
"650 608 OFFCURVE",
"607 571 OFFCURVE",
"520 543 CURVE SMOOTH",
"433 514 OFFCURVE",
"310 500 OFFCURVE",
"150 500 CURVE",
"177 200 OFFCURVE",
"417 0 OFFCURVE",
"910 0 CURVE SMOOTH",
"1137 0 OFFCURVE",
"1317 61 OFFCURVE",
"1450 183 CURVE SMOOTH",
"1528 254 OFFCURVE",
"1583 331 OFFCURVE",
"1615 414 CURVE"
);
}
);
width = 1800;
}
);
note = uni179E;
unicode = 179E;
},
{
glyphname = uni179F;
lastChange = "2021-03-26 14:05:55 +0000";
layers = (
{
layerId = "B1070C97-2DE4-4FC8-9990-FF316D9539D4";
paths = (
{
closed = 1;
nodes = (
"474 1096 OFFCURVE",
"427 1132 OFFCURVE",
"385 1142 CURVE",
"418 1172 OFFCURVE",
"452 1187 OFFCURVE",
"487 1187 CURVE SMOOTH",
"492 1187 OFFCURVE",
"496 1187 OFFCURVE",
"500 1186 CURVE",
"539 1182 OFFCURVE",
"589 1167 OFFCURVE",
"650 1140 CURVE SMOOTH",
"709 1113 OFFCURVE",
"776 1100 OFFCURVE",
"850 1100 CURVE SMOOTH",
"851 1100 OFFCURVE",
"852 1100 OFFCURVE",
"853 1101 CURVE",
"928 1101 OFFCURVE",
"993 1189 OFFCURVE",
"1050 1364 CURVE",
"977 1364 OFFCURVE",
"890 1387 OFFCURVE",
"791 1432 CURVE SMOOTH",
"692 1477 OFFCURVE",
"627 1500 OFFCURVE",
"598 1500 CURVE SMOOTH",
"569 1500 OFFCURVE",
"503 1467 OFFCURVE",
"399 1400 CURVE SMOOTH",
"295 1333 OFFCURVE",
"214 1232 OFFCURVE",
"157 1095 CURVE",
"162 1095 LINE SMOOTH",
"223 1095 OFFCURVE",
"299 1056 OFFCURVE",
"390 977 CURVE",
"230 880 OFFCURVE",
"150 699 OFFCURVE",
"150 434 CURVE SMOOTH",
"150 198 OFFCURVE",
"308 0 OFFCURVE",
"501 0 CURVE SMOOTH",
"708 0 OFFCURVE",
"813 133 OFFCURVE",
"815 400 CURVE SMOOTH",
"815 407 LINE SMOOTH",
"815 589 OFFCURVE",
"741 680 OFFCURVE",
"594 680 CURVE SMOOTH",
"445 680 OFFCURVE",
"370 625 OFFCURVE",
"370 515 CURVE SMOOTH",
"370 405 OFFCURVE",
"417 350 OFFCURVE",
"510 350 CURVE SMOOTH",
"603 350 OFFCURVE",
"660 375 OFFCURVE",
"682 426 CURVE",
"686 427 OFFCURVE",
"690 427 OFFCURVE",
"693 427 CURVE SMOOTH",
"712 427 OFFCURVE",
"721 417 OFFCURVE",
"721 396 CURVE SMOOTH",
"721 387 OFFCURVE",
"719 376 OFFCURVE",
"716 363 CURVE SMOOTH",
"702 314 OFFCURVE",
"629 290 OFFCURVE",
"498 290 CURVE SMOOTH",
"366 290 OFFCURVE",
"300 363 OFFCURVE",
"300 510 CURVE SMOOTH",
"300 671 OFFCURVE",
"429 752 OFFCURVE",
"687 752 CURVE SMOOTH",
"874 752 OFFCURVE",
"1063 671 OFFCURVE",
"1163 506 CURVE",
"977 283 LINE SMOOTH",
"967 270 OFFCURVE",
"962 256 OFFCURVE",
"962 242 CURVE SMOOTH",
"962 201 OFFCURVE",
"1003 155 OFFCURVE",
"1085 104 CURVE SMOOTH",
"1195 35 OFFCURVE",
"1327 0 OFFCURVE",
"1480 0 CURVE SMOOTH",
"1907 0 OFFCURVE",
"2180 254 OFFCURVE",
"2180 601 CURVE SMOOTH",
"2180 767 OFFCURVE",
"2128 888 OFFCURVE",
"2023 965 CURVE SMOOTH",
"1961 1010 OFFCURVE",
"1888 1033 OFFCURVE",
"1804 1033 CURVE SMOOTH",
"1745 1033 OFFCURVE",
"1681 1022 OFFCURVE",
"1611 1000 CURVE",
"1631 1080 OFFCURVE",
"1666 1127 OFFCURVE",
"1715 1140 CURVE SMOOTH",
"1732 1145 OFFCURVE",
"1750 1147 OFFCURVE",
"1768 1147 CURVE SMOOTH",
"1799 1147 OFFCURVE",
"1829 1140 OFFCURVE",
"1859 1125 CURVE SMOOTH",
"1906 1102 OFFCURVE",
"1957 1090 OFFCURVE",
"2012 1090 CURVE SMOOTH",
"2013 1090 OFFCURVE",
"2014 1090 OFFCURVE",
"2015 1091 CURVE",
"2071 1091 OFFCURVE",
"2125 1182 OFFCURVE",
"2178 1364 CURVE",
"2117 1364 OFFCURVE",
"2046 1387 OFFCURVE",
"1964 1432 CURVE SMOOTH",
"1881 1477 OFFCURVE",
"1828 1500 OFFCURVE",
"1804 1500 CURVE SMOOTH",
"1756 1500 OFFCURVE",
"1510 1325 OFFCURVE",
"1510 1224 CURVE SMOOTH",
"1510 650 LINE",
"1625 683 OFFCURVE",
"1720 700 OFFCURVE",
"1795 700 CURVE SMOOTH",
"1840 700 OFFCURVE",
"1877 694 OFFCURVE",
"1908 683 CURVE SMOOTH",
"1989 651 OFFCURVE",
"2030 617 OFFCURVE",
"2030 580 CURVE SMOOTH",
"2030 393 OFFCURVE",
"1853 320 OFFCURVE",
"1580 320 CURVE SMOOTH",
"1405 320 OFFCURVE",
"1299 368 OFFCURVE",
"1264 464 CURVE",
"1416 697 LINE",
"1275 984 OFFCURVE",
"1069 1062 OFFCURVE",
"750 1062 CURVE SMOOTH",
"667 1062 OFFCURVE",
"592 1053 OFFCURVE",
"526 1035 CURVE"
);
}
);
width = 2330;
}
);
note = uni179F;
unicode = 179F;
},
{
glyphname = uni17A0;
lastChange = "2021-03-26 14:05:55 +0000";
layers = (
{
layerId = "B1070C97-2DE4-4FC8-9990-FF316D9539D4";
paths = (
{
closed = 1;
nodes = (
"1650 767 OFFCURVE",
"1604 888 OFFCURVE",
"1513 965 CURVE SMOOTH",
"1459 1010 OFFCURVE",
"1391 1033 OFFCURVE",
"1310 1033 CURVE SMOOTH",
"1254 1033 OFFCURVE",
"1191 1022 OFFCURVE",
"1121 1000 CURVE",
"1156 1067 OFFCURVE",
"1214 1115 OFFCURVE",
"1297 1145 CURVE SMOOTH",
"1379 1175 OFFCURVE",
"1467 1190 OFFCURVE",
"1561 1190 CURVE SMOOTH",
"1674 1190 OFFCURVE",
"1824 1142 OFFCURVE",
"2011 1047 CURVE SMOOTH",
"2197 952 OFFCURVE",
"2290 867 OFFCURVE",
"2290 793 CURVE SMOOTH",
"2290 684 OFFCURVE",
"2207 606 OFFCURVE",
"2040 560 CURVE SMOOTH",
"1873 514 OFFCURVE",
"1790 467 OFFCURVE",
"1790 420 CURVE SMOOTH",
"1790 345 OFFCURVE",
"1830 256 OFFCURVE",
"1910 154 CURVE SMOOTH",
"1989 51 OFFCURVE",
"2083 0 OFFCURVE",
"2190 0 CURVE SMOOTH",
"2243 0 OFFCURVE",
"2290 23 OFFCURVE",
"2330 70 CURVE SMOOTH",
"2370 117 OFFCURVE",
"2390 160 OFFCURVE",
"2390 200 CURVE SMOOTH",
"2390 1170 LINE SMOOTH",
"2390 1309 OFFCURVE",
"1996 1500 OFFCURVE",
"1636 1500 CURVE SMOOTH",
"1343 1500 OFFCURVE",
"1020 1275 OFFCURVE",
"1020 1174 CURVE SMOOTH",
"1020 650 LINE",
"1135 683 OFFCURVE",
"1228 700 OFFCURVE",
"1297 700 CURVE SMOOTH",
"1338 700 OFFCURVE",
"1372 694 OFFCURVE",
"1398 683 CURVE SMOOTH",
"1466 651 OFFCURVE",
"1500 617 OFFCURVE",
"1500 580 CURVE SMOOTH",
"1500 393 OFFCURVE",
"1323 320 OFFCURVE",
"1050 320 CURVE SMOOTH",
"923 320 OFFCURVE",
"821 332 OFFCURVE",
"744 355 CURVE SMOOTH",
"667 378 OFFCURVE",
"623 407 OFFCURVE",
"610 440 CURVE",
"743 527 OFFCURVE",
"810 619 OFFCURVE",
"810 718 CURVE SMOOTH",
"810 857 OFFCURVE",
"759 948 OFFCURVE",
"656 993 CURVE SMOOTH",
"601 1016 OFFCURVE",
"537 1028 OFFCURVE",
"463 1028 CURVE SMOOTH",
"397 1028 OFFCURVE",
"323 1019 OFFCURVE",
"241 1000 CURVE",
"281 1087 OFFCURVE",
"327 1137 OFFCURVE",
"380 1150 CURVE SMOOTH",
"399 1155 OFFCURVE",
"417 1157 OFFCURVE",
"436 1157 CURVE SMOOTH",
"468 1157 OFFCURVE",
"499 1150 OFFCURVE",
"529 1135 CURVE SMOOTH",
"576 1112 OFFCURVE",
"630 1100 OFFCURVE",
"692 1100 CURVE SMOOTH",
"693 1100 OFFCURVE",
"694 1100 OFFCURVE",
"695 1101 CURVE",
"758 1101 OFFCURVE",
"825 1189 OFFCURVE",
"898 1364 CURVE",
"801 1375 OFFCURVE",
"715 1401 OFFCURVE",
"640 1441 CURVE SMOOTH",
"564 1480 OFFCURVE",
"511 1500 OFFCURVE",
"482 1500 CURVE SMOOTH",
"423 1500 OFFCURVE",
"150 1325 OFFCURVE",
"150 1224 CURVE SMOOTH",
"150 650 LINE",
"258 683 OFFCURVE",
"368 703 OFFCURVE",
"481 710 CURVE SMOOTH",
"496 711 OFFCURVE",
"509 711 OFFCURVE",
"522 711 CURVE SMOOTH",
"607 711 OFFCURVE",
"650 692 OFFCURVE",
"650 653 CURVE SMOOTH",
"650 608 OFFCURVE",
"607 571 OFFCURVE",
"520 543 CURVE SMOOTH",
"433 514 OFFCURVE",
"310 500 OFFCURVE",
"150 500 CURVE",
"177 200 OFFCURVE",
"417 0 OFFCURVE",
"910 0 CURVE SMOOTH",
"1363 0 OFFCURVE",
"1650 288 OFFCURVE",
"1650 601 CURVE SMOOTH"
);
},
{
closed = 1;
nodes = (
"2238 406 OFFCURVE",
"2220 417 OFFCURVE",
"2207 440 CURVE SMOOTH",
"2200 451 OFFCURVE",
"2197 460 OFFCURVE",
"2197 469 CURVE SMOOTH",
"2197 478 OFFCURVE",
"2201 486 OFFCURVE",
"2209 493 CURVE SMOOTH",
"2224 506 OFFCURVE",
"2251 530 OFFCURVE",
"2290 567 CURVE",
"2290 450 LINE SMOOTH",
"2290 421 OFFCURVE",
"2280 406 OFFCURVE",
"2259 406 CURVE SMOOTH"
);
}
);
width = 2540;
}
);
note = uni17A0;
unicode = 17A0;
},
{
glyphname = uni17A1;
lastChange = "2021-03-26 14:05:55 +0000";
layers = (
{
layerId = "B1070C97-2DE4-4FC8-9990-FF316D9539D4";
paths = (
{
closed = 1;
nodes = (
"674 330 OFFCURVE",
"630 352 OFFCURVE",
"591 395 CURVE",
"737 492 OFFCURVE",
"810 599 OFFCURVE",
"810 718 CURVE SMOOTH",
"810 857 OFFCURVE",
"759 948 OFFCURVE",
"656 993 CURVE SMOOTH",
"591 1021 OFFCURVE",
"519 1035 OFFCURVE",
"442 1035 CURVE SMOOTH",
"397 1035 OFFCURVE",
"351 1030 OFFCURVE",
"302 1021 CURVE",
"426 1104 OFFCURVE",
"565 1190 OFFCURVE",
"953 1190 CURVE SMOOTH",
"1102 1190 OFFCURVE",
"1231 1169 OFFCURVE",
"1339 1126 CURVE SMOOTH",
"1447 1083 OFFCURVE",
"1501 1040 OFFCURVE",
"1501 995 CURVE SMOOTH",
"1501 960 OFFCURVE",
"1473 942 OFFCURVE",
"1418 942 CURVE SMOOTH",
"1412 942 LINE SMOOTH",
"1357 943 OFFCURVE",
"1330 965 OFFCURVE",
"1330 1007 CURVE SMOOTH",
"1330 1012 OFFCURVE",
"1330 1016 OFFCURVE",
"1331 1021 CURVE",
"1298 1067 OFFCURVE",
"1240 1090 OFFCURVE",
"1155 1090 CURVE SMOOTH",
"1151 1090 LINE SMOOTH",
"1024 1090 OFFCURVE",
"960 1022 OFFCURVE",
"960 885 CURVE SMOOTH",
"960 748 OFFCURVE",
"1061 680 OFFCURVE",
"1264 680 CURVE SMOOTH",
"1515 680 OFFCURVE",
"1650 872 OFFCURVE",
"1650 1008 CURVE SMOOTH",
"1650 1251 OFFCURVE",
"1337 1500 OFFCURVE",
"949 1500 CURVE SMOOTH",
"522 1500 OFFCURVE",
"270 1308 OFFCURVE",
"150 1116 CURVE",
"150 650 LINE",
"258 683 OFFCURVE",
"368 703 OFFCURVE",
"481 710 CURVE SMOOTH",
"496 711 OFFCURVE",
"509 711 OFFCURVE",
"522 711 CURVE SMOOTH",
"607 711 OFFCURVE",
"650 692 OFFCURVE",
"650 653 CURVE SMOOTH",
"650 608 OFFCURVE",
"615 571 OFFCURVE",
"545 543 CURVE SMOOTH",
"475 514 OFFCURVE",
"377 500 OFFCURVE",
"250 500 CURVE SMOOTH",
"150 500 LINE",
"150 368 LINE SMOOTH",
"150 279 OFFCURVE",
"198 196 OFFCURVE",
"295 118 CURVE SMOOTH",
"392 39 OFFCURVE",
"500 0 OFFCURVE",
"620 0 CURVE SMOOTH",
"800 0 OFFCURVE",
"928 72 OFFCURVE",
"1005 215 CURVE SMOOTH",
"1082 358 OFFCURVE",
"1163 430 OFFCURVE",
"1250 430 CURVE SMOOTH",
"1350 430 OFFCURVE",
"1400 408 OFFCURVE",
"1400 365 CURVE SMOOTH",
"1400 335 OFFCURVE",
"1383 320 OFFCURVE",
"1350 320 CURVE SMOOTH",
"1317 320 OFFCURVE",
"1300 337 OFFCURVE",
"1300 370 CURVE",
"1233 370 OFFCURVE",
"1183 353 OFFCURVE",
"1150 320 CURVE",
"1117 307 OFFCURVE",
"1100 267 OFFCURVE",
"1100 200 CURVE SMOOTH",
"1100 133 OFFCURVE",
"1121 83 OFFCURVE",
"1162 50 CURVE SMOOTH",
"1204 17 OFFCURVE",
"1267 0 OFFCURVE",
"1350 0 CURVE SMOOTH",
"1517 0 OFFCURVE",
"1650 154 OFFCURVE",
"1650 319 CURVE SMOOTH",
"1650 484 OFFCURVE",
"1487 620 OFFCURVE",
"1320 620 CURVE SMOOTH",
"1187 620 OFFCURVE",
"1068 572 OFFCURVE",
"965 475 CURVE SMOOTH",
"861 378 OFFCURVE",
"781 330 OFFCURVE",
"724 330 CURVE SMOOTH"
);
},
{
closed = 1;
nodes = (
"2367 917 OFFCURVE",
"2305 968 OFFCURVE",
"2213 1003 CURVE SMOOTH",
"2168 1020 OFFCURVE",
"2125 1028 OFFCURVE",
"2082 1028 CURVE SMOOTH",
"2037 1028 OFFCURVE",
"1994 1019 OFFCURVE",
"1951 1000 CURVE",
"1971 1080 OFFCURVE",
"1997 1127 OFFCURVE",
"2030 1140 CURVE SMOOTH",
"2041 1145 OFFCURVE",
"2053 1147 OFFCURVE",
"2066 1147 CURVE SMOOTH",
"2089 1147 OFFCURVE",
"2113 1140 OFFCURVE",
"2139 1125 CURVE SMOOTH",
"2179 1102 OFFCURVE",
"2227 1090 OFFCURVE",
"2282 1090 CURVE SMOOTH",
"2283 1090 OFFCURVE",
"2284 1090 OFFCURVE",
"2285 1091 CURVE",
"2341 1091 OFFCURVE",
"2396 1182 OFFCURVE",
"2450 1364 CURVE",
"2388 1364 OFFCURVE",
"2319 1387 OFFCURVE",
"2244 1432 CURVE SMOOTH",
"2168 1477 OFFCURVE",
"2118 1500 OFFCURVE",
"2094 1500 CURVE SMOOTH",
"2046 1500 OFFCURVE",
"1850 1325 OFFCURVE",
"1850 1224 CURVE SMOOTH",
"1850 650 LINE",
"1945 683 OFFCURVE",
"2024 700 OFFCURVE",
"2089 700 CURVE SMOOTH",
"2127 700 OFFCURVE",
"2160 694 OFFCURVE",
"2188 683 CURVE SMOOTH",
"2225 667 OFFCURVE",
"2246 650 OFFCURVE",
"2250 633 CURVE",
"2250 -350 LINE SMOOTH",
"2250 -437 OFFCURVE",
"2190 -480 OFFCURVE",
"2070 -480 CURVE SMOOTH",
"1957 -480 OFFCURVE",
"1867 -433 OFFCURVE",
"1800 -340 CURVE",
"1740 -433 OFFCURVE",
"1657 -480 OFFCURVE",
"1550 -480 CURVE SMOOTH",
"1483 -480 OFFCURVE",
"1450 -467 OFFCURVE",
"1450 -440 CURVE",
"1483 -380 OFFCURVE",
"1500 -317 OFFCURVE",
"1500 -250 CURVE SMOOTH",
"1500 -150 OFFCURVE",
"1442 -100 OFFCURVE",
"1325 -100 CURVE SMOOTH",
"1208 -100 OFFCURVE",
"1150 -150 OFFCURVE",
"1150 -250 CURVE SMOOTH",
"1150 -317 OFFCURVE",
"1200 -350 OFFCURVE",
"1300 -350 CURVE",
"1300 -303 OFFCURVE",
"1317 -280 OFFCURVE",
"1350 -280 CURVE SMOOTH",
"1383 -280 OFFCURVE",
"1400 -288 OFFCURVE",
"1400 -305 CURVE SMOOTH",
"1400 -306 LINE SMOOTH",
"1400 -323 OFFCURVE",
"1385 -349 OFFCURVE",
"1356 -385 CURVE SMOOTH",
"1325 -422 OFFCURVE",
"1257 -440 OFFCURVE",
"1150 -440 CURVE",
"1150 -613 OFFCURVE",
"1267 -700 OFFCURVE",
"1500 -700 CURVE SMOOTH",
"1633 -700 OFFCURVE",
"1733 -650 OFFCURVE",
"1800 -550 CURVE",
"1867 -650 OFFCURVE",
"1967 -700 OFFCURVE",
"2100 -700 CURVE SMOOTH",
"2300 -700 OFFCURVE",
"2400 -600 OFFCURVE",
"2400 -400 CURVE SMOOTH",
"2400 850 LINE"
);
}
);
width = 2550;
}
);
note = uni17A1;
unicode = 17A1;
},
{
glyphname = uni17A2;
lastChange = "2021-03-26 14:05:55 +0000";
layers = (
{
layerId = "B1070C97-2DE4-4FC8-9990-FF316D9539D4";
paths = (
{
closed = 1;
nodes = (
"717 917 OFFCURVE",
"655 968 OFFCURVE",
"563 1003 CURVE SMOOTH",
"518 1020 OFFCURVE",
"471 1028 OFFCURVE",
"420 1028 CURVE SMOOTH",
"367 1028 OFFCURVE",
"310 1019 OFFCURVE",
"251 1000 CURVE",
"271 1080 OFFCURVE",
"302 1127 OFFCURVE",
"345 1140 CURVE SMOOTH",
"360 1145 OFFCURVE",
"376 1147 OFFCURVE",
"392 1147 CURVE SMOOTH",
"420 1147 OFFCURVE",
"449 1140 OFFCURVE",
"479 1125 CURVE SMOOTH",
"526 1102 OFFCURVE",
"577 1090 OFFCURVE",
"632 1090 CURVE SMOOTH",
"633 1090 OFFCURVE",
"634 1090 OFFCURVE",
"635 1091 CURVE",
"691 1091 OFFCURVE",
"746 1182 OFFCURVE",
"800 1364 CURVE",
"738 1364 OFFCURVE",
"669 1387 OFFCURVE",
"594 1432 CURVE SMOOTH",
"518 1477 OFFCURVE",
"468 1500 OFFCURVE",
"444 1500 CURVE SMOOTH",
"396 1500 OFFCURVE",
"150 1325 OFFCURVE",
"150 1224 CURVE SMOOTH",
"150 650 LINE",
"265 683 OFFCURVE",
"359 700 OFFCURVE",
"432 700 CURVE SMOOTH",
"475 700 OFFCURVE",
"510 694 OFFCURVE",
"538 683 CURVE SMOOTH",
"575 667 OFFCURVE",
"603 650 OFFCURVE",
"622 633 CURVE",
"617 633 LINE",
"444 524 OFFCURVE",
"289 463 OFFCURVE",
"150 450 CURVE",
"150 355 OFFCURVE",
"190 256 OFFCURVE",
"270 154 CURVE SMOOTH",
"349 51 OFFCURVE",
"443 0 OFFCURVE",
"550 0 CURVE SMOOTH",
"603 0 OFFCURVE",
"670 47 OFFCURVE",
"750 140 CURVE",
"750 850 LINE"
);
},
{
closed = 1;
nodes = (
"1617 917 OFFCURVE",
"1555 968 OFFCURVE",
"1463 1003 CURVE SMOOTH",
"1418 1020 OFFCURVE",
"1371 1028 OFFCURVE",
"1320 1028 CURVE SMOOTH",
"1267 1028 OFFCURVE",
"1210 1019 OFFCURVE",
"1151 1000 CURVE",
"1171 1080 OFFCURVE",
"1202 1127 OFFCURVE",
"1245 1140 CURVE SMOOTH",
"1260 1145 OFFCURVE",
"1276 1147 OFFCURVE",
"1292 1147 CURVE SMOOTH",
"1320 1147 OFFCURVE",
"1349 1140 OFFCURVE",
"1379 1125 CURVE SMOOTH",
"1426 1102 OFFCURVE",
"1477 1090 OFFCURVE",
"1532 1090 CURVE SMOOTH",
"1533 1090 OFFCURVE",
"1534 1090 OFFCURVE",
"1535 1091 CURVE",
"1591 1091 OFFCURVE",
"1646 1182 OFFCURVE",
"1700 1364 CURVE",
"1638 1364 OFFCURVE",
"1569 1387 OFFCURVE",
"1494 1432 CURVE SMOOTH",
"1418 1477 OFFCURVE",
"1368 1500 OFFCURVE",
"1344 1500 CURVE SMOOTH",
"1296 1500 OFFCURVE",
"1050 1325 OFFCURVE",
"1050 1224 CURVE SMOOTH",
"1050 650 LINE",
"1165 683 OFFCURVE",
"1259 700 OFFCURVE",
"1332 700 CURVE SMOOTH",
"1375 700 OFFCURVE",
"1410 694 OFFCURVE",
"1438 683 CURVE SMOOTH",
"1475 667 OFFCURVE",
"1503 650 OFFCURVE",
"1522 633 CURVE",
"1517 633 LINE",
"1344 524 OFFCURVE",
"1189 463 OFFCURVE",
"1050 450 CURVE",
"1050 355 OFFCURVE",
"1090 256 OFFCURVE",
"1170 154 CURVE SMOOTH",
"1249 51 OFFCURVE",
"1343 0 OFFCURVE",
"1450 0 CURVE SMOOTH",
"1503 0 OFFCURVE",
"1570 47 OFFCURVE",
"1650 140 CURVE",
"1650 850 LINE"
);
},
{
closed = 1;
nodes = (
"810 689 OFFCURVE",
"811 671 OFFCURVE",
"811 653 CURVE SMOOTH",
"811 579 OFFCURVE",
"793 513 OFFCURVE",
"756 455 CURVE",
"807 448 OFFCURVE",
"854 444 OFFCURVE",
"896 444 CURVE SMOOTH",
"976 444 OFFCURVE",
"1039 457 OFFCURVE",
"1086 483 CURVE SMOOTH",
"1157 524 OFFCURVE",
"1203 586 OFFCURVE",
"1223 671 CURVE",
"1147 648 OFFCURVE",
"1079 635 OFFCURVE",
"1019 632 CURVE",
"1015 631 OFFCURVE",
"1011 631 OFFCURVE",
"1007 631 CURVE SMOOTH",
"950 631 OFFCURVE",
"883 656 OFFCURVE",
"808 707 CURVE"
);
},
{
closed = 1;
nodes = (
"598 406 OFFCURVE",
"580 417 OFFCURVE",
"567 440 CURVE SMOOTH",
"560 451 OFFCURVE",
"557 460 OFFCURVE",
"557 469 CURVE SMOOTH",
"557 478 OFFCURVE",
"561 486 OFFCURVE",
"569 493 CURVE SMOOTH",
"584 506 OFFCURVE",
"611 530 OFFCURVE",
"650 567 CURVE",
"650 450 LINE SMOOTH",
"650 421 OFFCURVE",
"640 406 OFFCURVE",
"619 406 CURVE SMOOTH"
);
},
{
closed = 1;
nodes = (
"1498 406 OFFCURVE",
"1480 417 OFFCURVE",
"1467 440 CURVE SMOOTH",
"1460 451 OFFCURVE",
"1457 460 OFFCURVE",
"1457 469 CURVE SMOOTH",
"1457 478 OFFCURVE",
"1461 486 OFFCURVE",
"1469 493 CURVE SMOOTH",
"1484 506 OFFCURVE",
"1511 530 OFFCURVE",
"1550 567 CURVE",
"1550 450 LINE SMOOTH",
"1550 421 OFFCURVE",
"1540 406 OFFCURVE",
"1519 406 CURVE SMOOTH"
);
}
);
width = 1800;
}
);
note = uni17A2;
unicode = 17A2;
},
{
glyphname = uni17A5;
lastChange = "2021-03-26 14:05:55 +0000";
layers = (
{
layerId = "B1070C97-2DE4-4FC8-9990-FF316D9539D4";
paths = (
{
closed = 1;
nodes = (
"157 1013 OFFCURVE",
"164 1014 OFFCURVE",
"171 1014 CURVE SMOOTH",
"214 1014 OFFCURVE",
"266 985 OFFCURVE",
"327 928 CURVE",
"413 995 LINE",
"373 1050 OFFCURVE",
"328 1081 OFFCURVE",
"279 1090 CURVE",
"346 1155 OFFCURVE",
"435 1188 OFFCURVE",
"545 1188 CURVE SMOOTH",
"635 1188 OFFCURVE",
"735 1167 OFFCURVE",
"846 1126 CURVE SMOOTH",
"956 1085 OFFCURVE",
"1066 1064 OFFCURVE",
"1176 1064 CURVE SMOOTH",
"1385 1064 OFFCURVE",
"1650 1285 OFFCURVE",
"1650 1469 CURVE SMOOTH",
"1650 1653 OFFCURVE",
"1481 1759 OFFCURVE",
"1316 1759 CURVE SMOOTH",
"1233 1759 OFFCURVE",
"1174 1727 OFFCURVE",
"1141 1662 CURVE SMOOTH",
"1132 1646 OFFCURVE",
"1128 1631 OFFCURVE",
"1128 1616 CURVE SMOOTH",
"1128 1571 OFFCURVE",
"1167 1532 OFFCURVE",
"1246 1500 CURVE SMOOTH",
"1349 1457 OFFCURVE",
"1401 1411 OFFCURVE",
"1401 1360 CURVE SMOOTH",
"1401 1309 OFFCURVE",
"1380 1283 OFFCURVE",
"1339 1283 CURVE SMOOTH",
"1291 1283 OFFCURVE",
"1198 1321 OFFCURVE",
"1059 1398 CURVE SMOOTH",
"920 1474 OFFCURVE",
"800 1512 OFFCURVE",
"699 1513 CURVE SMOOTH",
"495 1513 OFFCURVE",
"249 1368 OFFCURVE",
"150 1199 CURVE",
"150 1012 LINE"
);
},
{
closed = 1;
nodes = (
"476 1060 OFFCURVE",
"150 915 OFFCURVE",
"150 495 CURVE SMOOTH",
"150 165 OFFCURVE",
"297 0 OFFCURVE",
"590 0 CURVE SMOOTH",
"709 0 OFFCURVE",
"802 52 OFFCURVE",
"868 157 CURVE SMOOTH",
"907 219 OFFCURVE",
"926 282 OFFCURVE",
"926 347 CURVE SMOOTH",
"926 392 OFFCURVE",
"917 437 OFFCURVE",
"899 483 CURVE SMOOTH",
"859 585 OFFCURVE",
"779 636 OFFCURVE",
"658 636 CURVE SMOOTH",
"645 636 OFFCURVE",
"631 635 OFFCURVE",
"616 634 CURVE SMOOTH",
"472 621 OFFCURVE",
"400 563 OFFCURVE",
"400 461 CURVE SMOOTH",
"400 362 OFFCURVE",
"461 312 OFFCURVE",
"582 312 CURVE SMOOTH",
"594 312 LINE",
"585 277 OFFCURVE",
"567 260 OFFCURVE",
"538 260 CURVE SMOOTH",
"379 260 OFFCURVE",
"300 313 OFFCURVE",
"300 420 CURVE SMOOTH",
"300 633 OFFCURVE",
"461 710 OFFCURVE",
"796 710 CURVE SMOOTH",
"963 710 OFFCURVE",
"1203 684 OFFCURVE",
"1517 633 CURVE",
"1344 524 OFFCURVE",
"1189 463 OFFCURVE",
"1050 450 CURVE",
"1050 355 OFFCURVE",
"1090 256 OFFCURVE",
"1170 154 CURVE SMOOTH",
"1249 51 OFFCURVE",
"1343 0 OFFCURVE",
"1450 0 CURVE SMOOTH",
"1503 0 OFFCURVE",
"1570 47 OFFCURVE",
"1650 140 CURVE",
"1650 980 LINE",
"1298 1033 OFFCURVE",
"1030 1060 OFFCURVE",
"845 1060 CURVE SMOOTH"
);
},
{
closed = 1;
nodes = (
"1460 451 OFFCURVE",
"1457 460 OFFCURVE",
"1457 469 CURVE SMOOTH",
"1457 478 OFFCURVE",
"1461 486 OFFCURVE",
"1469 493 CURVE SMOOTH",
"1484 506 OFFCURVE",
"1511 530 OFFCURVE",
"1550 567 CURVE",
"1550 450 LINE SMOOTH",
"1550 421 OFFCURVE",
"1540 406 OFFCURVE",
"1519 406 CURVE SMOOTH",
"1498 406 OFFCURVE",
"1480 417 OFFCURVE",
"1467 440 CURVE SMOOTH"
);
}
);
width = 1800;
}
);
note = uni17A5;
unicode = 17A5;
},
{
glyphname = uni17A6;
lastChange = "2021-03-26 14:05:55 +0000";
layers = (
{
layerId = "B1070C97-2DE4-4FC8-9990-FF316D9539D4";
paths = (
{
closed = 1;
nodes = (
"2550 767 OFFCURVE",
"2498 888 OFFCURVE",
"2393 965 CURVE SMOOTH",
"2331 1010 OFFCURVE",
"2258 1033 OFFCURVE",
"2174 1033 CURVE SMOOTH",
"2115 1033 OFFCURVE",
"2051 1022 OFFCURVE",
"1981 1000 CURVE",
"2001 1080 OFFCURVE",
"2036 1127 OFFCURVE",
"2085 1140 CURVE SMOOTH",
"2102 1145 OFFCURVE",
"2120 1147 OFFCURVE",
"2138 1147 CURVE SMOOTH",
"2169 1147 OFFCURVE",
"2199 1140 OFFCURVE",
"2229 1125 CURVE SMOOTH",
"2276 1102 OFFCURVE",
"2327 1090 OFFCURVE",
"2382 1090 CURVE SMOOTH",
"2383 1090 OFFCURVE",
"2384 1090 OFFCURVE",
"2385 1091 CURVE",
"2497 1091 OFFCURVE",
"2550 1252 OFFCURVE",
"2550 1484 CURVE SMOOTH",
"2550 1811 OFFCURVE",
"2381 1889 OFFCURVE",
"2216 1889 CURVE SMOOTH",
"2133 1889 OFFCURVE",
"2083 1848 OFFCURVE",
"2068 1765 CURVE SMOOTH",
"2065 1753 OFFCURVE",
"2064 1742 OFFCURVE",
"2064 1731 CURVE SMOOTH",
"2064 1665 OFFCURVE",
"2105 1616 OFFCURVE",
"2187 1583 CURVE",
"2222 1590 OFFCURVE",
"2253 1594 OFFCURVE",
"2279 1594 CURVE SMOOTH",
"2360 1594 OFFCURVE",
"2400 1559 OFFCURVE",
"2400 1489 CURVE SMOOTH",
"2400 1461 OFFCURVE",
"2389 1442 OFFCURVE",
"2367 1433 CURVE SMOOTH",
"2361 1430 OFFCURVE",
"2354 1429 OFFCURVE",
"2347 1429 CURVE SMOOTH",
"2327 1429 OFFCURVE",
"2302 1439 OFFCURVE",
"2272 1459 CURVE SMOOTH",
"2231 1486 OFFCURVE",
"2198 1500 OFFCURVE",
"2174 1500 CURVE SMOOTH",
"2126 1500 OFFCURVE",
"1880 1325 OFFCURVE",
"1880 1224 CURVE SMOOTH",
"1880 650 LINE",
"1995 683 OFFCURVE",
"2090 700 OFFCURVE",
"2165 700 CURVE SMOOTH",
"2210 700 OFFCURVE",
"2247 694 OFFCURVE",
"2278 683 CURVE SMOOTH",
"2359 651 OFFCURVE",
"2400 617 OFFCURVE",
"2400 580 CURVE SMOOTH",
"2400 -150 LINE SMOOTH",
"2400 -250 OFFCURVE",
"2363 -325 OFFCURVE",
"2288 -375 CURVE SMOOTH",
"2213 -425 OFFCURVE",
"2100 -450 OFFCURVE",
"1950 -450 CURVE SMOOTH",
"1935 -450 LINE SMOOTH",
"1762 -450 OFFCURVE",
"1667 -439 OFFCURVE",
"1648 -416 CURVE SMOOTH",
"1628 -393 OFFCURVE",
"1601 -371 OFFCURVE",
"1567 -348 CURVE SMOOTH",
"1533 -325 OFFCURVE",
"1494 -314 OFFCURVE",
"1450 -314 CURVE",
"1450 -195 LINE SMOOTH",
"1450 -151 OFFCURVE",
"1407 -116 OFFCURVE",
"1322 -91 CURVE SMOOTH",
"1237 -66 OFFCURVE",
"1111 -53 OFFCURVE",
"945 -53 CURVE SMOOTH",
"939 -53 LINE SMOOTH",
"742 -53 OFFCURVE",
"594 -85 OFFCURVE",
"497 -150 CURVE SMOOTH",
"400 -215 OFFCURVE",
"351 -301 OFFCURVE",
"350 -409 CURVE SMOOTH",
"350 -493 OFFCURVE",
"381 -562 OFFCURVE",
"442 -617 CURVE SMOOTH",
"503 -672 OFFCURVE",
"568 -700 OFFCURVE",
"637 -700 CURVE SMOOTH",
"788 -700 OFFCURVE",
"863 -641 OFFCURVE",
"863 -524 CURVE SMOOTH",
"863 -471 OFFCURVE",
"845 -428 OFFCURVE",
"808 -395 CURVE SMOOTH",
"771 -361 OFFCURVE",
"729 -344 OFFCURVE",
"680 -344 CURVE SMOOTH",
"631 -344 OFFCURVE",
"595 -358 OFFCURVE",
"571 -386 CURVE SMOOTH",
"555 -405 OFFCURVE",
"547 -424 OFFCURVE",
"547 -442 CURVE SMOOTH",
"547 -451 OFFCURVE",
"549 -459 OFFCURVE",
"552 -467 CURVE",
"501 -467 OFFCURVE",
"475 -449 OFFCURVE",
"475 -412 CURVE SMOOTH",
"475 -367 OFFCURVE",
"513 -334 OFFCURVE",
"589 -312 CURVE SMOOTH",
"664 -290 OFFCURVE",
"778 -279 OFFCURVE",
"929 -279 CURVE SMOOTH",
"1175 -279 OFFCURVE",
"1312 -291 OFFCURVE",
"1340 -314 CURVE",
"1193 -314 LINE SMOOTH",
"1096 -314 OFFCURVE",
"1035 -352 OFFCURVE",
"1010 -428 CURVE",
"1057 -609 OFFCURVE",
"1143 -700 OFFCURVE",
"1268 -700 CURVE SMOOTH",
"1383 -700 OFFCURVE",
"1450 -603 OFFCURVE",
"1450 -475 CURVE SMOOTH",
"1450 -410 LINE",
"1489 -410 OFFCURVE",
"1517 -438 OFFCURVE",
"1534 -493 CURVE SMOOTH",
"1551 -548 OFFCURVE",
"1581 -596 OFFCURVE",
"1625 -637 CURVE SMOOTH",
"1668 -678 OFFCURVE",
"1777 -699 OFFCURVE",
"1950 -700 CURVE SMOOTH",
"2117 -700 OFFCURVE",
"2250 -675 OFFCURVE",
"2350 -625 CURVE SMOOTH",
"2450 -575 OFFCURVE",
"2517 -500 OFFCURVE",
"2550 -400 CURVE",
"2550 601 LINE SMOOTH"
);
},
{
closed = 1;
nodes = (
"800 788 OFFCURVE",
"726 903 OFFCURVE",
"577 903 CURVE SMOOTH",
"442 903 OFFCURVE",
"375 824 OFFCURVE",
"375 665 CURVE SMOOTH",
"375 546 OFFCURVE",
"422 487 OFFCURVE",
"517 487 CURVE SMOOTH",
"568 487 OFFCURVE",
"602 497 OFFCURVE",
"620 518 CURVE SMOOTH",
"629 529 OFFCURVE",
"639 535 OFFCURVE",
"650 535 CURVE SMOOTH",
"657 535 OFFCURVE",
"665 532 OFFCURVE",
"673 525 CURVE SMOOTH",
"691 509 OFFCURVE",
"700 488 OFFCURVE",
"700 461 CURVE SMOOTH",
"700 415 OFFCURVE",
"650 387 OFFCURVE",
"550 377 CURVE SMOOTH",
"538 376 OFFCURVE",
"526 375 OFFCURVE",
"514 375 CURVE SMOOTH",
"433 375 OFFCURVE",
"375 406 OFFCURVE",
"340 469 CURVE SMOOTH",
"300 540 OFFCURVE",
"280 634 OFFCURVE",
"280 750 CURVE SMOOTH",
"280 977 OFFCURVE",
"433 1150 OFFCURVE",
"912 1150 CURVE SMOOTH",
"1151 1150 OFFCURVE",
"1317 1109 OFFCURVE",
"1410 1027 CURVE SMOOTH",
"1503 945 OFFCURVE",
"1550 867 OFFCURVE",
"1550 793 CURVE SMOOTH",
"1550 684 OFFCURVE",
"1467 606 OFFCURVE",
"1300 560 CURVE SMOOTH",
"1133 514 OFFCURVE",
"1050 467 OFFCURVE",
"1050 420 CURVE SMOOTH",
"1050 345 OFFCURVE",
"1090 256 OFFCURVE",
"1170 154 CURVE SMOOTH",
"1249 51 OFFCURVE",
"1343 0 OFFCURVE",
"1450 0 CURVE SMOOTH",
"1503 0 OFFCURVE",
"1550 23 OFFCURVE",
"1590 70 CURVE SMOOTH",
"1630 117 OFFCURVE",
"1650 160 OFFCURVE",
"1650 200 CURVE SMOOTH",
"1650 1170 LINE SMOOTH",
"1650 1239 OFFCURVE",
"1595 1312 OFFCURVE",
"1485 1387 CURVE SMOOTH",
"1375 1462 OFFCURVE",
"1180 1500 OFFCURVE",
"900 1500 CURVE SMOOTH",
"339 1500 OFFCURVE",
"150 1230 OFFCURVE",
"150 750 CURVE SMOOTH",
"150 250 OFFCURVE",
"277 0 OFFCURVE",
"531 0 CURVE SMOOTH",
"710 0 OFFCURVE",
"800 186 OFFCURVE",
"800 558 CURVE SMOOTH"
);
},
{
closed = 1;
nodes = (
"1498 406 OFFCURVE",
"1480 417 OFFCURVE",
"1467 440 CURVE SMOOTH",
"1460 451 OFFCURVE",
"1457 460 OFFCURVE",
"1457 469 CURVE SMOOTH",
"1457 478 OFFCURVE",
"1461 486 OFFCURVE",
"1469 493 CURVE SMOOTH",
"1484 506 OFFCURVE",
"1511 530 OFFCURVE",
"1550 567 CURVE",
"1550 450 LINE SMOOTH",
"1550 421 OFFCURVE",
"1540 406 OFFCURVE",
"1519 406 CURVE SMOOTH"
);
},
{
closed = 1;
nodes = (
"1295 -459 OFFCURVE",
"1267 -441 OFFCURVE",
"1254 -410 CURVE",
"1340 -410 LINE",
"1340 -462 LINE"
);
}
);
width = 2700;
}
);
note = uni17A6;
unicode = 17A6;
},
{
glyphname = uni17A7;
lastChange = "2021-03-26 14:05:55 +0000";
layers = (
{
layerId = "B1070C97-2DE4-4FC8-9990-FF316D9539D4";
paths = (
{
closed = 1;
nodes = (
"1250 892 OFFCURVE",
"1142 786 OFFCURVE",
"925 692 CURVE SMOOTH",
"708 597 OFFCURVE",
"450 540 OFFCURVE",
"150 520 CURVE",
"150 398 LINE SMOOTH",
"150 234 OFFCURVE",
"467 0 OFFCURVE",
"800 0 CURVE SMOOTH",
"1033 0 OFFCURVE",
"1203 98 OFFCURVE",
"1310 294 CURVE",
"1310 98 OFFCURVE",
"1293 0 OFFCURVE",
"1260 0 CURVE",
"1325 -17 OFFCURVE",
"1381 -25 OFFCURVE",
"1430 -25 CURVE SMOOTH",
"1576 -25 OFFCURVE",
"1649 50 OFFCURVE",
"1650 200 CURVE SMOOTH",
"1650 630 LINE SMOOTH",
"1650 669 OFFCURVE",
"1624 688 OFFCURVE",
"1572 688 CURVE SMOOTH",
"1515 688 OFFCURVE",
"1428 665 OFFCURVE",
"1310 620 CURVE",
"1310 427 OFFCURVE",
"1173 310 OFFCURVE",
"890 310 CURVE SMOOTH",
"769 310 OFFCURVE",
"665 333 OFFCURVE",
"640 400 CURVE",
"973 489 OFFCURVE",
"1650 797 OFFCURVE",
"1650 1089 CURVE SMOOTH",
"1650 1363 OFFCURVE",
"1400 1500 OFFCURVE",
"900 1500 CURVE SMOOTH",
"400 1500 OFFCURVE",
"150 1347 OFFCURVE",
"150 1040 CURVE SMOOTH",
"150 827 OFFCURVE",
"319 720 OFFCURVE",
"658 720 CURVE SMOOTH",
"753 720 OFFCURVE",
"846 755 OFFCURVE",
"894 815 CURVE SMOOTH",
"918 844 OFFCURVE",
"930 875 OFFCURVE",
"930 908 CURVE SMOOTH",
"930 973 OFFCURVE",
"878 1039 OFFCURVE",
"791 1072 CURVE SMOOTH",
"748 1088 OFFCURVE",
"703 1096 OFFCURVE",
"658 1096 CURVE SMOOTH",
"566 1096 OFFCURVE",
"471 1062 OFFCURVE",
"423 1002 CURVE SMOOTH",
"398 972 OFFCURVE",
"386 941 OFFCURVE",
"386 908 CURVE SMOOTH",
"386 899 LINE",
"362 928 OFFCURVE",
"350 969 OFFCURVE",
"350 1020 CURVE SMOOTH",
"350 1140 OFFCURVE",
"500 1200 OFFCURVE",
"800 1200 CURVE SMOOTH",
"1100 1200 OFFCURVE",
"1250 1136 OFFCURVE",
"1250 1009 CURVE SMOOTH"
);
}
);
width = 1800;
}
);
note = uni17A7;
unicode = 17A7;
},
{
glyphname = uni17A8;
lastChange = "2021-03-26 14:05:55 +0000";
layers = (
{
layerId = "B1070C97-2DE4-4FC8-9990-FF316D9539D4";
paths = (
{
closed = 1;
nodes = (
"443 1628 OFFCURVE",
"376 1659 OFFCURVE",
"307 1664 CURVE",
"354 1689 OFFCURVE",
"390 1702 OFFCURVE",
"417 1702 CURVE SMOOTH",
"443 1702 OFFCURVE",
"501 1672 OFFCURVE",
"592 1613 CURVE SMOOTH",
"683 1554 OFFCURVE",
"749 1524 OFFCURVE",
"792 1524 CURVE SMOOTH",
"834 1524 OFFCURVE",
"888 1552 OFFCURVE",
"953 1607 CURVE SMOOTH",
"1018 1662 OFFCURVE",
"1064 1690 OFFCURVE",
"1091 1690 CURVE SMOOTH",
"1118 1690 OFFCURVE",
"1177 1670 OFFCURVE",
"1270 1630 CURVE SMOOTH",
"1362 1590 OFFCURVE",
"1444 1570 OFFCURVE",
"1515 1570 CURVE SMOOTH",
"1600 1570 OFFCURVE",
"1678 1653 OFFCURVE",
"1750 1820 CURVE",
"1671 1820 OFFCURVE",
"1586 1845 OFFCURVE",
"1493 1895 CURVE SMOOTH",
"1400 1945 OFFCURVE",
"1333 1970 OFFCURVE",
"1291 1970 CURVE SMOOTH",
"1248 1970 OFFCURVE",
"1191 1940 OFFCURVE",
"1119 1880 CURVE SMOOTH",
"1047 1820 OFFCURVE",
"995 1790 OFFCURVE",
"964 1790 CURVE SMOOTH",
"933 1790 OFFCURVE",
"871 1820 OFFCURVE",
"780 1880 CURVE SMOOTH",
"688 1940 OFFCURVE",
"613 1970 OFFCURVE",
"554 1970 CURVE SMOOTH",
"495 1970 OFFCURVE",
"360 1890 OFFCURVE",
"150 1730 CURVE",
"150 1524 LINE",
"161 1526 OFFCURVE",
"173 1527 OFFCURVE",
"185 1527 CURVE SMOOTH",
"252 1527 OFFCURVE",
"329 1500 OFFCURVE",
"418 1447 CURVE",
"507 1572 LINE"
);
},
{
closed = 1;
nodes = (
"1250 892 OFFCURVE",
"1142 786 OFFCURVE",
"925 692 CURVE SMOOTH",
"708 597 OFFCURVE",
"450 540 OFFCURVE",
"150 520 CURVE",
"150 398 LINE SMOOTH",
"150 234 OFFCURVE",
"467 0 OFFCURVE",
"800 0 CURVE SMOOTH",
"1033 0 OFFCURVE",
"1203 98 OFFCURVE",
"1310 294 CURVE",
"1310 98 OFFCURVE",
"1293 0 OFFCURVE",
"1260 0 CURVE",
"1325 -17 OFFCURVE",
"1381 -25 OFFCURVE",
"1430 -25 CURVE SMOOTH",
"1576 -25 OFFCURVE",
"1649 50 OFFCURVE",
"1650 200 CURVE SMOOTH",
"1650 630 LINE SMOOTH",
"1650 669 OFFCURVE",
"1624 688 OFFCURVE",
"1572 688 CURVE SMOOTH",
"1515 688 OFFCURVE",
"1428 665 OFFCURVE",
"1310 620 CURVE",
"1310 427 OFFCURVE",
"1173 310 OFFCURVE",
"890 310 CURVE SMOOTH",
"769 310 OFFCURVE",
"665 333 OFFCURVE",
"640 400 CURVE",
"973 489 OFFCURVE",
"1650 797 OFFCURVE",
"1650 1089 CURVE SMOOTH",
"1650 1363 OFFCURVE",
"1400 1500 OFFCURVE",
"900 1500 CURVE SMOOTH",
"400 1500 OFFCURVE",
"150 1347 OFFCURVE",
"150 1040 CURVE SMOOTH",
"150 827 OFFCURVE",
"319 720 OFFCURVE",
"658 720 CURVE SMOOTH",
"753 720 OFFCURVE",
"846 755 OFFCURVE",
"894 815 CURVE SMOOTH",
"918 844 OFFCURVE",
"930 875 OFFCURVE",
"930 908 CURVE SMOOTH",
"930 973 OFFCURVE",
"878 1039 OFFCURVE",
"791 1072 CURVE SMOOTH",
"748 1088 OFFCURVE",
"703 1096 OFFCURVE",
"658 1096 CURVE SMOOTH",
"566 1096 OFFCURVE",
"471 1062 OFFCURVE",
"423 1002 CURVE SMOOTH",
"398 972 OFFCURVE",
"386 941 OFFCURVE",
"386 908 CURVE SMOOTH",
"386 899 LINE",
"362 928 OFFCURVE",
"350 969 OFFCURVE",
"350 1020 CURVE SMOOTH",
"350 1140 OFFCURVE",
"500 1200 OFFCURVE",
"800 1200 CURVE SMOOTH",
"1100 1200 OFFCURVE",
"1250 1136 OFFCURVE",
"1250 1009 CURVE SMOOTH"
);
}
);
width = 1800;
}
);
note = uni17A8;
unicode = 17A8;
},
{
glyphname = uni17A9;
lastChange = "2021-03-26 14:05:55 +0000";
layers = (
{
layerId = "B1070C97-2DE4-4FC8-9990-FF316D9539D4";
paths = (
{
closed = 1;
nodes = (
"1250 892 OFFCURVE",
"1142 786 OFFCURVE",
"925 692 CURVE SMOOTH",
"708 597 OFFCURVE",
"450 540 OFFCURVE",
"150 520 CURVE",
"150 398 LINE SMOOTH",
"150 234 OFFCURVE",
"467 0 OFFCURVE",
"800 0 CURVE SMOOTH",
"1033 0 OFFCURVE",
"1203 98 OFFCURVE",
"1310 294 CURVE",
"1310 98 OFFCURVE",
"1293 0 OFFCURVE",
"1260 0 CURVE",
"1325 -17 OFFCURVE",
"1381 -25 OFFCURVE",
"1430 -25 CURVE SMOOTH",
"1576 -25 OFFCURVE",
"1649 50 OFFCURVE",
"1650 200 CURVE SMOOTH",
"1650 630 LINE SMOOTH",
"1650 669 OFFCURVE",
"1624 688 OFFCURVE",
"1572 688 CURVE SMOOTH",
"1515 688 OFFCURVE",
"1428 665 OFFCURVE",
"1310 620 CURVE",
"1310 427 OFFCURVE",
"1173 310 OFFCURVE",
"890 310 CURVE SMOOTH",
"769 310 OFFCURVE",
"665 333 OFFCURVE",
"640 400 CURVE",
"973 489 OFFCURVE",
"1650 797 OFFCURVE",
"1650 1089 CURVE SMOOTH",
"1650 1363 OFFCURVE",
"1400 1500 OFFCURVE",
"900 1500 CURVE SMOOTH",
"400 1500 OFFCURVE",
"150 1347 OFFCURVE",
"150 1040 CURVE SMOOTH",
"150 827 OFFCURVE",
"319 720 OFFCURVE",
"658 720 CURVE SMOOTH",
"753 720 OFFCURVE",
"846 755 OFFCURVE",
"894 815 CURVE SMOOTH",
"918 844 OFFCURVE",
"930 875 OFFCURVE",
"930 908 CURVE SMOOTH",
"930 973 OFFCURVE",
"878 1039 OFFCURVE",
"791 1072 CURVE SMOOTH",
"748 1088 OFFCURVE",
"703 1096 OFFCURVE",
"658 1096 CURVE SMOOTH",
"566 1096 OFFCURVE",
"471 1062 OFFCURVE",
"423 1002 CURVE SMOOTH",
"398 972 OFFCURVE",
"386 941 OFFCURVE",
"386 908 CURVE SMOOTH",
"386 899 LINE",
"362 928 OFFCURVE",
"350 969 OFFCURVE",
"350 1020 CURVE SMOOTH",
"350 1140 OFFCURVE",
"500 1200 OFFCURVE",
"800 1200 CURVE SMOOTH",
"1100 1200 OFFCURVE",
"1250 1136 OFFCURVE",
"1250 1009 CURVE SMOOTH"
);
},
{
closed = 1;
nodes = (
"1900 647 OFFCURVE",
"1850 681 OFFCURVE",
"1750 681 CURVE",
"1750 0 LINE",
"1900 0 LINE",
"1900 580 LINE SMOOTH"
);
}
);
width = 1900;
}
);
note = uni17A9;
unicode = 17A9;
},
{
glyphname = uni17AA;
lastChange = "2021-03-26 14:05:55 +0000";
layers = (
{
layerId = "B1070C97-2DE4-4FC8-9990-FF316D9539D4";
paths = (
{
closed = 1;
nodes = (
"157 1503 OFFCURVE",
"164 1504 OFFCURVE",
"171 1504 CURVE SMOOTH",
"214 1504 OFFCURVE",
"266 1475 OFFCURVE",
"327 1418 CURVE",
"413 1485 LINE",
"373 1540 OFFCURVE",
"328 1571 OFFCURVE",
"279 1580 CURVE",
"346 1645 OFFCURVE",
"435 1678 OFFCURVE",
"545 1678 CURVE SMOOTH",
"635 1678 OFFCURVE",
"735 1657 OFFCURVE",
"846 1616 CURVE SMOOTH",
"956 1575 OFFCURVE",
"1066 1554 OFFCURVE",
"1176 1554 CURVE SMOOTH",
"1385 1554 OFFCURVE",
"1650 1775 OFFCURVE",
"1650 1959 CURVE SMOOTH",
"1650 2143 OFFCURVE",
"1481 2249 OFFCURVE",
"1316 2249 CURVE SMOOTH",
"1233 2249 OFFCURVE",
"1174 2217 OFFCURVE",
"1141 2152 CURVE SMOOTH",
"1132 2136 OFFCURVE",
"1128 2121 OFFCURVE",
"1128 2106 CURVE SMOOTH",
"1128 2061 OFFCURVE",
"1167 2022 OFFCURVE",
"1246 1990 CURVE SMOOTH",
"1349 1947 OFFCURVE",
"1401 1901 OFFCURVE",
"1401 1850 CURVE SMOOTH",
"1401 1799 OFFCURVE",
"1380 1773 OFFCURVE",
"1339 1773 CURVE SMOOTH",
"1291 1773 OFFCURVE",
"1198 1811 OFFCURVE",
"1059 1888 CURVE SMOOTH",
"920 1964 OFFCURVE",
"800 2002 OFFCURVE",
"699 2003 CURVE SMOOTH",
"495 2003 OFFCURVE",
"249 1858 OFFCURVE",
"150 1689 CURVE",
"150 1502 LINE"
);
},
{
closed = 1;
nodes = (
"1250 892 OFFCURVE",
"1142 786 OFFCURVE",
"925 692 CURVE SMOOTH",
"708 597 OFFCURVE",
"450 540 OFFCURVE",
"150 520 CURVE",
"150 398 LINE SMOOTH",
"150 234 OFFCURVE",
"467 0 OFFCURVE",
"800 0 CURVE SMOOTH",
"1033 0 OFFCURVE",
"1203 98 OFFCURVE",
"1310 294 CURVE",
"1310 98 OFFCURVE",
"1293 0 OFFCURVE",
"1260 0 CURVE",
"1325 -17 OFFCURVE",
"1381 -25 OFFCURVE",
"1430 -25 CURVE SMOOTH",
"1576 -25 OFFCURVE",
"1649 50 OFFCURVE",
"1650 200 CURVE SMOOTH",
"1650 630 LINE SMOOTH",
"1650 669 OFFCURVE",
"1624 688 OFFCURVE",
"1572 688 CURVE SMOOTH",
"1515 688 OFFCURVE",
"1428 665 OFFCURVE",
"1310 620 CURVE",
"1310 427 OFFCURVE",
"1173 310 OFFCURVE",
"890 310 CURVE SMOOTH",
"769 310 OFFCURVE",
"665 333 OFFCURVE",
"640 400 CURVE",
"973 489 OFFCURVE",
"1650 797 OFFCURVE",
"1650 1089 CURVE SMOOTH",
"1650 1363 OFFCURVE",
"1400 1500 OFFCURVE",
"900 1500 CURVE SMOOTH",
"400 1500 OFFCURVE",
"150 1347 OFFCURVE",
"150 1040 CURVE SMOOTH",
"150 827 OFFCURVE",
"319 720 OFFCURVE",
"658 720 CURVE SMOOTH",
"753 720 OFFCURVE",
"846 755 OFFCURVE",
"894 815 CURVE SMOOTH",
"918 844 OFFCURVE",
"930 875 OFFCURVE",
"930 908 CURVE SMOOTH",
"930 973 OFFCURVE",
"878 1039 OFFCURVE",
"791 1072 CURVE SMOOTH",
"748 1088 OFFCURVE",
"703 1096 OFFCURVE",
"658 1096 CURVE SMOOTH",
"566 1096 OFFCURVE",
"471 1062 OFFCURVE",
"423 1002 CURVE SMOOTH",
"398 972 OFFCURVE",
"386 941 OFFCURVE",
"386 908 CURVE SMOOTH",
"386 899 LINE",
"362 928 OFFCURVE",
"350 969 OFFCURVE",
"350 1020 CURVE SMOOTH",
"350 1140 OFFCURVE",
"500 1200 OFFCURVE",
"800 1200 CURVE SMOOTH",
"1100 1200 OFFCURVE",
"1250 1136 OFFCURVE",
"1250 1009 CURVE SMOOTH"
);
}
);
width = 1800;
}
);
note = uni17AA;
unicode = 17AA;
},
{
glyphname = uni17AB;
lastChange = "2021-03-26 14:05:55 +0000";
layers = (
{
layerId = "B1070C97-2DE4-4FC8-9990-FF316D9539D4";
paths = (
{
closed = 1;
nodes = (
"258 683 OFFCURVE",
"368 703 OFFCURVE",
"481 710 CURVE SMOOTH",
"496 711 OFFCURVE",
"509 711 OFFCURVE",
"522 711 CURVE SMOOTH",
"607 711 OFFCURVE",
"650 692 OFFCURVE",
"650 653 CURVE SMOOTH",
"650 608 OFFCURVE",
"607 571 OFFCURVE",
"520 543 CURVE SMOOTH",
"433 514 OFFCURVE",
"310 500 OFFCURVE",
"150 500 CURVE",
"177 200 OFFCURVE",
"417 0 OFFCURVE",
"910 0 CURVE SMOOTH",
"1363 0 OFFCURVE",
"1650 288 OFFCURVE",
"1650 601 CURVE SMOOTH",
"1650 767 OFFCURVE",
"1598 888 OFFCURVE",
"1493 965 CURVE SMOOTH",
"1431 1010 OFFCURVE",
"1358 1033 OFFCURVE",
"1274 1033 CURVE SMOOTH",
"1215 1033 OFFCURVE",
"1151 1022 OFFCURVE",
"1081 1000 CURVE",
"1101 1080 OFFCURVE",
"1136 1127 OFFCURVE",
"1185 1140 CURVE SMOOTH",
"1202 1145 OFFCURVE",
"1220 1147 OFFCURVE",
"1238 1147 CURVE SMOOTH",
"1269 1147 OFFCURVE",
"1299 1140 OFFCURVE",
"1329 1125 CURVE SMOOTH",
"1376 1102 OFFCURVE",
"1427 1090 OFFCURVE",
"1482 1090 CURVE SMOOTH",
"1483 1090 OFFCURVE",
"1484 1090 OFFCURVE",
"1485 1091 CURVE",
"1541 1091 OFFCURVE",
"1595 1182 OFFCURVE",
"1648 1364 CURVE",
"1587 1364 OFFCURVE",
"1516 1387 OFFCURVE",
"1434 1432 CURVE SMOOTH",
"1351 1477 OFFCURVE",
"1298 1500 OFFCURVE",
"1274 1500 CURVE SMOOTH",
"1226 1500 OFFCURVE",
"980 1325 OFFCURVE",
"980 1224 CURVE SMOOTH",
"980 650 LINE",
"1095 683 OFFCURVE",
"1190 700 OFFCURVE",
"1265 700 CURVE SMOOTH",
"1310 700 OFFCURVE",
"1347 694 OFFCURVE",
"1378 683 CURVE SMOOTH",
"1459 651 OFFCURVE",
"1500 617 OFFCURVE",
"1500 580 CURVE SMOOTH",
"1500 393 OFFCURVE",
"1323 320 OFFCURVE",
"1050 320 CURVE SMOOTH",
"923 320 OFFCURVE",
"821 332 OFFCURVE",
"744 355 CURVE SMOOTH",
"667 378 OFFCURVE",
"623 407 OFFCURVE",
"610 440 CURVE",
"743 527 OFFCURVE",
"810 619 OFFCURVE",
"810 718 CURVE SMOOTH",
"810 857 OFFCURVE",
"759 948 OFFCURVE",
"656 993 CURVE SMOOTH",
"601 1016 OFFCURVE",
"537 1028 OFFCURVE",
"463 1028 CURVE SMOOTH",
"397 1028 OFFCURVE",
"323 1019 OFFCURVE",
"241 1000 CURVE",
"281 1087 OFFCURVE",
"327 1137 OFFCURVE",
"380 1150 CURVE SMOOTH",
"399 1155 OFFCURVE",
"417 1157 OFFCURVE",
"436 1157 CURVE SMOOTH",
"468 1157 OFFCURVE",
"499 1150 OFFCURVE",
"529 1135 CURVE SMOOTH",
"576 1112 OFFCURVE",
"630 1100 OFFCURVE",
"692 1100 CURVE SMOOTH",
"693 1100 OFFCURVE",
"694 1100 OFFCURVE",
"695 1101 CURVE",
"758 1101 OFFCURVE",
"825 1189 OFFCURVE",
"898 1364 CURVE",
"801 1375 OFFCURVE",
"715 1401 OFFCURVE",
"640 1441 CURVE SMOOTH",
"564 1480 OFFCURVE",
"511 1500 OFFCURVE",
"482 1500 CURVE SMOOTH",
"423 1500 OFFCURVE",
"150 1325 OFFCURVE",
"150 1224 CURVE SMOOTH",
"150 650 LINE"
);
},
{
closed = 1;
nodes = (
"1650 -167 OFFCURVE",
"1629 -104 OFFCURVE",
"1588 -62 CURVE SMOOTH",
"1546 -21 OFFCURVE",
"1483 0 OFFCURVE",
"1400 0 CURVE SMOOTH",
"1311 0 OFFCURVE",
"1243 -13 OFFCURVE",
"1198 -38 CURVE SMOOTH",
"1153 -63 OFFCURVE",
"1131 -100 OFFCURVE",
"1131 -150 CURVE SMOOTH",
"1131 -217 OFFCURVE",
"1204 -250 OFFCURVE",
"1351 -250 CURVE",
"1351 -183 OFFCURVE",
"1374 -150 OFFCURVE",
"1419 -150 CURVE SMOOTH",
"1474 -150 OFFCURVE",
"1501 -183 OFFCURVE",
"1501 -250 CURVE SMOOTH",
"1501 -283 OFFCURVE",
"1471 -308 OFFCURVE",
"1411 -325 CURVE SMOOTH",
"1352 -342 OFFCURVE",
"1263 -350 OFFCURVE",
"1144 -350 CURVE SMOOTH",
"813 -350 OFFCURVE",
"564 -374 OFFCURVE",
"399 -422 CURVE SMOOTH",
"234 -471 OFFCURVE",
"151 -552 OFFCURVE",
"151 -666 CURVE SMOOTH",
"151 -781 OFFCURVE",
"251 -858 OFFCURVE",
"451 -897 CURVE",
"451 -764 OFFCURVE",
"509 -665 OFFCURVE",
"624 -599 CURVE SMOOTH",
"739 -533 OFFCURVE",
"913 -500 OFFCURVE",
"1144 -500 CURVE SMOOTH",
"1313 -500 OFFCURVE",
"1439 -479 OFFCURVE",
"1523 -438 CURVE SMOOTH",
"1608 -396 OFFCURVE",
"1650 -333 OFFCURVE",
"1650 -250 CURVE SMOOTH"
);
}
);
width = 1800;
}
);
note = uni17AB;
unicode = 17AB;
},
{
glyphname = uni17AC;
lastChange = "2021-03-26 14:05:55 +0000";
layers = (
{
layerId = "B1070C97-2DE4-4FC8-9990-FF316D9539D4";
paths = (
{
closed = 1;
nodes = (
"258 683 OFFCURVE",
"368 703 OFFCURVE",
"481 710 CURVE SMOOTH",
"496 711 OFFCURVE",
"509 711 OFFCURVE",
"522 711 CURVE SMOOTH",
"607 711 OFFCURVE",
"650 692 OFFCURVE",
"650 653 CURVE SMOOTH",
"650 608 OFFCURVE",
"607 571 OFFCURVE",
"520 543 CURVE SMOOTH",
"433 514 OFFCURVE",
"310 500 OFFCURVE",
"150 500 CURVE",
"177 200 OFFCURVE",
"417 0 OFFCURVE",
"910 0 CURVE SMOOTH",
"1363 0 OFFCURVE",
"1650 288 OFFCURVE",
"1650 601 CURVE SMOOTH",
"1650 767 OFFCURVE",
"1598 888 OFFCURVE",
"1493 965 CURVE SMOOTH",
"1431 1010 OFFCURVE",
"1358 1033 OFFCURVE",
"1274 1033 CURVE SMOOTH",
"1215 1033 OFFCURVE",
"1151 1022 OFFCURVE",
"1081 1000 CURVE",
"1101 1080 OFFCURVE",
"1136 1127 OFFCURVE",
"1185 1140 CURVE SMOOTH",
"1202 1145 OFFCURVE",
"1220 1147 OFFCURVE",
"1238 1147 CURVE SMOOTH",
"1269 1147 OFFCURVE",
"1299 1140 OFFCURVE",
"1329 1125 CURVE SMOOTH",
"1376 1102 OFFCURVE",
"1427 1090 OFFCURVE",
"1482 1090 CURVE SMOOTH",
"1483 1090 OFFCURVE",
"1484 1090 OFFCURVE",
"1485 1091 CURVE",
"1541 1091 OFFCURVE",
"1595 1182 OFFCURVE",
"1648 1364 CURVE",
"1587 1364 OFFCURVE",
"1516 1387 OFFCURVE",
"1434 1432 CURVE SMOOTH",
"1351 1477 OFFCURVE",
"1298 1500 OFFCURVE",
"1274 1500 CURVE SMOOTH",
"1226 1500 OFFCURVE",
"980 1325 OFFCURVE",
"980 1224 CURVE SMOOTH",
"980 650 LINE",
"1095 683 OFFCURVE",
"1190 700 OFFCURVE",
"1265 700 CURVE SMOOTH",
"1310 700 OFFCURVE",
"1347 694 OFFCURVE",
"1378 683 CURVE SMOOTH",
"1459 651 OFFCURVE",
"1500 617 OFFCURVE",
"1500 580 CURVE SMOOTH",
"1500 393 OFFCURVE",
"1323 320 OFFCURVE",
"1050 320 CURVE SMOOTH",
"923 320 OFFCURVE",
"821 332 OFFCURVE",
"744 355 CURVE SMOOTH",
"667 378 OFFCURVE",
"623 407 OFFCURVE",
"610 440 CURVE",
"743 527 OFFCURVE",
"810 619 OFFCURVE",
"810 718 CURVE SMOOTH",
"810 857 OFFCURVE",
"759 948 OFFCURVE",
"656 993 CURVE SMOOTH",
"601 1016 OFFCURVE",
"537 1028 OFFCURVE",
"463 1028 CURVE SMOOTH",
"397 1028 OFFCURVE",
"323 1019 OFFCURVE",
"241 1000 CURVE",
"281 1087 OFFCURVE",
"327 1137 OFFCURVE",
"380 1150 CURVE SMOOTH",
"399 1155 OFFCURVE",
"417 1157 OFFCURVE",
"436 1157 CURVE SMOOTH",
"468 1157 OFFCURVE",
"499 1150 OFFCURVE",
"529 1135 CURVE SMOOTH",
"576 1112 OFFCURVE",
"630 1100 OFFCURVE",
"692 1100 CURVE SMOOTH",
"693 1100 OFFCURVE",
"694 1100 OFFCURVE",
"695 1101 CURVE",
"758 1101 OFFCURVE",
"825 1189 OFFCURVE",
"898 1364 CURVE",
"801 1375 OFFCURVE",
"715 1401 OFFCURVE",
"640 1441 CURVE SMOOTH",
"564 1480 OFFCURVE",
"511 1500 OFFCURVE",
"482 1500 CURVE SMOOTH",
"423 1500 OFFCURVE",
"150 1325 OFFCURVE",
"150 1224 CURVE SMOOTH",
"150 650 LINE"
);
},
{
closed = 1;
nodes = (
"1650 -167 OFFCURVE",
"1629 -104 OFFCURVE",
"1588 -62 CURVE SMOOTH",
"1546 -21 OFFCURVE",
"1483 0 OFFCURVE",
"1400 0 CURVE SMOOTH",
"1311 0 OFFCURVE",
"1243 -13 OFFCURVE",
"1198 -38 CURVE SMOOTH",
"1153 -63 OFFCURVE",
"1131 -100 OFFCURVE",
"1131 -150 CURVE SMOOTH",
"1131 -217 OFFCURVE",
"1204 -250 OFFCURVE",
"1351 -250 CURVE",
"1351 -183 OFFCURVE",
"1374 -150 OFFCURVE",
"1419 -150 CURVE SMOOTH",
"1474 -150 OFFCURVE",
"1501 -183 OFFCURVE",
"1501 -250 CURVE SMOOTH",
"1501 -283 OFFCURVE",
"1471 -308 OFFCURVE",
"1411 -325 CURVE SMOOTH",
"1352 -342 OFFCURVE",
"1263 -350 OFFCURVE",
"1144 -350 CURVE SMOOTH",
"813 -350 OFFCURVE",
"564 -374 OFFCURVE",
"399 -422 CURVE SMOOTH",
"234 -471 OFFCURVE",
"151 -552 OFFCURVE",
"151 -666 CURVE SMOOTH",
"151 -781 OFFCURVE",
"251 -858 OFFCURVE",
"451 -897 CURVE",
"451 -764 OFFCURVE",
"509 -665 OFFCURVE",
"624 -599 CURVE SMOOTH",
"739 -533 OFFCURVE",
"913 -500 OFFCURVE",
"1144 -500 CURVE SMOOTH",
"1167 -500 OFFCURVE",
"1189 -500 OFFCURVE",
"1210 -499 CURVE",
"1210 -503 LINE SMOOTH",
"1210 -540 OFFCURVE",
"1226 -578 OFFCURVE",
"1258 -617 CURVE SMOOTH",
"1309 -680 OFFCURVE",
"1372 -722 OFFCURVE",
"1448 -743 CURVE SMOOTH",
"1465 -748 OFFCURVE",
"1484 -750 OFFCURVE",
"1504 -750 CURVE SMOOTH",
"1572 -750 OFFCURVE",
"1654 -722 OFFCURVE",
"1750 -667 CURVE",
"1598 -616 OFFCURVE",
"1482 -552 OFFCURVE",
"1402 -477 CURVE",
"1449 -467 OFFCURVE",
"1490 -454 OFFCURVE",
"1523 -438 CURVE SMOOTH",
"1608 -396 OFFCURVE",
"1650 -333 OFFCURVE",
"1650 -250 CURVE SMOOTH"
);
}
);
width = 1800;
}
);
note = uni17AC;
unicode = 17AC;
},
{
glyphname = uni17AD;
lastChange = "2021-03-26 14:05:55 +0000";
layers = (
{
layerId = "B1070C97-2DE4-4FC8-9990-FF316D9539D4";
paths = (
{
closed = 1;
nodes = (
"800 788 OFFCURVE",
"726 903 OFFCURVE",
"577 903 CURVE SMOOTH",
"442 903 OFFCURVE",
"375 824 OFFCURVE",
"375 665 CURVE SMOOTH",
"375 546 OFFCURVE",
"422 487 OFFCURVE",
"517 487 CURVE SMOOTH",
"568 487 OFFCURVE",
"602 497 OFFCURVE",
"620 518 CURVE SMOOTH",
"629 529 OFFCURVE",
"639 535 OFFCURVE",
"650 535 CURVE SMOOTH",
"657 535 OFFCURVE",
"665 532 OFFCURVE",
"673 525 CURVE SMOOTH",
"691 509 OFFCURVE",
"700 488 OFFCURVE",
"700 461 CURVE SMOOTH",
"700 415 OFFCURVE",
"650 387 OFFCURVE",
"550 377 CURVE SMOOTH",
"538 376 OFFCURVE",
"526 375 OFFCURVE",
"514 375 CURVE SMOOTH",
"433 375 OFFCURVE",
"375 406 OFFCURVE",
"340 469 CURVE SMOOTH",
"300 540 OFFCURVE",
"280 634 OFFCURVE",
"280 750 CURVE SMOOTH",
"280 863 OFFCURVE",
"308 957 OFFCURVE",
"365 1030 CURVE SMOOTH",
"422 1103 OFFCURVE",
"486 1139 OFFCURVE",
"559 1140 CURVE SMOOTH",
"658 1140 OFFCURVE",
"769 1102 OFFCURVE",
"890 1027 CURVE",
"969 1102 OFFCURVE",
"1046 1140 OFFCURVE",
"1122 1140 CURVE SMOOTH",
"1197 1140 OFFCURVE",
"1288 1101 OFFCURVE",
"1393 1022 CURVE SMOOTH",
"1498 943 OFFCURVE",
"1550 867 OFFCURVE",
"1550 793 CURVE SMOOTH",
"1550 684 OFFCURVE",
"1467 606 OFFCURVE",
"1300 560 CURVE SMOOTH",
"1133 514 OFFCURVE",
"1050 467 OFFCURVE",
"1050 420 CURVE SMOOTH",
"1050 345 OFFCURVE",
"1090 256 OFFCURVE",
"1170 154 CURVE SMOOTH",
"1249 51 OFFCURVE",
"1343 0 OFFCURVE",
"1450 0 CURVE SMOOTH",
"1503 0 OFFCURVE",
"1550 23 OFFCURVE",
"1590 70 CURVE SMOOTH",
"1630 117 OFFCURVE",
"1650 160 OFFCURVE",
"1650 200 CURVE SMOOTH",
"1650 1170 LINE SMOOTH",
"1650 1239 OFFCURVE",
"1600 1312 OFFCURVE",
"1500 1387 CURVE SMOOTH",
"1408 1456 OFFCURVE",
"1318 1491 OFFCURVE",
"1229 1491 CURVE SMOOTH",
"1221 1491 OFFCURVE",
"1213 1491 OFFCURVE",
"1205 1490 CURVE SMOOTH",
"1135 1483 OFFCURVE",
"1057 1422 OFFCURVE",
"970 1305 CURVE",
"861 1413 OFFCURVE",
"733 1500 OFFCURVE",
"588 1500 CURVE SMOOTH",
"475 1500 OFFCURVE",
"374 1435 OFFCURVE",
"285 1305 CURVE SMOOTH",
"195 1175 OFFCURVE",
"150 990 OFFCURVE",
"150 750 CURVE SMOOTH",
"150 250 OFFCURVE",
"277 0 OFFCURVE",
"531 0 CURVE SMOOTH",
"710 0 OFFCURVE",
"800 186 OFFCURVE",
"800 558 CURVE SMOOTH"
);
},
{
closed = 1;
nodes = (
"1460 451 OFFCURVE",
"1457 460 OFFCURVE",
"1457 469 CURVE SMOOTH",
"1457 478 OFFCURVE",
"1461 486 OFFCURVE",
"1469 493 CURVE SMOOTH",
"1484 506 OFFCURVE",
"1511 530 OFFCURVE",
"1550 567 CURVE",
"1550 450 LINE SMOOTH",
"1550 421 OFFCURVE",
"1540 406 OFFCURVE",
"1519 406 CURVE SMOOTH",
"1498 406 OFFCURVE",
"1480 417 OFFCURVE",
"1467 440 CURVE SMOOTH"
);
},
{
closed = 1;
nodes = (
"1650 -167 OFFCURVE",
"1629 -104 OFFCURVE",
"1588 -62 CURVE SMOOTH",
"1546 -21 OFFCURVE",
"1483 0 OFFCURVE",
"1400 0 CURVE SMOOTH",
"1311 0 OFFCURVE",
"1243 -13 OFFCURVE",
"1198 -38 CURVE SMOOTH",
"1153 -63 OFFCURVE",
"1131 -100 OFFCURVE",
"1131 -150 CURVE SMOOTH",
"1131 -217 OFFCURVE",
"1204 -250 OFFCURVE",
"1351 -250 CURVE",
"1351 -183 OFFCURVE",
"1374 -150 OFFCURVE",
"1419 -150 CURVE SMOOTH",
"1474 -150 OFFCURVE",
"1501 -183 OFFCURVE",
"1501 -250 CURVE SMOOTH",
"1501 -283 OFFCURVE",
"1471 -308 OFFCURVE",
"1411 -325 CURVE SMOOTH",
"1352 -342 OFFCURVE",
"1263 -350 OFFCURVE",
"1144 -350 CURVE SMOOTH",
"813 -350 OFFCURVE",
"564 -374 OFFCURVE",
"399 -422 CURVE SMOOTH",
"234 -471 OFFCURVE",
"151 -552 OFFCURVE",
"151 -666 CURVE SMOOTH",
"151 -781 OFFCURVE",
"251 -858 OFFCURVE",
"451 -897 CURVE",
"451 -764 OFFCURVE",
"509 -665 OFFCURVE",
"624 -599 CURVE SMOOTH",
"739 -533 OFFCURVE",
"913 -500 OFFCURVE",
"1144 -500 CURVE SMOOTH",
"1313 -500 OFFCURVE",
"1439 -479 OFFCURVE",
"1523 -438 CURVE SMOOTH",
"1608 -396 OFFCURVE",
"1650 -333 OFFCURVE",
"1650 -250 CURVE SMOOTH"
);
}
);
width = 1800;
}
);
note = uni17AD;
unicode = 17AD;
},
{
glyphname = uni17AE;
lastChange = "2021-03-26 14:05:55 +0000";
layers = (
{
layerId = "B1070C97-2DE4-4FC8-9990-FF316D9539D4";
paths = (
{
closed = 1;
nodes = (
"800 788 OFFCURVE",
"726 903 OFFCURVE",
"577 903 CURVE SMOOTH",
"442 903 OFFCURVE",
"375 824 OFFCURVE",
"375 665 CURVE SMOOTH",
"375 546 OFFCURVE",
"422 487 OFFCURVE",
"517 487 CURVE SMOOTH",
"568 487 OFFCURVE",
"602 497 OFFCURVE",
"620 518 CURVE SMOOTH",
"629 529 OFFCURVE",
"639 535 OFFCURVE",
"650 535 CURVE SMOOTH",
"657 535 OFFCURVE",
"665 532 OFFCURVE",
"673 525 CURVE SMOOTH",
"691 509 OFFCURVE",
"700 488 OFFCURVE",
"700 461 CURVE SMOOTH",
"700 415 OFFCURVE",
"650 387 OFFCURVE",
"550 377 CURVE SMOOTH",
"538 376 OFFCURVE",
"526 375 OFFCURVE",
"514 375 CURVE SMOOTH",
"433 375 OFFCURVE",
"375 406 OFFCURVE",
"340 469 CURVE SMOOTH",
"300 540 OFFCURVE",
"280 634 OFFCURVE",
"280 750 CURVE SMOOTH",
"280 863 OFFCURVE",
"308 957 OFFCURVE",
"365 1030 CURVE SMOOTH",
"422 1103 OFFCURVE",
"486 1139 OFFCURVE",
"559 1140 CURVE SMOOTH",
"658 1140 OFFCURVE",
"769 1102 OFFCURVE",
"890 1027 CURVE",
"969 1102 OFFCURVE",
"1046 1140 OFFCURVE",
"1122 1140 CURVE SMOOTH",
"1197 1140 OFFCURVE",
"1288 1101 OFFCURVE",
"1393 1022 CURVE SMOOTH",
"1498 943 OFFCURVE",
"1550 867 OFFCURVE",
"1550 793 CURVE SMOOTH",
"1550 684 OFFCURVE",
"1467 606 OFFCURVE",
"1300 560 CURVE SMOOTH",
"1133 514 OFFCURVE",
"1050 467 OFFCURVE",
"1050 420 CURVE SMOOTH",
"1050 345 OFFCURVE",
"1090 256 OFFCURVE",
"1170 154 CURVE SMOOTH",
"1249 51 OFFCURVE",
"1343 0 OFFCURVE",
"1450 0 CURVE SMOOTH",
"1503 0 OFFCURVE",
"1550 23 OFFCURVE",
"1590 70 CURVE SMOOTH",
"1630 117 OFFCURVE",
"1650 160 OFFCURVE",
"1650 200 CURVE SMOOTH",
"1650 1170 LINE SMOOTH",
"1650 1239 OFFCURVE",
"1600 1312 OFFCURVE",
"1500 1387 CURVE SMOOTH",
"1408 1456 OFFCURVE",
"1318 1491 OFFCURVE",
"1229 1491 CURVE SMOOTH",
"1221 1491 OFFCURVE",
"1213 1491 OFFCURVE",
"1205 1490 CURVE SMOOTH",
"1135 1483 OFFCURVE",
"1057 1422 OFFCURVE",
"970 1305 CURVE",
"861 1413 OFFCURVE",
"733 1500 OFFCURVE",
"588 1500 CURVE SMOOTH",
"475 1500 OFFCURVE",
"374 1435 OFFCURVE",
"285 1305 CURVE SMOOTH",
"195 1175 OFFCURVE",
"150 990 OFFCURVE",
"150 750 CURVE SMOOTH",
"150 250 OFFCURVE",
"277 0 OFFCURVE",
"531 0 CURVE SMOOTH",
"710 0 OFFCURVE",
"800 186 OFFCURVE",
"800 558 CURVE SMOOTH"
);
},
{
closed = 1;
nodes = (
"1460 451 OFFCURVE",
"1457 460 OFFCURVE",
"1457 469 CURVE SMOOTH",
"1457 478 OFFCURVE",
"1461 486 OFFCURVE",
"1469 493 CURVE SMOOTH",
"1484 506 OFFCURVE",
"1511 530 OFFCURVE",
"1550 567 CURVE",
"1550 450 LINE SMOOTH",
"1550 421 OFFCURVE",
"1540 406 OFFCURVE",
"1519 406 CURVE SMOOTH",
"1498 406 OFFCURVE",
"1480 417 OFFCURVE",
"1467 440 CURVE SMOOTH"
);
},
{
closed = 1;
nodes = (
"1650 -167 OFFCURVE",
"1629 -104 OFFCURVE",
"1588 -62 CURVE SMOOTH",
"1546 -21 OFFCURVE",
"1483 0 OFFCURVE",
"1400 0 CURVE SMOOTH",
"1311 0 OFFCURVE",
"1243 -13 OFFCURVE",
"1198 -38 CURVE SMOOTH",
"1153 -63 OFFCURVE",
"1131 -100 OFFCURVE",
"1131 -150 CURVE SMOOTH",
"1131 -217 OFFCURVE",
"1204 -250 OFFCURVE",
"1351 -250 CURVE",
"1351 -183 OFFCURVE",
"1374 -150 OFFCURVE",
"1419 -150 CURVE SMOOTH",
"1474 -150 OFFCURVE",
"1501 -183 OFFCURVE",
"1501 -250 CURVE SMOOTH",
"1501 -283 OFFCURVE",
"1471 -308 OFFCURVE",
"1411 -325 CURVE SMOOTH",
"1352 -342 OFFCURVE",
"1263 -350 OFFCURVE",
"1144 -350 CURVE SMOOTH",
"813 -350 OFFCURVE",
"564 -374 OFFCURVE",
"399 -422 CURVE SMOOTH",
"234 -471 OFFCURVE",
"151 -552 OFFCURVE",
"151 -666 CURVE SMOOTH",
"151 -781 OFFCURVE",
"251 -858 OFFCURVE",
"451 -897 CURVE",
"451 -764 OFFCURVE",
"509 -665 OFFCURVE",
"624 -599 CURVE SMOOTH",
"739 -533 OFFCURVE",
"913 -500 OFFCURVE",
"1144 -500 CURVE SMOOTH",
"1167 -500 OFFCURVE",
"1189 -500 OFFCURVE",
"1210 -499 CURVE",
"1210 -503 LINE SMOOTH",
"1210 -540 OFFCURVE",
"1226 -578 OFFCURVE",
"1258 -617 CURVE SMOOTH",
"1309 -680 OFFCURVE",
"1372 -722 OFFCURVE",
"1448 -743 CURVE SMOOTH",
"1465 -748 OFFCURVE",
"1484 -750 OFFCURVE",
"1504 -750 CURVE SMOOTH",
"1572 -750 OFFCURVE",
"1654 -722 OFFCURVE",
"1750 -667 CURVE",
"1598 -616 OFFCURVE",
"1482 -552 OFFCURVE",
"1402 -477 CURVE",
"1449 -467 OFFCURVE",
"1490 -454 OFFCURVE",
"1523 -438 CURVE SMOOTH",
"1608 -396 OFFCURVE",
"1650 -333 OFFCURVE",
"1650 -250 CURVE SMOOTH"
);
}
);
width = 1800;
}
);
note = uni17AE;
unicode = 17AE;
},
{
glyphname = uni17AF;
lastChange = "2021-03-26 14:05:55 +0000";
layers = (
{
layerId = "B1070C97-2DE4-4FC8-9990-FF316D9539D4";
paths = (
{
closed = 1;
nodes = (
"499 684 OFFCURVE",
"527 710 OFFCURVE",
"549 710 CURVE SMOOTH",
"570 710 OFFCURVE",
"580 689 OFFCURVE",
"580 648 CURVE SMOOTH",
"580 640 LINE SMOOTH",
"580 603 OFFCURVE",
"545 571 OFFCURVE",
"475 543 CURVE SMOOTH",
"405 514 OFFCURVE",
"313 500 OFFCURVE",
"200 500 CURVE SMOOTH",
"167 500 OFFCURVE",
"150 463 OFFCURVE",
"150 388 CURVE SMOOTH",
"150 313 OFFCURVE",
"208 229 OFFCURVE",
"325 138 CURVE SMOOTH",
"442 46 OFFCURVE",
"582 0 OFFCURVE",
"745 0 CURVE SMOOTH",
"815 0 OFFCURVE",
"882 50 OFFCURVE",
"947 151 CURVE",
"1048 76 LINE SMOOTH",
"1116 25 OFFCURVE",
"1180 0 OFFCURVE",
"1240 0 CURVE SMOOTH",
"1313 0 OFFCURVE",
"1400 54 OFFCURVE",
"1500 163 CURVE SMOOTH",
"1600 272 OFFCURVE",
"1650 404 OFFCURVE",
"1650 561 CURVE SMOOTH",
"1650 1083 LINE",
"1644 1134 OFFCURVE",
"1598 1188 OFFCURVE",
"1512 1243 CURVE SMOOTH",
"1375 1329 LINE SMOOTH",
"1193 1443 OFFCURVE",
"1035 1500 OFFCURVE",
"902 1500 CURVE SMOOTH",
"900 1500 LINE SMOOTH",
"673 1500 OFFCURVE",
"553 1432 OFFCURVE",
"342 1312 CURVE",
"447 1453 OFFCURVE",
"500 1572 OFFCURVE",
"500 1670 CURVE SMOOTH",
"500 1857 OFFCURVE",
"417 1950 OFFCURVE",
"250 1950 CURVE SMOOTH",
"165 1950 OFFCURVE",
"98 1867 OFFCURVE",
"50 1700 CURVE",
"150 1700 OFFCURVE",
"200 1667 OFFCURVE",
"200 1600 CURVE SMOOTH",
"200 1533 OFFCURVE",
"192 1469 OFFCURVE",
"176 1406 CURVE SMOOTH",
"159 1343 OFFCURVE",
"151 1278 OFFCURVE",
"151 1211 CURVE SMOOTH",
"151 1137 OFFCURVE",
"199 1100 OFFCURVE",
"296 1100 CURVE",
"440 1167 OFFCURVE",
"628 1200 OFFCURVE",
"861 1200 CURVE SMOOTH",
"968 1200 OFFCURVE",
"1101 1149 OFFCURVE",
"1261 1047 CURVE SMOOTH",
"1420 946 OFFCURVE",
"1500 863 OFFCURVE",
"1500 798 CURVE SMOOTH",
"1500 700 LINE SMOOTH",
"1500 547 OFFCURVE",
"1474 449 OFFCURVE",
"1422 408 CURVE SMOOTH",
"1371 367 OFFCURVE",
"1324 347 OFFCURVE",
"1282 347 CURVE SMOOTH",
"1241 347 OFFCURVE",
"1197 357 OFFCURVE",
"1150 378 CURVE SMOOTH",
"1103 398 OFFCURVE",
"1064 425 OFFCURVE",
"1033 460 CURVE SMOOTH",
"986 512 LINE",
"915 416 LINE",
"877 370 OFFCURVE",
"835 347 OFFCURVE",
"789 347 CURVE SMOOTH",
"696 347 OFFCURVE",
"635 383 OFFCURVE",
"610 440 CURVE",
"703 480 OFFCURVE",
"750 567 OFFCURVE",
"750 700 CURVE SMOOTH",
"750 900 OFFCURVE",
"643 1000 OFFCURVE",
"430 1000 CURVE SMOOTH",
"243 1000 OFFCURVE",
"150 925 OFFCURVE",
"150 775 CURVE SMOOTH",
"150 658 OFFCURVE",
"194 592 OFFCURVE",
"281 576 CURVE SMOOTH",
"301 572 OFFCURVE",
"320 570 OFFCURVE",
"338 570 CURVE SMOOTH",
"395 570 OFFCURVE",
"437 590 OFFCURVE",
"464 631 CURVE SMOOTH"
);
}
);
width = 1800;
}
);
note = uni17AF;
unicode = 17AF;
},
{
glyphname = uni17B0;
lastChange = "2021-03-26 14:05:55 +0000";
layers = (
{
layerId = "B1070C97-2DE4-4FC8-9990-FF316D9539D4";
paths = (
{
closed = 1;
nodes = (
"800 788 OFFCURVE",
"726 903 OFFCURVE",
"577 903 CURVE SMOOTH",
"442 903 OFFCURVE",
"375 824 OFFCURVE",
"375 665 CURVE SMOOTH",
"375 546 OFFCURVE",
"422 487 OFFCURVE",
"517 487 CURVE SMOOTH",
"568 487 OFFCURVE",
"602 497 OFFCURVE",
"620 518 CURVE SMOOTH",
"629 529 OFFCURVE",
"639 535 OFFCURVE",
"650 535 CURVE SMOOTH",
"657 535 OFFCURVE",
"665 532 OFFCURVE",
"673 525 CURVE SMOOTH",
"691 509 OFFCURVE",
"700 488 OFFCURVE",
"700 461 CURVE SMOOTH",
"700 415 OFFCURVE",
"650 387 OFFCURVE",
"550 377 CURVE SMOOTH",
"538 376 OFFCURVE",
"526 375 OFFCURVE",
"514 375 CURVE SMOOTH",
"433 375 OFFCURVE",
"375 406 OFFCURVE",
"340 469 CURVE SMOOTH",
"300 540 OFFCURVE",
"280 634 OFFCURVE",
"280 750 CURVE SMOOTH",
"280 863 OFFCURVE",
"308 957 OFFCURVE",
"365 1030 CURVE SMOOTH",
"422 1103 OFFCURVE",
"486 1139 OFFCURVE",
"559 1140 CURVE SMOOTH",
"658 1140 OFFCURVE",
"769 1102 OFFCURVE",
"890 1027 CURVE",
"969 1102 OFFCURVE",
"1046 1140 OFFCURVE",
"1122 1140 CURVE SMOOTH",
"1197 1140 OFFCURVE",
"1288 1101 OFFCURVE",
"1393 1022 CURVE SMOOTH",
"1498 943 OFFCURVE",
"1550 867 OFFCURVE",
"1550 793 CURVE SMOOTH",
"1550 684 OFFCURVE",
"1467 606 OFFCURVE",
"1300 560 CURVE SMOOTH",
"1133 514 OFFCURVE",
"1050 467 OFFCURVE",
"1050 420 CURVE SMOOTH",
"1050 345 OFFCURVE",
"1090 256 OFFCURVE",
"1170 154 CURVE SMOOTH",
"1249 51 OFFCURVE",
"1343 0 OFFCURVE",
"1450 0 CURVE SMOOTH",
"1503 0 OFFCURVE",
"1550 23 OFFCURVE",
"1590 70 CURVE SMOOTH",
"1630 117 OFFCURVE",
"1650 160 OFFCURVE",
"1650 200 CURVE SMOOTH",
"1650 1170 LINE SMOOTH",
"1650 1239 OFFCURVE",
"1600 1312 OFFCURVE",
"1500 1387 CURVE SMOOTH",
"1408 1456 OFFCURVE",
"1318 1491 OFFCURVE",
"1229 1491 CURVE SMOOTH",
"1221 1491 OFFCURVE",
"1213 1491 OFFCURVE",
"1205 1490 CURVE SMOOTH",
"1135 1483 OFFCURVE",
"1057 1422 OFFCURVE",
"970 1305 CURVE",
"861 1413 OFFCURVE",
"733 1500 OFFCURVE",
"588 1500 CURVE SMOOTH",
"475 1500 OFFCURVE",
"374 1435 OFFCURVE",
"285 1305 CURVE SMOOTH",
"195 1175 OFFCURVE",
"150 990 OFFCURVE",
"150 750 CURVE SMOOTH",
"150 250 OFFCURVE",
"277 0 OFFCURVE",
"531 0 CURVE SMOOTH",
"710 0 OFFCURVE",
"800 186 OFFCURVE",
"800 558 CURVE SMOOTH"
);
},
{
closed = 1;
nodes = (
"1460 451 OFFCURVE",
"1457 460 OFFCURVE",
"1457 469 CURVE SMOOTH",
"1457 478 OFFCURVE",
"1461 486 OFFCURVE",
"1469 493 CURVE SMOOTH",
"1484 506 OFFCURVE",
"1511 530 OFFCURVE",
"1550 567 CURVE",
"1550 450 LINE SMOOTH",
"1550 421 OFFCURVE",
"1540 406 OFFCURVE",
"1519 406 CURVE SMOOTH",
"1498 406 OFFCURVE",
"1480 417 OFFCURVE",
"1467 440 CURVE SMOOTH"
);
},
{
closed = 1;
nodes = (
"400 -426 OFFCURVE",
"433 -493 OFFCURVE",
"499 -576 CURVE SMOOTH",
"565 -659 OFFCURVE",
"655 -700 OFFCURVE",
"768 -700 CURVE SMOOTH",
"829 -700 OFFCURVE",
"905 -653 OFFCURVE",
"996 -560 CURVE",
"1088 -653 LINE SMOOTH",
"1118 -684 OFFCURVE",
"1179 -699 OFFCURVE",
"1271 -699 CURVE SMOOTH",
"1347 -699 OFFCURVE",
"1404 -668 OFFCURVE",
"1443 -606 CURVE SMOOTH",
"1481 -545 OFFCURVE",
"1500 -452 OFFCURVE",
"1500 -328 CURVE SMOOTH",
"1500 -202 OFFCURVE",
"1439 -109 OFFCURVE",
"1317 -50 CURVE",
"1347 -149 OFFCURVE",
"1362 -242 OFFCURVE",
"1362 -328 CURVE SMOOTH",
"1362 -375 OFFCURVE",
"1355 -409 OFFCURVE",
"1340 -432 CURVE SMOOTH",
"1325 -455 OFFCURVE",
"1302 -467 OFFCURVE",
"1271 -467 CURVE SMOOTH",
"1240 -467 OFFCURVE",
"1214 -455 OFFCURVE",
"1192 -432 CURVE SMOOTH",
"1132 -363 LINE SMOOTH",
"1113 -340 OFFCURVE",
"1092 -328 OFFCURVE",
"1070 -328 CURVE SMOOTH",
"1039 -328 OFFCURVE",
"1010 -340 OFFCURVE",
"983 -363 CURVE",
"900 -469 LINE",
"873 -499 OFFCURVE",
"844 -514 OFFCURVE",
"813 -514 CURVE SMOOTH",
"774 -514 OFFCURVE",
"739 -507 OFFCURVE",
"708 -493 CURVE SMOOTH",
"677 -479 OFFCURVE",
"651 -458 OFFCURVE",
"630 -430 CURVE",
"951 -329 LINE SMOOTH",
"1184 -260 OFFCURVE",
"1300 -200 OFFCURVE",
"1300 -149 CURVE SMOOTH",
"1300 -83 OFFCURVE",
"1236 -50 OFFCURVE",
"1109 -50 CURVE",
"1136 -65 OFFCURVE",
"1150 -88 OFFCURVE",
"1150 -121 CURVE SMOOTH",
"1150 -148 OFFCURVE",
"1061 -190 OFFCURVE",
"883 -248 CURVE",
"592 -333 OFFCURVE",
"431 -375 OFFCURVE",
"400 -375 CURVE"
);
}
);
width = 1800;
}
);
note = uni17B0;
unicode = 17B0;
},
{
glyphname = uni17B1;
lastChange = "2021-03-26 14:05:55 +0000";
layers = (
{
layerId = "B1070C97-2DE4-4FC8-9990-FF316D9539D4";
paths = (
{
closed = 1;
nodes = (
"208 1299 OFFCURVE",
"150 1187 OFFCURVE",
"150 1040 CURVE SMOOTH",
"150 827 OFFCURVE",
"319 720 OFFCURVE",
"658 720 CURVE SMOOTH",
"753 720 OFFCURVE",
"846 755 OFFCURVE",
"894 815 CURVE SMOOTH",
"918 844 OFFCURVE",
"930 875 OFFCURVE",
"930 908 CURVE SMOOTH",
"930 973 OFFCURVE",
"878 1039 OFFCURVE",
"791 1072 CURVE SMOOTH",
"748 1088 OFFCURVE",
"703 1096 OFFCURVE",
"658 1096 CURVE SMOOTH",
"566 1096 OFFCURVE",
"471 1062 OFFCURVE",
"423 1002 CURVE SMOOTH",
"398 972 OFFCURVE",
"386 941 OFFCURVE",
"386 908 CURVE SMOOTH",
"386 899 LINE",
"362 928 OFFCURVE",
"350 969 OFFCURVE",
"350 1020 CURVE SMOOTH",
"350 1140 OFFCURVE",
"500 1200 OFFCURVE",
"800 1200 CURVE SMOOTH",
"1100 1200 OFFCURVE",
"1250 1136 OFFCURVE",
"1250 1009 CURVE SMOOTH",
"1250 892 OFFCURVE",
"1142 786 OFFCURVE",
"925 692 CURVE SMOOTH",
"708 597 OFFCURVE",
"450 540 OFFCURVE",
"150 520 CURVE",
"150 398 LINE SMOOTH",
"150 234 OFFCURVE",
"467 0 OFFCURVE",
"800 0 CURVE SMOOTH",
"1033 0 OFFCURVE",
"1203 98 OFFCURVE",
"1310 294 CURVE",
"1310 98 OFFCURVE",
"1293 0 OFFCURVE",
"1260 0 CURVE",
"1325 -17 OFFCURVE",
"1381 -25 OFFCURVE",
"1430 -25 CURVE SMOOTH",
"1576 -25 OFFCURVE",
"1649 50 OFFCURVE",
"1650 200 CURVE SMOOTH",
"1650 630 LINE SMOOTH",
"1650 669 OFFCURVE",
"1624 688 OFFCURVE",
"1572 688 CURVE SMOOTH",
"1515 688 OFFCURVE",
"1428 665 OFFCURVE",
"1310 620 CURVE",
"1310 427 OFFCURVE",
"1173 310 OFFCURVE",
"890 310 CURVE SMOOTH",
"769 310 OFFCURVE",
"665 333 OFFCURVE",
"640 400 CURVE",
"973 489 OFFCURVE",
"1650 797 OFFCURVE",
"1650 1089 CURVE SMOOTH",
"1650 1363 OFFCURVE",
"1400 1500 OFFCURVE",
"900 1500 CURVE SMOOTH",
"815 1500 OFFCURVE",
"737 1496 OFFCURVE",
"667 1487 CURVE",
"668 1495 OFFCURVE",
"668 1503 OFFCURVE",
"668 1512 CURVE SMOOTH",
"667 1611 OFFCURVE",
"599 1660 OFFCURVE",
"484 1660 CURVE SMOOTH",
"418 1660 OFFCURVE",
"350 1634 OFFCURVE",
"279 1581 CURVE",
"279 1641 OFFCURVE",
"318 1686 OFFCURVE",
"396 1716 CURVE SMOOTH",
"475 1746 OFFCURVE",
"599 1761 OFFCURVE",
"768 1761 CURVE SMOOTH",
"943 1761 OFFCURVE",
"1093 1738 OFFCURVE",
"1219 1691 CURVE SMOOTH",
"1346 1644 OFFCURVE",
"1441 1574 OFFCURVE",
"1506 1481 CURVE SMOOTH",
"1541 1432 OFFCURVE",
"1575 1407 OFFCURVE",
"1609 1407 CURVE SMOOTH",
"1618 1407 OFFCURVE",
"1626 1409 OFFCURVE",
"1635 1412 CURVE SMOOTH",
"1660 1421 OFFCURVE",
"1672 1440 OFFCURVE",
"1672 1467 CURVE SMOOTH",
"1672 1488 OFFCURVE",
"1665 1513 OFFCURVE",
"1652 1544 CURVE SMOOTH",
"1582 1699 OFFCURVE",
"1471 1816 OFFCURVE",
"1320 1894 CURVE SMOOTH",
"1169 1972 OFFCURVE",
"985 2011 OFFCURVE",
"767 2011 CURVE SMOOTH",
"528 2011 OFFCURVE",
"365 1971 OFFCURVE",
"279 1891 CURVE SMOOTH",
"193 1811 OFFCURVE",
"150 1708 OFFCURVE",
"150 1581 CURVE SMOOTH",
"150 1474 OFFCURVE",
"208 1405 OFFCURVE",
"323 1376 CURVE"
);
}
);
width = 1800;
}
);
note = uni17B1;
unicode = 17B1;
},
{
glyphname = uni17B2;
lastChange = "2021-03-26 14:05:55 +0000";
layers = (
{
layerId = "B1070C97-2DE4-4FC8-9990-FF316D9539D4";
paths = (
{
closed = 1;
nodes = (
"217 1804 OFFCURVE",
"301 1628 OFFCURVE",
"301 1425 CURVE SMOOTH",
"300 1222 OFFCURVE",
"275 1050 OFFCURVE",
"225 910 CURVE SMOOTH",
"176 771 OFFCURVE",
"151 661 OFFCURVE",
"151 580 CURVE SMOOTH",
"151 327 OFFCURVE",
"221 167 OFFCURVE",
"361 100 CURVE SMOOTH",
"501 34 OFFCURVE",
"676 1 OFFCURVE",
"886 0 CURVE SMOOTH",
"1096 0 OFFCURVE",
"1276 42 OFFCURVE",
"1426 125 CURVE SMOOTH",
"1576 209 OFFCURVE",
"1651 318 OFFCURVE",
"1651 451 CURVE SMOOTH",
"1651 584 OFFCURVE",
"1557 689 OFFCURVE",
"1370 764 CURVE",
"1464 823 OFFCURVE",
"1534 885 OFFCURVE",
"1581 951 CURVE SMOOTH",
"1628 1017 OFFCURVE",
"1651 1087 OFFCURVE",
"1651 1160 CURVE SMOOTH",
"1651 1274 OFFCURVE",
"1620 1359 OFFCURVE",
"1557 1416 CURVE SMOOTH",
"1495 1472 OFFCURVE",
"1402 1500 OFFCURVE",
"1279 1500 CURVE SMOOTH",
"1275 1500 LINE SMOOTH",
"1150 1500 OFFCURVE",
"1052 1475 OFFCURVE",
"979 1425 CURVE SMOOTH",
"907 1375 OFFCURVE",
"861 1300 OFFCURVE",
"842 1200 CURVE SMOOTH",
"835 1161 OFFCURVE",
"831 1126 OFFCURVE",
"831 1095 CURVE SMOOTH",
"831 965 OFFCURVE",
"895 900 OFFCURVE",
"1022 900 CURVE SMOOTH",
"1074 900 OFFCURVE",
"1104 934 OFFCURVE",
"1111 1001 CURVE",
"1111 1017 LINE SMOOTH",
"1111 1072 OFFCURVE",
"1078 1100 OFFCURVE",
"1012 1100 CURVE SMOOTH",
"1010 1100 LINE",
"1024 1167 OFFCURVE",
"1101 1201 OFFCURVE",
"1240 1201 CURVE SMOOTH",
"1380 1201 OFFCURVE",
"1450 1173 OFFCURVE",
"1451 1116 CURVE SMOOTH",
"1451 1059 OFFCURVE",
"1376 986 OFFCURVE",
"1225 896 CURVE",
"1042 767 OFFCURVE",
"951 635 OFFCURVE",
"951 501 CURVE SMOOTH",
"951 500 LINE",
"1089 589 OFFCURVE",
"1187 633 OFFCURVE",
"1246 633 CURVE SMOOTH",
"1256 633 OFFCURVE",
"1265 632 OFFCURVE",
"1273 629 CURVE SMOOTH",
"1324 610 OFFCURVE",
"1350 582 OFFCURVE",
"1350 543 CURVE SMOOTH",
"1350 542 LINE SMOOTH",
"1350 502 OFFCURVE",
"1300 460 OFFCURVE",
"1201 416 CURVE SMOOTH",
"1101 372 OFFCURVE",
"993 350 OFFCURVE",
"876 350 CURVE SMOOTH",
"759 350 OFFCURVE",
"642 367 OFFCURVE",
"526 400 CURVE SMOOTH",
"409 433 OFFCURVE",
"351 493 OFFCURVE",
"351 580 CURVE SMOOTH",
"351 582 LINE SMOOTH",
"351 662 OFFCURVE",
"401 768 OFFCURVE",
"501 901 CURVE SMOOTH",
"600 1034 OFFCURVE",
"650 1169 OFFCURVE",
"650 1308 CURVE SMOOTH",
"650 1500 LINE SMOOTH",
"650 1643 OFFCURVE",
"600 1753 OFFCURVE",
"500 1828 CURVE SMOOTH",
"400 1903 OFFCURVE",
"250 1944 OFFCURVE",
"50 1951 CURVE"
);
}
);
width = 1800;
}
);
note = uni17B2;
unicode = 17B2;
},
